<svg xmlns:xlink="http://www.w3.org/1999/xlink" viewBox="0 0 4000 4000">
	<g>
		<g>
			<g>
				<rect style="fill:none;" width="4000" height="4000" />
			</g>
		</g>
		<g>
			<g>
				<g>
					<ellipse style="fill:#6b7280;" cx="1970.76" cy="3650.036" rx="886.447" ry="132.831" />
				</g>
			</g>
			<g>
				<g>
					<g>
						<path style="fill:#371A45;" d="M1859.476,1481.704c-28.464-85.945-51.872-177.272-73.52-265.332
						c-20.776-88.32-41.412-180.197-55.082-269.763c28.507,85.933,51.908,177.262,73.52,265.332
						C1825.136,1300.269,1845.761,1392.147,1859.476,1481.704L1859.476,1481.704z" />
					</g>
				</g>
				<g>
					<g>
						<path style="fill:#371A45;" d="M1861.556,659.313c-15.352-69.682-24.936-143.237-33.263-214.163
						c-7.431-71.066-14.185-144.844-14.413-216.253c15.396,69.677,24.967,143.233,33.261,214.165
						C1854.535,514.129,1861.281,587.908,1861.556,659.313L1861.556,659.313z" />
					</g>
				</g>
			</g>
			<g>
				<g>
					<g>
						<path style="fill:#371A45;" d="M2094.918,1481.704c13.701-89.491,34.349-181.484,55.082-269.762
						c21.627-88.116,44.995-179.334,73.52-265.332c-13.656,89.5-34.314,181.491-55.082,269.762
						C2146.779,1304.479,2123.398,1395.694,2094.918,1481.704L2094.918,1481.704z" />
					</g>
				</g>
				<g>
					<g>
						<path style="fill:#371A45;" d="M2092.841,659.313c0.27-71.352,7.019-145.222,14.413-216.25
						c8.303-70.97,17.856-144.436,33.263-214.165c-0.227,71.356-6.983,145.225-14.415,216.252
						C2117.766,516.113,2108.198,589.578,2092.841,659.313L2092.841,659.313z" />
					</g>
				</g>
			</g>
			<g>
				<g>
					<circle style="fill:#FFD243;" cx="1977.197" cy="889.53" r="516.85" />
				</g>
			</g>
			<g>
				<g>
					<path style="fill:#FFFFFF;" d="M2157.915,3519.478c-121.306,9.647-239.807,9.647-361.113,0
					c-103.732-12.003-204.62-112.191-216.792-216.008c-9.174-117.198-9.179-231.742,0-349
					c12.172-103.818,113.057-204.003,216.792-216.008c121.306-9.647,239.807-9.647,361.113,0
					c103.735,12.006,204.618,112.191,216.79,216.008c9.179,117.259,9.174,231.803,0,349
					C2362.532,3407.288,2261.647,3507.473,2157.915,3519.478z" />
					<path style="fill:#371A45;" d="M1977.359,3545.704c-60.404,0-120.808-2.436-182.062-7.309c-0.227-0.015-0.452-0.039-0.679-0.063
					c-113.299-13.114-220.21-119.656-233.458-232.652c-0.027-0.244-0.051-0.488-0.071-0.732c-9.269-118.416-9.269-233.541,0-351.956
					c0.02-0.244,0.044-0.488,0.071-0.732c13.248-112.996,120.159-219.533,233.458-232.647c0.227-0.024,0.452-0.049,0.679-0.063
					c122.507-9.745,241.614-9.745,364.121,0c0.227,0.015,0.452,0.039,0.679,0.063c113.297,13.114,220.207,119.651,233.455,232.647
					c0.027,0.244,0.051,0.488,0.071,0.732c9.269,118.416,9.269,233.541,0,351.956c-0.02,0.244-0.044,0.488-0.071,0.732
					c-13.248,112.991-120.156,219.533-233.455,232.652c-0.225,0.024-0.452,0.049-0.679,0.063
					C2098.165,3543.267,2037.761,3545.704,1977.359,3545.704z M2157.915,3519.481h0.049H2157.915z M1798.657,3500.591
					c120.244,9.55,237.166,9.55,357.405,0c95.22-11.215,188.423-104.057,199.752-198.979c9.074-116.16,9.074-229.127,0-345.287
					c-11.329-94.927-104.535-187.764-199.755-198.974c-120.239-9.55-237.156-9.55-357.405,0
					c-95.22,11.21-188.426,104.047-199.755,198.974c-9.074,116.16-9.074,229.127,0,345.287
					C1610.229,3396.539,1703.434,3489.381,1798.657,3500.591z" />
				</g>
			</g>
			<g>
				<g>
					<ellipse style="fill:#9ca3af;" cx="1975.38" cy="3657.211" rx="665.607" ry="115.755" />
				</g>
			</g>
			<g>
				<g>
					<g>
						<path style="fill:#777782;" d="M1870.126,3550.958l-306.387,80.522c0,0-85.098,9.745-143.98,9.745
						c-119.58,0-155.122-185.822-155.122-185.822l125.692-122.856l318.466-98.781" />
					</g>
				</g>
				<g>
					<g>
						<path style="fill:#777782;" d="M1870.127,3550.968l-306.379,80.521c0,0-85.12,9.747-143.978,9.747
						c-119.596,0-155.142-185.829-155.142-185.829l95.879-93.71l29.819-29.154l236.849-73.464l74.505-23.109l7.115-2.198
						l24.874,48.908L1870.127,3550.968z" />
					</g>
				</g>
				<g>
					<g>
						<path style="fill:#FFFFFF;" d="M1870.125,3550.963l-306.364,80.537c0,0-85.128,9.748-143.986,9.748
						c-119.587,0-155.152-185.842-155.152-185.842l95.896-93.714l29.812-29.16l36.074-11.194l130.384-40.438l70.392-21.82
						l74.501-23.124l7.113-2.182l24.881,48.912L1870.125,3550.963z" />
					</g>
				</g>
				<g>
					<g>
						<path style="fill:#E5E5E5;" d="M1870.125,3550.963l-306.364,80.537c0,0-85.128,9.748-143.986,9.748
						c-119.587,0-155.152-185.842-155.152-185.842l95.896-93.714l29.812-29.16l36.074-11.194l11.874,12.1
						c48.657,27.97,49.262,142.25,137.837,123.781c64.965-13.545,92.949-118.751-19.327-176.32l70.392-21.82l74.501-23.124
						l7.113-2.182l24.881,48.912L1870.125,3550.963z" />
					</g>
				</g>
				<g>
					<g>
						<path style="fill:#371A45;" d="M1419.76,3655.458c-129.855,0-167.561-189.322-169.101-197.377l-1.438-7.509l133.614-130.602
						l321.745-99.794c7.507-2.324,15.482,1.865,17.808,9.374c2.329,7.509-1.87,15.482-9.376,17.811l-315.188,97.763l-117.571,114.92
						c7.931,33.102,45.825,166.951,139.507,166.951c54.013,0,131.671-8.461,141.363-9.54l305.386-80.26
						c7.607-2.011,15.387,2.539,17.384,10.146c1.997,7.602-2.546,15.384-10.148,17.381l-307.373,80.783l-1.013,0.117
						C1561.85,3646.021,1478.775,3655.458,1419.76,3655.458z" />
					</g>
				</g>
				<g>
					<g>
						<path style="fill:#FFFFFF;" d="M1563.739,3631.481c-30.287,8.162-142.194,39.843-213.513,15.944
						c-89.784-30.086-147.953-185.033-135.669-271.286c18.277-128.324,142.904-140.79,206.27-85.428
						c30.366,26.53,66.751,123.225,64.188,177.983L1563.739,3631.481z" />
					</g>
				</g>
				<g>
					<g>
						<path style="fill:#FFFFFF;" d="M1563.74,3631.493c-30.293,8.161-142.201,39.844-213.528,15.926
						c-51.689-17.315-92.92-76.003-116.215-139.169c-17.201-46.56-24.654-95.528-19.44-132.113
						c18.278-128.315,142.909-140.784,206.274-85.44c13.234,11.59,27.601,36.5,39.39,65.433
						c15.275,37.463,26.241,81.671,24.796,112.559L1563.74,3631.493z" />
					</g>
				</g>
				<g>
					<g>
						<path style="fill:#FFFFFF;" d="M1563.74,3631.493c-26.099,7.028-112.701,31.512-181.818,22.869
						c-11.137-1.361-21.821-3.627-31.711-6.943c-51.689-17.315-92.92-76.003-116.215-139.169
						c-17.201-46.56-24.654-95.528-19.44-132.113c1.02-7.198,2.38-13.999,4.052-20.46
						c27.998-109.045,142.399-117.235,202.222-64.979c13.234,11.59,27.601,36.5,39.39,65.433
						c15.275,37.463,26.241,81.671,24.796,112.559L1563.74,3631.493z" />
					</g>
				</g>
				<g>
					<g>
						<path style="fill:#E5E5E5;" d="M1563.74,3631.493c-30.293,8.161-142.201,39.844-213.528,15.926
						c-51.689-17.315-92.92-76.003-116.215-139.169c7.425,15.02,50.726,93.658,138.461,85.043
						c95.443-9.408,112.701-129.222,84.391-234.895c1.133-0.794,2.266-1.531,3.372-2.267
						c15.275,37.463,26.241,81.671,24.796,112.559L1563.74,3631.493z" />
					</g>
				</g>
				<g>
					<g>
						<path style="fill:#949495;" d="M1381.922,3654.362c-1.389-0.17-2.777-0.369-4.166-0.567c-1.36-0.198-2.749-0.397-4.109-0.624
						c-1.36-0.227-2.692-0.482-4.052-0.737c-1.332-0.255-2.664-0.51-3.996-0.822c-1.331-0.283-2.635-0.567-3.939-0.907
						c-1.303-0.312-2.607-0.652-3.882-0.992c-2.579-0.708-5.101-1.474-7.567-2.295c-51.689-17.315-92.92-76.003-116.215-139.169
						c7.425,15.02,50.726,93.658,138.461,85.043c40.581-3.996,67.02-27.941,81.812-62.259
						C1457.103,3591.508,1438.626,3643.679,1381.922,3654.362z" />
					</g>
				</g>
				<g>
					<g>
						<path style="fill:#AEAEB1;" d="M1381.922,3654.362c-11.137-1.361-21.821-3.627-31.711-6.943
						c-51.689-17.315-92.92-76.003-116.215-139.169c-17.201-46.56-24.654-95.528-19.44-132.113c1.02-7.198,2.38-13.999,4.052-20.46
						c23.01-43.811,65.716-78.525,143.25-37.803C1432.25,3359.078,1519.306,3628.49,1381.922,3654.362z" />
					</g>
				</g>
				<g>
					<g>
						<path style="fill:#949495;" d="M1381.922,3654.362c-1.389-0.17-2.777-0.369-4.166-0.567c-1.36-0.198-2.749-0.397-4.109-0.624
						c-1.36-0.227-2.692-0.482-4.052-0.737c-1.332-0.255-2.664-0.51-3.996-0.822c-1.331-0.283-2.635-0.567-3.939-0.907
						c-1.303-0.312-2.607-0.652-3.882-0.992c-2.579-0.708-5.101-1.474-7.567-2.295c-51.689-17.315-92.92-76.003-116.215-139.169
						c7.425,15.02,50.726,93.658,138.461,85.043c40.581-3.996,67.02-27.941,81.812-62.259
						C1457.103,3591.508,1438.626,3643.679,1381.922,3654.362z" />
					</g>
				</g>
				<g>
					<g>
						<path style="fill:#371A45;" d="M1567.442,3645.222c-71.578,18.519-152.574,38.332-225.868,14.219
						c-32.415-12.228-58.51-37.645-78.154-64.685c-38.043-53.981-60.643-118.048-64.509-184.024
						c-4.042-69.501,31.192-144.657,103.92-161.421c45.816-11.17,96.391,1.738,130.84,33.853
						c34.5,42.227,56.549,131.875,51.346,185.528c-0.87-21.081-6.261-41.433-12.827-61.131
						c-10.074-29.193-23.123-57.521-40.425-82.841c-7.133-10.339-14.365-18.449-23.113-25.576
						c-41.199-33.943-108.665-34.845-146.457,4.587c-19.702,19.964-30.295,48.693-33.839,76.696
						c-8.91,82.761,41.796,219.519,123.238,252.37c66.115,21.104,142.234,2.042,208.442-15.056
						C1560.036,3617.74,1567.442,3645.222,1567.442,3645.222L1567.442,3645.222z" />
					</g>
				</g>
				<g>
					<g>
						<path style="fill:#371A45;" d="M1379.432,3664.246c-12.157,0-26.086-1.963-42.034-6.576l7.912-27.341
						c37.347,10.805,62.801,5.917,77.819-14.949c36.747-51.064,6.376-187.72-43.335-259.617
						c-21.404-31.701-58.095-47.314-91.377-38.985c-34.14,8.544-56.501,40.24-61.346,86.959l-28.313-2.939
						c6.064-58.451,36.998-100.18,82.748-111.634c44.864-11.225,93.804,9.081,121.789,50.542
						c49.355,71.384,91.734,224.489,42.938,292.299C1434.707,3648.017,1414.396,3664.246,1379.432,3664.246z" />
					</g>
				</g>
				<g>
					<g>
						<path style="fill:#371A45;" d="M1537.377,3652.826l-11.586-26.003c56.247-25.061,70.452-114.485,55.26-185.904
						c-12.35-58.065-46.943-120.11-106.991-120.11v-28.464c64.452,0,116.116,54.663,134.833,142.652
						C1626.848,3519.412,1608.046,3621.335,1537.377,3652.826z" />
					</g>
				</g>
				<g>
					<g>

						<rect x="1212.347" y="3347.465" transform="matrix(0.9637 -0.2671 0.2671 0.9637 -850.6166 469.3144)"
							style="fill:#371A45;" width="175.279" height="28.463" />
					</g>
				</g>
				<g>
					<g>

						<rect x="1218.474" y="3428.013" transform="matrix(0.9647 -0.2635 0.2635 0.9647 -860.1306 470.4365)"
							style="fill:#371A45;" width="211" height="28.464" />
					</g>
				</g>
				<g>
					<g>

						<rect x="1248.203" y="3506.937" transform="matrix(0.9605 -0.2784 0.2784 0.9605 -926.8129 515.0083)"
							style="fill:#371A45;" width="203.866" height="28.466" />
					</g>
				</g>
				<g>
					<g>

						<rect x="1302.074" y="3583.948" transform="matrix(0.9565 -0.2918 0.2918 0.9565 -989.894 558.8251)"
							style="fill:#371A45;" width="153.046" height="28.462" />
					</g>
				</g>
			</g>
			<g>
				<g>
					<g>
						<path style="fill:#777782;" d="M2084.721,3550.958l306.387,80.522c0,0,85.098,9.745,143.98,9.745
						c119.58,0,155.122-185.822,155.122-185.822l-125.692-122.856l-318.466-98.781" />
					</g>
				</g>
				<g>
					<g>
						<path style="fill:#777782;" d="M2084.719,3550.968l306.379,80.521c0,0,85.12,9.747,143.978,9.747
						c119.596,0,155.142-185.829,155.142-185.829l-95.879-93.71l-29.819-29.154l-236.849-73.464l-74.505-23.109l-7.115-2.198
						l-24.874,48.908L2084.719,3550.968z" />
					</g>
				</g>
				<g>
					<g>
						<path style="fill:#FFFFFF;" d="M2084.722,3550.963l306.364,80.537c0,0,85.128,9.748,143.986,9.748
						c119.587,0,155.152-185.842,155.152-185.842l-95.896-93.714l-29.812-29.16l-36.074-11.194l-130.384-40.438l-70.392-21.82
						l-74.501-23.124l-7.113-2.182l-24.881,48.912L2084.722,3550.963z" />
					</g>
				</g>
				<g>
					<g>
						<path style="fill:#E5E5E5;" d="M2084.722,3550.963l306.364,80.537c0,0,85.128,9.748,143.986,9.748
						c119.587,0,155.152-185.842,155.152-185.842l-95.896-93.714l-29.812-29.16l-36.074-11.194l-11.874,12.1
						c-48.656,27.97-49.261,142.25-137.837,123.781c-64.965-13.545-92.949-118.751,19.327-176.32l-70.392-21.82l-74.501-23.124
						l-7.113-2.182l-24.881,48.912L2084.722,3550.963z" />
					</g>
				</g>
				<g>
					<g>
						<path style="fill:#371A45;" d="M2535.088,3655.458c-59.018,0-142.09-9.438-145.598-9.838l-1.999-0.376l-306.387-80.524
						c-7.602-1.997-12.145-9.779-10.148-17.381c1.999-7.607,9.787-12.157,17.384-10.146l305.386,80.26
						c9.694,1.079,87.376,9.54,141.363,9.54c93.875,0,131.62-133.844,139.512-166.941l-117.578-114.93l-315.185-97.763
						c-7.509-2.329-11.705-10.302-9.376-17.811c2.326-7.509,10.299-11.698,17.808-9.374l321.742,99.794l133.615,130.602
						l-1.438,7.509C2702.647,3466.136,2664.943,3655.458,2535.088,3655.458z" />
					</g>
				</g>
				<g>
					<g>
						<path style="fill:#FFFFFF;" d="M2391.108,3631.481c30.287,8.162,142.194,39.843,213.513,15.944
						c89.784-30.086,147.953-185.033,135.669-271.286c-18.277-128.324-142.904-140.79-206.27-85.428
						c-30.366,26.53-66.751,123.225-64.188,177.983L2391.108,3631.481z" />
					</g>
				</g>
				<g>
					<g>
						<path style="fill:#FFFFFF;" d="M2391.107,3631.493c30.293,8.161,142.201,39.844,213.529,15.926
						c51.689-17.315,92.92-76.003,116.215-139.169c17.201-46.56,24.654-95.528,19.439-132.113
						c-18.278-128.315-142.909-140.784-206.274-85.44c-13.234,11.59-27.601,36.5-39.39,65.433
						c-15.274,37.463-26.241,81.671-24.796,112.559L2391.107,3631.493z" />
					</g>
				</g>
				<g>
					<g>
						<path style="fill:#FFFFFF;" d="M2391.107,3631.493c26.099,7.028,112.701,31.512,181.817,22.869
						c11.137-1.361,21.821-3.627,31.711-6.943c51.689-17.315,92.92-76.003,116.215-139.169
						c17.201-46.56,24.654-95.528,19.439-132.113c-1.02-7.198-2.38-13.999-4.052-20.46
						c-27.999-109.045-142.399-117.235-202.222-64.979c-13.234,11.59-27.601,36.5-39.39,65.433
						c-15.274,37.463-26.241,81.671-24.796,112.559L2391.107,3631.493z" />
					</g>
				</g>
				<g>
					<g>
						<path style="fill:#E5E5E5;" d="M2391.107,3631.493c30.293,8.161,142.201,39.844,213.529,15.926
						c51.689-17.315,92.92-76.003,116.215-139.169c-7.425,15.02-50.726,93.658-138.461,85.043
						c-95.443-9.408-112.701-129.222-84.391-234.895c-1.133-0.794-2.266-1.531-3.372-2.267
						c-15.274,37.463-26.241,81.671-24.796,112.559L2391.107,3631.493z" />
					</g>
				</g>
				<g>
					<g>
						<path style="fill:#949495;" d="M2572.924,3654.362c1.389-0.17,2.777-0.369,4.167-0.567c1.36-0.198,2.749-0.397,4.109-0.624
						c1.36-0.227,2.692-0.482,4.052-0.737c1.332-0.255,2.664-0.51,3.996-0.822c1.331-0.283,2.635-0.567,3.939-0.907
						c1.303-0.312,2.607-0.652,3.882-0.992c2.579-0.708,5.101-1.474,7.567-2.295c51.689-17.315,92.92-76.003,116.215-139.169
						c-7.425,15.02-50.726,93.658-138.461,85.043c-40.581-3.996-67.02-27.941-81.812-62.259
						C2497.744,3591.508,2516.22,3643.679,2572.924,3654.362z" />
					</g>
				</g>
				<g>
					<g>
						<path style="fill:#AEAEB1;" d="M2572.924,3654.362c11.137-1.361,21.821-3.627,31.711-6.943
						c51.689-17.315,92.92-76.003,116.215-139.169c17.201-46.56,24.654-95.528,19.439-132.113c-1.02-7.198-2.38-13.999-4.052-20.46
						c-23.01-43.811-65.716-78.525-143.25-37.803C2522.596,3359.078,2435.541,3628.49,2572.924,3654.362z" />
					</g>
				</g>
				<g>
					<g>
						<path style="fill:#949495;" d="M2572.924,3654.362c1.389-0.17,2.777-0.369,4.167-0.567c1.36-0.198,2.749-0.397,4.109-0.624
						c1.36-0.227,2.692-0.482,4.052-0.737c1.332-0.255,2.664-0.51,3.996-0.822c1.331-0.283,2.635-0.567,3.939-0.907
						c1.303-0.312,2.607-0.652,3.882-0.992c2.579-0.708,5.101-1.474,7.567-2.295c51.689-17.315,92.92-76.003,116.215-139.169
						c-7.425,15.02-50.726,93.658-138.461,85.043c-40.581-3.996-67.02-27.941-81.812-62.259
						C2497.744,3591.508,2516.22,3643.679,2572.924,3654.362z" />
					</g>
				</g>
				<g>
					<g>
						<path style="fill:#371A45;" d="M2394.812,3617.74c66.159,17.103,142.366,36.153,208.441,15.059
						c26.958-10.392,47.894-31.246,65.145-54.769c38.772-55.485,64.242-129.583,58.096-197.602
						c-3.549-28.002-14.134-56.736-33.844-76.697c-37.793-39.427-105.254-38.532-146.457-4.587
						c-8.744,7.121-15.987,15.235-23.11,25.576c-17.303,25.322-30.35,53.646-40.428,82.841
						c-6.564,19.698-11.954,40.05-12.823,61.132c-5.824-50.094,18.415-152.889,54.976-188.827
						c51.958-45.695,139.165-47.244,188.156,3.927c32.617,33.731,44.897,81.448,42.972,126.939
						c-4.875,82.892-43.353,181.546-111.77,232.101c-69.598,49.282-180.836,22.172-256.76,2.391
						C2387.405,3645.222,2394.812,3617.74,2394.812,3617.74L2394.812,3617.74z" />
					</g>
				</g>
				<g>
					<g>
						<path style="fill:#371A45;"
							d="M2575.416,3664.246c-34.972,0-55.278-16.229-66.8-32.243
						c-48.799-67.811-6.418-220.92,43.028-292.431c27.893-41.324,76.828-61.635,121.697-50.41
						c45.75,11.449,76.684,53.183,82.75,111.634l-28.313,2.939c-4.848-46.719-27.207-78.415-61.346-86.959
						c-33.292-8.334-69.976,7.284-91.287,38.854c-49.802,72.029-80.173,208.68-43.426,259.749
						c15.016,20.862,40.472,25.759,77.817,14.949l7.914,27.341C2601.505,3662.283,2587.571,3664.246,2575.416,3664.246z" />
					</g>
				</g>
				<g>
					<g>
						<path style="fill:#371A45;" d="M2417.471,3652.826c-70.672-31.491-89.471-133.419-71.516-217.829
						c18.716-87.989,70.381-142.652,134.833-142.652v28.464c-60.048,0-94.641,62.045-106.991,120.11
						c-15.191,71.419-0.986,160.843,55.26,185.904L2417.471,3652.826z" />
					</g>
				</g>
				<g>
					<g>

						<rect x="2640.628" y="3274.058" transform="matrix(0.267 -0.9637 0.9637 0.267 -1293.7214 5022.416)"
							style="fill:#371A45;" width="28.463" height="175.276" />
					</g>
				</g>
				<g>
					<g>

						<rect x="2616.641" y="3336.744" transform="matrix(0.2635 -0.9647 0.9647 0.2635 -1382.9227 5073.1909)"
							style="fill:#371A45;" width="28.464" height="211.002" />
					</g>
				</g>
				<g>
					<g>

						<rect x="2590.477" y="3419.236" transform="matrix(0.2784 -0.9605 0.9605 0.2784 -1502.3635 5042.7148)"
							style="fill:#371A45;" width="28.466" height="203.869" />
					</g>
				</g>
				<g>
					<g>

						<rect x="2562.017" y="3521.656" transform="matrix(0.2918 -0.9565 0.9565 0.2918 -1617.0352 5012.5049)"
							style="fill:#371A45;" width="28.462" height="153.046" />
					</g>
				</g>
			</g>
			<g>
				<g>
					<path style="fill:#FFFFFF;" d="M2341.594,3303.96c12.199-203.003-89.737-475.232-89.737-475.232s-81.45-386.803-274.433-386.803
					s-274.433,386.803-274.433,386.803s-101.936,272.229-89.737,475.232l156.346,233.072c0,0,95.183,42.234,207.824,42.234
					c112.642,0,207.824-42.234,207.824-42.234L2341.594,3303.96z" />
				</g>
			</g>
			<g>
				<g>
					<path style="fill:#FFFFFF;" d="M2342.163,3291.624c-0.144,4.137-0.324,8.239-0.576,12.34l-156.323,233.062
					c0,0-95.196,42.238-207.841,42.238c-112.645,0-207.806-42.238-207.806-42.238l-156.358-233.062
					c-0.252-4.102-0.431-8.203-0.575-12.34c-7.556-201.51,90.303-462.886,90.303-462.886s81.453-386.83,274.436-386.83
					s274.436,386.83,274.436,386.83S2349.718,3090.114,2342.163,3291.624z" />
				</g>
			</g>
			<g>
				<g>
					<path style="fill:#FFFFFF;" d="M2342.163,3291.624c-0.144,4.137-0.324,8.239-0.576,12.34l-156.323,233.062
					c0,0-95.196,42.238-207.841,42.238c-112.645,0-207.806-42.238-207.806-42.238l-156.358-233.062
					c-0.252-4.102-0.431-8.203-0.575-12.34c-7.556-201.51,90.303-462.886,90.303-462.886s17.233-81.813,54.614-170.174
					c43.892-103.795,115.595-216.656,219.822-216.656c104.083,0,175.75,112.538,219.642,216.224
					c37.525,88.541,54.794,170.605,54.794,170.605S2349.718,3090.114,2342.163,3291.624z" />
				</g>
			</g>
			<g>
				<g>
					<path style="fill:#E5E5E5;" d="M2197.065,2658.132c-22.45,28.279-52.635,59.651-91.023,86.094
					c-77.855,53.57-179.887,53.57-257.743,0c-38.244-26.3-68.321-57.492-90.699-85.663
					c43.892-103.795,115.595-216.656,219.822-216.656C2081.506,2441.908,2153.173,2554.445,2197.065,2658.132z" />
				</g>
			</g>
			<g>
				<g>
					<path style="fill:#E5E5E5;"
						d="M2342.163,3291.624c-0.144,4.137-0.324,8.239-0.576,12.34l-156.323,233.062
					c0,0-95.196,42.238-207.841,42.238c-112.645,0-207.806-42.238-207.806-42.238l-156.358-233.062
					c-0.252-4.102-0.431-8.203-0.575-12.34c28.171,45.332,149.054,85.231,364.74,85.231S2313.992,3336.955,2342.163,3291.624z" />
				</g>
			</g>
			<g>
				<g>
					<path style="fill:#371A45;"
						d="M2185.248,3537.033c-109.244,65.706-250.178,73.455-367.404,24.484
					c-16.637-7.045-33.066-14.639-48.245-24.484C1923.35,3573.653,2031.57,3573.789,2185.248,3537.033L2185.248,3537.033z" />
				</g>
			</g>
			<g>
				<g>
					<path style="fill:#371A45;" d="M2341.594,3303.961c-17.484-160.004-48.955-319.488-105.232-470.543
					c-30.701-129.552-133.43-436.779-312.562-361.383c-113.115,54.08-176.992,245.917-205.352,361.373
					c-45.346,122.417-75.414,250.94-93.826,380.167c-4.93,29.995-7.461,59.982-11.369,90.386
					c-2.002-10.028-3.557-20.164-5.11-30.356c-2.355-14.497-2.451-31.386-3.445-46.113c-1.301-56.46,6.651-112.779,17.802-167.915
					c16.664-80.399,38.103-158.866,65.391-236.502c27.078-119.341,93.602-322.618,221.004-383.48
					c212.279-89.929,326.874,237.658,358.092,383.467c27.287,77.637,48.729,156.108,65.389,236.507
					C2348.552,3139.547,2358.569,3223.222,2341.594,3303.961L2341.594,3303.961z" />
				</g>
			</g>
			<g>
				<g>
					<path style="fill:#FCAC38;" d="M2456.284,694.523c2.169,5.36,4.251,10.779,6.243,16.176
					C2460.76,705.247,2458.687,699.852,2456.284,694.523z" />
				</g>
			</g>
			<g>
				<g>
					<path style="fill:#FCAC38;" d="M1522.337,1081.672c5.669,12.358,11.867,24.523,18.617,36.488
					c22.098,39.248,49.996,76.112,83.698,109.339c194.377,191.658,507.28,189.497,698.948-4.855
					c110.126-111.658,156.28-262.477,138.698-406.962C2384.443,1089.525,1761.537,1398.618,1522.337,1081.672z" />
				</g>
			</g>
			<g>
				<g>
					<path style="fill:#FCAC38;" d="M1522.337,1081.672c5.669,12.358,11.867,24.523,18.617,36.488
					c22.098,39.248,49.996,76.112,83.698,109.339c194.377,191.658,507.28,189.497,698.948-4.855
					c110.126-111.658,156.28-262.477,138.698-406.962C2384.443,1089.525,1761.537,1398.618,1522.337,1081.672z" />
				</g>
			</g>
			<g>
				<g>
					<path style="fill:#371A45;" d="M1709.449,980.12c58.493,31.404,76.354,127.345,29.813,176.117
					c-7.112,6.698-15.661,11.944-24.84,13.853c28.865-22.766,33.603-59.662,31.841-93.635
					C1743.769,1041.325,1731.804,1008.401,1709.449,980.12L1709.449,980.12z" />
				</g>
			</g>
			<g>
				<g>
					<path style="fill:#FCAC38;" d="M2126.933,570.546c19.66-4.889,34.381-18.434,39.712-34.328c2.478-7.368,2.939-15.25,0.936-23.01
					c-6.335-24.496-34.792-38.543-63.563-31.37c-28.783,7.164-46.983,32.842-40.648,57.338c1.656,6.437,4.853,12.159,9.195,16.962
					c1.155,1.278,2.383,2.497,3.694,3.646C2093.545,571.006,2111.782,572.074,2126.933,570.546z" />
				</g>
			</g>
			<g>
				<g>

					<ellipse transform="matrix(0.9893 -0.1461 0.1461 0.9893 -56.2204 315.1511)" style="fill:#FFD243;"
						cx="2118.149" cy="540.451" rx="43.524" ry="35.118" />
				</g>
			</g>
			<g>
				<g>
					<path style="fill:#371A45;"
						d="M2126.934,570.547c39.895-16.644,50.208-68.832,1.911-80.134
					c-39.257-8.514-81.602,32.111-52.586,69.372c-9.565-5.457-16.893-15.939-18.673-27.979
					c-5.414-39.394,38.759-68.195,74.965-59.996C2194.696,485.036,2188.569,564.434,2126.934,570.547L2126.934,570.547z" />
				</g>
			</g>
			<g>
				<g>
					<path style="fill:#371A45;" d="M2045.287,515.799c-9.205,69.343,79.317,89.616,123.164,48.839
					c15.112-13.23,23.94-32.196,22.666-53.016c20.039,46.216-28.296,92.156-73.45,92.897
					C2069.665,608.585,2020.479,564.112,2045.287,515.799L2045.287,515.799z" />
				</g>
			</g>
			<g>
				<g>
					<path style="fill:#371A45;"
						d="M2283.537,602.927c-78.971,55.259-45.859,167.538,30.762,206.67
					c24.767,13.097,53.746,19.19,83.311,14.838c-27.947,12.339-61.451,10.437-89.586-1.423
					c-58.165-23.365-99.016-90.448-83.189-153.015C2232.189,639.207,2255.063,612.569,2283.537,602.927L2283.537,602.927z" />
				</g>
			</g>
			<g>
				<g>
					<path style="fill:#FFD243;" d="M2406.297,660.872c-26.457-28.256-66.092-36.228-95.248-21.256
					c-4.811,2.448-9.33,5.526-13.453,9.241c-29.227,26.284-27.945,74.269,2.871,107.19c23.155,24.717,56.384,33.919,83.844,25.83
					c9.137-2.694,17.582-7.283,24.856-13.815c9.743-8.761,16.092-19.922,19.095-32.129
					C2432.448,710.699,2421.228,677.032,2406.297,660.872z" />
				</g>
			</g>
			<g>
				<g>
					<path style="fill:#FCAC38;" d="M2428.246,735.942c-2.975,12.207-9.334,23.354-19.08,32.107
					c-6.77,6.052-14.532,10.463-22.909,13.199c1.505-1.094,2.941-2.257,4.343-3.522c8.993-8.104,14.875-18.43,17.644-29.679
					c3.864-23.32-6.497-54.435-20.311-69.378c-24.414-26.089-61.034-33.441-87.979-19.627c-4.445,2.257-8.617,5.095-12.412,8.548
					c-2.838,2.531-5.334,5.3-7.523,8.241c3.385-10.189,9.232-19.49,17.575-26.978c4.137-3.727,8.651-6.804,13.438-9.232
					c29.167-14.977,68.797-7.01,95.262,21.268C2421.237,677.027,2432.452,710.707,2428.246,735.942z" />
				</g>
			</g>
			<g>
				<g>
					<path style="fill:#371A45;" d="M2406.298,660.872c-24.141-20.399-59.399-30.11-88.055-16.426
					c-27.726,12.807-38.546,45.896-29.098,73.987c18.379,62.406,111.395,86.903,139.119,17.5
					c-1.785,16.718-11.581,32.971-26.27,43.217c-47.717,32.371-115.756-2.201-130.977-55.146
					C2245.875,634.261,2352.674,590.898,2406.298,660.872L2406.298,660.872z" />
				</g>
			</g>
			<g>
				<g>
					<path style="fill:#371A45;"
						d="M1758.519,858.579c29.633,97.641,136.366,138.857,224.072,87.815
					c49.597-28.423,82.344-80.958,88.962-137.927c2.676,19.674,0.826,40.15-4.449,59.828
					c-28.658,105.579-160.437,161.449-251.34,94.354C1781.881,937.934,1760.399,898.265,1758.519,858.579L1758.519,858.579z" />
				</g>
			</g>
			<g>
				<g>
					<path style="fill:#FCAC38;" d="M1872.833,722.676c-44.086,22.126-67.749,70.882-59.455,116.214
					c1.341,7.47,3.56,14.841,6.705,21.977c22.222,50.566,81.859,70.672,133.22,44.906c38.568-19.37,61.514-59.102,61.118-99.067
					c-0.135-13.298-2.848-26.543-8.368-39.124c-7.407-16.855-18.958-30.316-32.968-39.832
					C1949.579,713.147,1915.813,704.849,1872.833,722.676z" />
				</g>
			</g>
			<g>
				<g>
					<path style="fill:#FFD243;" d="M1880.51,733.964c-35.663,17.898-54.806,57.34-48.096,94.012
					c1.084,6.043,2.88,12.005,5.424,17.778c17.976,40.905,66.219,57.17,107.769,36.327c31.199-15.67,49.762-47.81,49.441-80.14
					c-0.109-10.757-2.304-21.472-6.769-31.649c-5.992-13.635-15.336-24.524-26.669-32.222
					C1942.593,726.256,1915.279,719.543,1880.51,733.964z" />
				</g>
			</g>
			<g>
				<g>
					<path style="fill:#371A45;" d="M1872.834,722.675c-54.377,33.827-73.179,115.948-23.241,160.841
					c29.875,27.219,76.537,27.853,109.756,5.643c34.409-21.953,54.385-65.544,45.933-106.326
					c-3.942-20.74-15.169-40.396-32.196-55.082c20.098,10.304,35.763,29.67,43.433,52.014
					c20.362,59.299-18.129,126.931-77.683,144.199c-62.888,19.993-130.832-23.114-135.415-89.762
					C1798.861,786.738,1828.812,738.635,1872.834,722.675L1872.834,722.675z" />
				</g>
			</g>
			<g>
				<g>
					<g>
						<path style="fill:#FFD243;" d="M2276.15,1016.818c26.938,5.442,50.413,18.026,67.306,37.925
						c30.611,36.06,30.967,85.719,9.041,135.956c-14.385,32.959-39.069,65.229-72.727,91.902
						c-84.96,67.328-194.929,73.498-245.624,13.781c-18.864-22.221-26.862-50.434-25.092-80.571
						c2.987-50.855,55.711-81.366,109.057-123.642" />
					</g>
				</g>
				<g>
					<g>
						<path style="fill:#371A45;" d="M2343.455,1054.744c34.705,31.825,36.7,86.761,21.479,129.057
						c-33.729,98.155-138.717,170.933-243.099,161.086c-33.855-3.653-68.915-19.849-87.689-48.505
						c24.578,22.738,56.311,32.67,88.724,32.766c95.182-1.07,186.65-65.554,225.356-151.65
						C2365.319,1138.277,2369.282,1091.698,2343.455,1054.744L2343.455,1054.744z" />
					</g>
				</g>
				<g>
					<g>

						<ellipse transform="matrix(0.8558 -0.5174 0.5174 0.8558 -292.0958 1301.7283)" style="fill:#FCAC38;"
							cx="2188.508" cy="1174.717" rx="149.1" ry="108.362" />
					</g>
				</g>
				<g>
					<g>

						<ellipse transform="matrix(0.895 -0.4461 0.4461 0.895 -307.8789 1103.689)" style="fill:#FFD243;"
							cx="2190.189" cy="1205.749" rx="126.392" ry="79.696" />
					</g>
				</g>
				<g>
					<g>
						<path style="fill:#371A45;" d="M2122.117,1296.133c-68.858-6.349-94.44-74.699-71.193-134.318
						c11.345-31.562,32.891-58.816,58.484-80.16c20.329-16.332,43.365-29.22,68.286-37.215
						c59.284-19.676,136.778-3.742,153.998,64.301c10.725,44.609-10.609,90.045-41.011,121.425
						c-9.855,10.307-21.163,18.951-32.834,26.611c4.675-5.27,9.872-9.855,14.093-15.399c28.95-33.855,52.019-82.063,38.212-126.557
						c-16.699-50.948-78.381-58.551-123.963-43.222c-48.822,15.911-92.908,51.516-114.581,98.555
						C2046.682,1222.615,2064.092,1278.386,2122.117,1296.133L2122.117,1296.133z" />
					</g>
				</g>
			</g>
			<g>
				<g>
					<g>
						<path style="fill:#371A45;" d="M1658.412,636.871c-24.889-27.71-22.181-71.042-7.045-103.195
						c36.992-81.681,144.287-136.435,229.683-99.257c16.459,7.967,30.92,20.476,39.179,36.18
						c-23.311-26.391-58.59-35.176-92.3-33.08c-66.413,4.92-130.835,44.357-163.748,102.479
						C1647.789,569.548,1640.994,605.781,1658.412,636.871L1658.412,636.871z" />
					</g>
				</g>
				<g>
					<g>
						<path style="fill:#371A45;" d="M1851.024,464.035c57.227,12.166,67.831,72.824,40.356,118.218
						c-13.06,22.585-32.798,41.329-55.196,54.523c-35.36,20.665-79.348,30.185-118.814,13.808
						c-51.19-22.283-56.42-79.912-26.312-122.151c13.086-18.758,30.687-33.561,50.199-43.872
						c-38.348,29.483-76.64,89.295-40.539,133.325c44.858,45.033,125.025,15.359,163.109-25.446
						C1903.197,552.623,1910.513,488.263,1851.024,464.035L1851.024,464.035z" />
					</g>
				</g>
			</g>
			<g>
				<g>
					<path style="fill:#371A45;" d="M1658.412,636.871c-26.805-26.807-25.09-71.89-10.338-104.818
					c36.215-84.347,147.437-140.743,233.859-99.828c16.561,8.707,30.925,22.033,38.295,38.374
					c-24.695-24.828-58.944-32.041-92.237-29.264c-64.585,6.256-127.144,44.349-160.516,100.289
					C1650.587,570.482,1642.854,605.063,1658.412,636.871L1658.412,636.871z" />
				</g>
			</g>
			<g>
				<g>
					<path style="fill:#FFD243;" d="M1851.025,464.036c15.807,4.833,29.124,13.738,38.073,26.638
					c26.854,38.712,4.204,98.74-50.591,134.075c-54.795,35.336-120.985,32.599-147.839-6.113
					c-26.854-38.712-4.204-98.74,50.591-134.075" />
				</g>
			</g>
			<g>
				<g>
					<path style="fill:#FFD243;" d="M1851.025,464.036c15.807,4.833,29.124,13.738,38.073,26.638
					c26.854,38.712,4.204,98.74-50.591,134.075c-54.795,35.336-120.985,32.599-147.839-6.113
					c-26.854-38.712-4.204-98.74,50.591-134.075L1851.025,464.036z" />
				</g>
			</g>
			<g>
				<g>
					<path style="fill:#FCAC38;" d="M1893.81,498.702c-6.565-4.616-14.019-8.172-22.123-10.668
					c-35.159-8.28-70.278-3.08-109.794,20.55c-51.119,32.962-74.267,87.431-55.256,126.035c-6.223-4.343-11.625-9.677-15.968-15.968
					c-26.842-38.741-4.206-98.749,50.606-134.105c37.908-18.897,64.906-25.166,109.759-20.516
					c15.798,4.855,29.098,13.746,38.057,26.636C1890.904,493.265,1892.477,495.932,1893.81,498.702z" />
				</g>
			</g>
			<g>
				<g>
					<path style="fill:#371A45;" d="M1851.024,464.035c54.623,8.667,70.655,66.761,47.745,112.186
					c-15.244,32.714-43.822,57.724-76.036,73.022c-33.213,14.995-72.662,20.533-107.111,5.505
					c-53.276-23.411-59.137-84.028-26.549-127.534c13.85-18.75,32.088-33.222,52.183-42.654
					c-35.871,30.393-72.484,89.025-37.299,130.595c43.264,41.827,119.829,12.86,156.733-25.539
					C1899.692,551.086,1907.927,490.038,1851.024,464.035L1851.024,464.035z" />
				</g>
			</g>
			<g>
				<g>
					<path style="fill:#FCAC38;" d="M1535.644,991.237c2.939-14.115,9.806-25.768,20.704-33.259
					c32.704-22.479,89.321,1.04,126.458,52.532c37.137,51.492,40.731,111.458,8.027,133.937
					c-32.704,22.479-89.321-1.04-126.458-52.532C1548.809,1070.429,1532.14,1020.564,1535.644,991.237z" />
				</g>
			</g>
			<g>
				<g>

					<ellipse transform="matrix(0.8183 -0.5747 0.5747 0.8183 -302.2684 1130.4349)" style="fill:#FFD243;"
						cx="1637.15" cy="1043.389" rx="52.29" ry="100.308" />
				</g>
			</g>
			<g>
				<g>
					<path style="fill:#371A45;"
						d="M1535.644,991.237c3.815-54.866,64.313-59.179,103.469-36.438
					c47.989,26.46,83.551,77.082,87.887,132.285c3.329,77.835-68.027,98.158-123.143,52.936
					c-16.724-13.276-29.96-29.957-39.483-48.104c21.442,21.213,44.766,39.34,73.498,47.222c23.848,7.232,52.289,1.313,58.897-25.26
					c11.943-51.215-27.586-111.26-69.032-139.892C1595.408,951.067,1551.158,947.312,1535.644,991.237L1535.644,991.237z" />
				</g>
			</g>
			<g>
				<g>
					<g>
						<path style="fill:#FFFFFF;" d="M2172.431,3130.008c0,0,121.469-9.263,172.599,27.551c54.335,39.121-0.407,84.383-0.407,84.383
						s-97.831-21.354-179.986-18.311L2172.431,3130.008z" />
					</g>
				</g>
				<g>
					<g>
						<path style="fill:#D8D8D8;" d="M2344.633,3241.956c0,0-97.859-21.368-179.993-18.315l2.946-35.566
						c57.099-1.741,121.097,7.983,154.298,13.962c17.649,3.178,35.543-5.711,42.877-22.075c0.071-0.158,0.141-0.317,0.21-0.476
						C2381.051,3211.821,2344.633,3241.956,2344.633,3241.956z" />
					</g>
				</g>
				<g>
					<g>
						<path style="fill:#FFFFFF;" d="M1778.329,3130.008c0,0-121.47-9.263-172.599,27.551c-54.335,39.121,0.407,84.383,0.407,84.383
						s97.831-21.354,179.986-18.311L1778.329,3130.008z" />
					</g>
				</g>
				<g>
					<g>
						<path style="fill:#D8D8D8;" d="M1610.801,3241.956c0,0,97.859-21.368,179.993-18.315l-2.946-35.566
						c-57.099-1.741-121.097,7.983-154.297,13.962c-17.65,3.178-35.543-5.711-42.877-22.075c-0.071-0.158-0.141-0.317-0.211-0.476
						C1574.384,3211.821,1610.801,3241.956,1610.801,3241.956z" />
					</g>
				</g>
				<g>
					<g>
						<path style="fill:#371944;" d="M2349.599,3262.446l-9.022-1.968c-0.955-0.205-96.57-20.862-175.236-17.884l-21.389,0.796
						l10.909-131.076l16.126-1.225c13.138-1.006,129.967-8.646,185.13,31.071c25.527,18.382,31.437,38.727,31.901,52.563
						c1.135,34.01-27.98,59.095-31.305,61.844L2349.599,3262.446z M2185.282,3204.371c62.952,0.469,128.363,12.064,153.163,16.937
						c5.512-6.401,11.991-16.209,11.637-25.417c-0.298-7.719-5.727-15.433-16.141-22.932
						c-32.157-23.147-104.328-26.042-143.977-24.836L2185.282,3204.371z" />
					</g>
				</g>
				<g>
					<g>
						<path style="fill:#371944;" d="M1601.162,3262.451l-7.116-5.883c-3.325-2.749-32.441-27.834-31.305-61.844
						c0.464-13.836,6.374-34.181,31.901-52.563c55.16-39.718,171.987-32.077,185.13-31.071l16.126,1.225l10.91,131.076l-21.39-0.796
						c-78.84-2.964-174.279,17.674-175.234,17.884L1601.162,3262.451z M1745.439,3147.893c-40.848,0-100.278,4.663-128.622,25.066
						c-10.453,7.529-15.885,15.277-16.143,23.03c-0.312,9.301,6.24,19.07,11.63,25.32c24.79-4.868,90.216-16.463,153.173-16.937
						l-4.682-56.249C1756.095,3147.98,1750.932,3147.893,1745.439,3147.893z" />
					</g>
				</g>
				<g>
					<g>
						<path style="fill:#FFFFFF;" d="M2180.281,3093.815v172.963c0,32.099-25.286,58.359-56.159,58.359h-306.703
						c-30.909,0-56.159-26.26-56.159-58.359v-172.963c0-32.063,25.25-58.323,56.159-58.323h306.703
						c24.664,0,45.776,16.766,53.261,39.873C2179.246,3081.169,2180.281,3087.367,2180.281,3093.815z" />
					</g>
				</g>
				<g>
					<g>
						<path style="fill:#D8D8D8;" d="M2180.281,3093.815v172.963c0,32.099-25.286,58.359-56.159,58.359h-306.703
						c-30.909,0-56.159-26.26-56.159-58.359v-58.216c52.916,30.415,157.75,76.092,262.962,38.404
						c51.398-18.426,110.328-81.571,110.328-81.571s2.271,66.255,11.735,65.209c26.318-2.908,26.123-136.96,31.099-155.241
						C2179.246,3081.169,2180.281,3087.367,2180.281,3093.815z" />
					</g>
				</g>
				<g>
					<g>
						<path style="fill:#371944;" d="M2108.017,3344.098h-274.516c-50.307,0-91.233-40.928-91.233-91.236V3107.75
						c0-50.307,40.926-91.236,91.233-91.236h274.516c50.307,0,91.233,40.928,91.233,91.236v145.112
						C2199.251,3303.17,2158.325,3344.098,2108.017,3344.098z M1833.502,3054.469c-29.379,0-53.283,23.899-53.283,53.281v145.112
						c0,29.382,23.904,53.281,53.283,53.281h274.516c29.379,0,53.283-23.899,53.283-53.281V3107.75
						c0-29.382-23.904-53.281-53.283-53.281H1833.502z" />
					</g>
				</g>
				<g>
					<g>
						<ellipse style="fill:#22A7F0;" cx="2079.415" cy="3180.307" rx="48.433" ry="50.299" />
					</g>
				</g>
				<g>
					<g>
						<path style="fill:#FFFFFF;" d="M2127.86,3180.322c0,3.427-0.317,6.755-0.952,9.985c-4.474-23.034-24.052-40.368-47.501-40.368
						c-23.449,0-43.027,17.333-47.469,40.368c-0.635-3.229-0.952-6.558-0.952-9.985c0-27.78,21.672-50.32,48.421-50.32
						C2106.156,3130.002,2127.86,3152.542,2127.86,3180.322z" />
					</g>
				</g>
				<g>
					<g>
						<path style="fill:#1C7AEA;" d="M2127.847,3180.297c0,27.8-21.698,50.298-48.432,50.298s-48.432-22.498-48.432-50.298
						c0-4.657,0.621-9.207,1.759-13.47c5.691,21.208,24.457,36.792,46.673,36.792c22.215,0,40.981-15.584,46.673-36.792
						C2127.226,3171.09,2127.847,3175.64,2127.847,3180.297z" />
					</g>
				</g>
				<g>
					<g>
						<path style="fill:#371944;" d="M2079.414,3244.841c-34.555,0-62.665-28.952-62.665-64.534s28.11-64.53,62.665-64.53
						c34.554,0,62.667,28.947,62.667,64.53S2113.969,3244.841,2079.414,3244.841z M2079.414,3144.24
						c-18.858,0-34.201,16.18-34.201,36.066c0,19.891,15.343,36.071,34.201,36.071c18.86,0,34.203-16.18,34.203-36.071
						C2113.617,3160.42,2098.275,3144.24,2079.414,3144.24z" />
					</g>
				</g>
				<g>
					<g>
						<path style="fill:#371944;" d="M1926.122,3344.098c-10.48,0-18.975-8.495-18.975-18.978v-88.526
						c0-16.004-7.287-31.252-19.49-40.792l-7.787-6.088c-21.328-16.678-34.062-43.101-34.062-70.686v-83.537
						c0-10.482,8.495-18.978,18.975-18.978s18.975,8.495,18.975,18.978v83.537c0,15.999,7.287,31.247,19.488,40.787l7.787,6.088
						c21.331,16.678,34.064,43.101,34.064,70.691v88.526C1945.097,3335.603,1936.602,3344.098,1926.122,3344.098z" />
					</g>
				</g>
			</g>
			<g>
				<g>
					<g>
						<path style="fill:#371A45;" d="M2261.078,742.126c13.53-90.004,34.011-182.549,54.577-271.362
						c21.467-88.652,44.662-180.43,73.032-266.987c-13.487,90.014-33.977,182.554-54.577,271.361
						C2312.607,563.78,2289.403,655.56,2261.078,742.126L2261.078,742.126z" />
					</g>
				</g>
				<g>
					<g>
						<path style="fill:#371A45;" d="M2236.483,1446.701c14.847-89.582,36.669-181.588,58.529-269.872
						c22.755-88.111,47.287-179.31,76.913-265.222c-14.801,89.593-36.634,181.598-58.529,269.875
						C2290.609,1269.579,2266.066,1360.782,2236.483,1446.701L2236.483,1446.701z" />
					</g>
				</g>
				<g>
					<g>
						<path style="fill:#371A45;" d="M2482.452,1148.835c13.606-84.683,34.135-171.583,54.755-254.967
						c21.515-83.208,44.756-169.305,73.139-250.314c-13.558,84.697-34.101,171.589-54.755,254.967
						C2534.044,981.718,2510.792,1067.817,2482.452,1148.835L2482.452,1148.835z" />
					</g>
				</g>
			</g>
			<g>
				<g>
					<g>
						<path style="fill:#371A45;" d="M1693.316,742.126c-28.306-86.502-51.546-178.392-73.03-266.987
						c-20.611-88.855-41.078-181.281-54.579-271.362c28.352,86.492,51.58,178.381,73.032,266.987
						C1659.312,559.625,1679.773,652.057,1693.316,742.126L1693.316,742.126z" />
					</g>
				</g>
				<g>
					<g>
						<path style="fill:#371A45;" d="M1717.911,1446.701c-29.563-85.854-54.141-177.168-76.914-265.22
						c-21.9-88.326-43.718-180.215-58.527-269.875c29.606,85.848,54.172,177.158,76.911,265.222
						C1681.25,1265.161,1703.052,1357.052,1717.911,1446.701L1717.911,1446.701z" />
					</g>
				</g>
				<g>
					<g>
						<path style="fill:#371A45;" d="M1471.942,1148.835c-28.322-80.958-51.607-167.161-73.14-250.314
						c-20.662-83.423-41.181-170.209-54.755-254.967c28.368,80.948,51.638,167.15,73.14,250.314
						C1437.815,977.298,1458.322,1064.09,1471.942,1148.835L1471.942,1148.835z" />
					</g>
				</g>
			</g>
			<g>
				<g>
					<path style="fill:#371A45;" d="M1977.198,1420.612c-292.841,0-531.084-238.242-531.084-531.081s238.242-531.081,531.084-531.081
					c292.839,0,531.081,238.242,531.081,531.081S2270.037,1420.612,1977.198,1420.612z M1977.198,386.914
					c-277.145,0-502.62,225.473-502.62,502.617s225.475,502.617,502.62,502.617s502.617-225.473,502.617-502.617
					S2254.343,386.914,1977.198,386.914z" />
				</g>
			</g>
			<g>
				<g>
					<g>
						<g>
							<path style="fill:#FFFFFF;" d="M2548.217,1949.952c0,0,132.123,50.09,145.701,74.549
							c25.173,45.345,20.499,311.87-49.136,381.357c-27.267,27.208-227.608,52.633-227.608,52.633L2548.217,1949.952z" />
						</g>
					</g>
					<g>
						<g>
							<path style="fill:#E5E5E5;" d="M2417.174,2458.499c0,0,200.341-25.437,227.593-52.653
							c27.179-27.107,44.488-84.295,53.923-146.6c-2.214,1.996-72.973,63.067-214.13-61.071c-0.072-0.073-0.181-0.145-0.254-0.218
							L2417.174,2458.499z" />
						</g>
					</g>
					<g>
						<g>
							<path style="fill:#FFFFFF;"
								d="M1537.658,2458.499c0,0-200.341-25.437-227.593-52.653
							c-27.179-27.107-44.488-84.295-53.923-146.6c-0.036-0.036-0.036-0.036-0.036-0.036
							c-14.769-97.249-10.523-207.054,4.826-234.705c13.571-24.457,145.692-74.57,145.692-74.57l63.902,248.022L1537.658,2458.499z" />
						</g>
					</g>
					<g>
						<g>
							<path style="fill:#E5E5E5;" d="M1537.658,2458.499c0,0-200.341-25.437-227.593-52.653
							c-27.179-27.107-44.488-84.295-53.923-146.6c2.214,1.996,72.973,63.067,214.13-61.071c0.072-0.073,0.181-0.145,0.254-0.218
							L1537.658,2458.499z" />
						</g>
					</g>
					<g>
						<g>
							<path style="fill:#371A45;" d="M2398.156,2475.251l140.244-544.242l14.862,5.634c32.135,12.186,138.155,54.028,153.097,80.949
							c27.878,50.22,24.338,322.638-51.525,398.339c-29.226,29.167-201.61,52.329-235.87,56.679L2398.156,2475.251z
							 M2558.003,1969.004l-121.782,472.603c90.337-12.489,184.669-32.013,198.508-45.821
							c64.374-64.241,69.319-323.717,46.746-364.377C2674.779,2020.234,2614.948,1991.511,2558.003,1969.004z" />
						</g>
					</g>
					<g>
						<g>
							<path style="fill:#371A45;" d="M1556.689,2475.251l-20.808-2.641c-34.259-4.35-206.641-27.512-235.867-56.679
							c-75.864-75.705-79.406-348.119-51.528-398.339c14.947-26.921,120.964-68.762,153.1-80.949l14.862-5.634L1556.689,2475.251z
							 M1396.844,1969.004c-56.947,22.508-116.778,51.235-123.484,62.425c-22.561,40.64-17.615,300.116,46.758,364.357
							c13.839,13.807,108.17,33.332,198.505,45.821L1396.844,1969.004z" />
						</g>
					</g>
				</g>
				<g>
					<g>
						<circle style="fill:#FFFFFF;" cx="1977.37" cy="2103.782" r="612.58" />
					</g>
				</g>
				<g>
					<g>
						<path style="fill:#E5E5E5;" d="M2584.364,2186.756c-40.511,299.081-296.814,529.624-606.976,529.624
						c-310.198,0-566.501-230.544-607.012-529.624c150.638,163.913,366.827,266.629,607.012,266.629
						C2217.537,2453.385,2433.725,2350.669,2584.364,2186.756z" />
					</g>
				</g>
				<g>
					<g>
						<path style="fill:#371A45;" d="M1977.359,2730.581c-285.599,0-534.894-192.656-606.608-468.619
						c-0.117-0.337-0.22-0.684-0.312-1.035c-13.194-50.923-19.883-103.793-19.883-157.147c0-23.64,1.331-47.261,3.957-70.203
						c35.294-317.294,303.062-556.599,622.847-556.599c319.877,0,587.67,239.378,622.908,556.813
						c2.583,23.005,3.894,46.558,3.894,69.988c0,53.281-6.669,106.146-19.822,157.133c-0.093,0.356-0.198,0.708-0.315,1.055
						C2512.251,2537.925,2262.931,2730.581,1977.359,2730.581z M1398.087,2253.984c68.172,263.855,306.358,448.133,579.272,448.133
						c272.89,0,511.098-184.273,579.328-448.128c0.098-0.391,0.21-0.776,0.339-1.157c12.389-48.364,18.67-98.51,18.67-149.052
						c0-22.375-1.252-44.859-3.72-66.829c-33.634-303.016-289.265-531.509-594.617-531.509
						c-305.262,0-560.868,228.419-594.564,531.323c-2.507,21.922-3.777,44.453-3.777,67.015c0,50.61,6.301,100.747,18.724,149.043
						C1397.875,2253.203,1397.989,2253.589,1398.087,2253.984z" />
					</g>
				</g>
				<g>
					<g>
						<path style="fill:#371A45;" d="M1977.357,2730.586c-285.747,0-535.158-192.832-606.728-469.029
						c-0.063-0.205-0.122-0.41-0.176-0.615c-13.199-50.84-19.893-103.71-19.893-157.152c0-23.748,1.333-47.378,3.962-70.237
						c4.724-42.344,13.817-84.332,27.024-124.748c84.393-258.279,323.829-431.814,595.811-431.814
						c271.943,0,511.391,173.496,595.84,431.721c13.231,40.489,22.337,82.57,27.063,125.08c2.585,22.962,3.896,46.519,3.896,69.998
						c0,53.344-6.672,106.215-19.83,157.132c-0.095,0.366-0.203,0.728-0.324,1.079
						C2512.244,2537.95,2262.936,2730.586,1977.357,2730.586z M1398.104,2254.116c68.218,263.796,306.377,448.006,579.253,448.006
						c272.897,0,511.103-184.283,579.316-448.133c0.1-0.396,0.215-0.786,0.346-1.172c12.389-48.291,18.673-98.427,18.673-149.028
						c0-22.42-1.252-44.903-3.72-66.834c-4.514-40.596-13.204-80.763-25.83-119.402
						c-80.609-246.486-309.187-412.099-568.785-412.099c-259.632,0-488.197,165.647-568.753,412.192
						c-12.606,38.57-21.284,78.644-25.798,119.109c-2.51,21.834-3.781,44.37-3.781,67.034c0,50.81,6.332,101.069,18.821,149.384
						C1397.943,2253.486,1398.028,2253.799,1398.104,2254.116z" />
					</g>
				</g>
				<g>
					<g>
						<path style="fill:#371845;" d="M1977.357,1545.941c412.624,0,592.925,433.682,612.566,557.841
						c0.256,338.021-370.649,438.753-612.566,438.753s-612.821-100.732-612.566-438.753
						C1384.432,1979.623,1564.733,1545.941,1977.357,1545.941z" />
					</g>
				</g>
				<g style="opacity:0.7;">
					<g>
						<path style="fill:#FFFFFF;" d="M1977.359,1661.354c-286.632,0-517.341,254.204-425.553,139.417
						c52.385-65.508,111.685-117.26,176.251-153.818c76.217-43.154,160.093-65.034,249.302-65.034
						c89.209,0,173.085,21.88,249.302,65.034c64.566,36.557,123.866,88.31,176.251,153.818
						C2494.697,1915.554,2263.99,1661.354,1977.359,1661.354z" />
					</g>
				</g>
				<g>
					<g>
						<path style="fill:#371945;" d="M2500.5,2351.101c-124.95,142.866-355.169,191.436-523.149,191.436
						c-168.015,0-398.235-48.57-523.113-191.472c120.597-134.916,292.173-245.69,523.113-245.69
						C2208.327,2105.375,2379.903,2216.185,2500.5,2351.101z" />
					</g>
					<g>
						<path style="fill:#371A45;" d="M1977.352,2561.517c-176.166,0-409.853-52.007-537.401-197.963
						c-6.303-7.216-6.244-17.996,0.139-25.134c147.375-164.871,333.157-252.02,537.262-252.02
						c204.108,0,389.902,87.159,537.296,252.054c6.384,7.143,6.442,17.923,0.134,25.139
						C2387.156,2509.52,2153.481,2561.517,1977.352,2561.517z M1479.929,2351.04c121.518,126.901,334.805,172.521,497.422,172.521
						c162.588,0,375.865-45.611,497.452-172.492c-139.695-150.453-306.978-226.715-497.452-226.715
						C1786.88,2124.354,1619.605,2200.611,1479.929,2351.04z" />
					</g>
				</g>
				<g style="opacity:0.35;">
					<g>
						<path style="fill:#111A28;" d="M2500.5,2351.101c-124.95,142.866-355.169,191.436-523.149,191.436
						c-168.015,0-398.235-48.57-523.113-191.472c120.597-134.916,292.173-245.69,523.113-245.69
						C2208.327,2105.375,2379.903,2216.185,2500.5,2351.101z" />
					</g>
				</g>
				<g>
					<defs>
						<path id="SVGID_1_" d="M1977.357,1545.941c412.624,0,592.925,433.682,612.566,557.841
						c0.256,338.021-370.649,438.753-612.566,438.753s-612.821-100.732-612.566-438.753
						C1384.432,1979.623,1564.733,1545.941,1977.357,1545.941z" />
					</defs>
					<clipPath id="SVGID_00000067226645332911155180000017896482800296083902_">
						<use xlink:href="#SVGID_1_" style="overflow:visible;" />
					</clipPath>
					<g style="opacity:0.25;clip-path:url(#SVGID_00000067226645332911155180000017896482800296083902_);">
						<g>
							<g>
								<circle style="fill:#FFD243;" cx="1977.197" cy="1500.414" r="516.129" />
							</g>
						</g>
						<g>
							<g>
								<path style="fill:#FCAC38;" d="M1498.778,1695.15c-2.166-5.352-4.245-10.764-6.234-16.154
								C1494.309,1684.44,1496.379,1689.828,1498.778,1695.15z" />
							</g>
						</g>
						<g>
							<g>
								<path style="fill:#FCAC38;" d="M2431.423,1308.541c-5.661-12.341-11.85-24.489-18.592-36.437
								c-22.067-39.193-49.926-76.006-83.581-109.187c-194.105-191.391-506.573-189.233-697.972,4.849
								c-109.972,111.503-156.062,262.111-138.505,406.394C1570.519,1300.698,2192.556,992.036,2431.423,1308.541z" />
							</g>
						</g>
						<g>
							<g>
								<path style="fill:#FCAC38;" d="M2431.423,1308.541c-5.661-12.341-11.85-24.489-18.592-36.437
								c-22.067-39.193-49.926-76.006-83.581-109.187c-194.105-191.391-506.573-189.233-697.972,4.849
								c-109.972,111.503-156.062,262.111-138.505,406.394C1570.519,1300.698,2192.556,992.036,2431.423,1308.541z" />
							</g>
						</g>
						<g>
							<g>
								<path style="fill:#371A45;" d="M2244.571,1409.949c-58.428-31.348-76.263-127.176-29.776-175.876
								c7.105-6.686,15.644-11.925,24.811-13.827c-28.818,22.739-33.544,59.58-31.782,93.501
								C2210.311,1348.828,2222.255,1381.701,2244.571,1409.949L2244.571,1409.949z" />
							</g>
						</g>
						<g>
							<g>
								<path style="fill:#FCAC38;" d="M1827.67,1818.953c-19.633,4.882-34.333,18.408-39.657,34.28
								c-2.475,7.358-2.935,15.228-0.934,22.977c6.326,24.462,34.743,38.489,63.475,31.327
								c28.743-7.154,46.917-32.796,40.591-57.258c-1.654-6.428-4.846-12.142-9.182-16.939c-1.153-1.276-2.38-2.494-3.688-3.641
								C1861.011,1818.494,1842.8,1817.427,1827.67,1818.953z" />
							</g>
						</g>
						<g>
							<g>

								<ellipse transform="matrix(0.9893 -0.146 0.146 0.9893 -250.3484 288.0293)" style="fill:#FFD243;"
									cx="1836.442" cy="1849.006" rx="43.463" ry="35.069" />
							</g>
						</g>
						<g>
							<g>
								<path style="fill:#371A45;"
									d="M1827.67,1818.953c-39.825,16.625-50.126,68.723-1.906,80.01
								c39.197,8.499,81.468-32.056,52.511-69.264c9.553,5.447,16.874,15.914,18.653,27.942
								c5.411,39.343-38.707,68.114-74.87,59.925C1759.992,1904.357,1766.104,1825.043,1827.67,1818.953L1827.67,1818.953z" />
							</g>
						</g>
						<g>
							<g>
								<path style="fill:#371A45;" d="M1909.202,1873.625c6.937-42.771-31.057-72.746-71.234-69.67
								c-38.524,1.447-77.419,32.468-74.391,73.84c-20.028-46.152,28.249-92.043,73.344-92.781
								C1884.862,1780.951,1933.989,1825.376,1909.202,1873.625L1909.202,1873.625z" />
							</g>
						</g>
						<g>
							<g>
								<path style="fill:#371A45;"
									d="M1671.287,1786.617c78.843-55.192,45.78-167.292-30.725-206.373
								c-24.73-13.08-53.666-19.166-83.189-14.826c27.906-12.329,61.366-10.433,89.464,1.411
								c58.092,23.332,98.891,90.33,83.077,152.815C1722.568,1750.393,1699.721,1776.992,1671.287,1786.617L1671.287,1786.617z" />
							</g>
						</g>
						<g>
							<g>
								<path style="fill:#FFD243;" d="M1548.696,1728.753c26.42,28.217,66,36.177,95.115,21.226
								c4.804-2.444,9.317-5.518,13.434-9.229c29.187-26.247,27.906-74.165-2.867-107.041
								c-23.123-24.682-56.305-33.872-83.727-25.793c-9.124,2.69-17.557,7.272-24.821,13.796
								c-9.729,8.749-16.069,19.894-19.069,32.084C1522.581,1678.996,1533.785,1712.616,1548.696,1728.753z" />
							</g>
						</g>
						<g>
							<g>
								<path style="fill:#FCAC38;" d="M1526.777,1653.788c2.971-12.19,9.322-23.321,19.053-32.062
								c6.761-6.044,14.512-10.448,22.877-13.18c-1.503,1.093-2.937,2.254-4.337,3.517c-8.98,8.092-14.854,18.404-17.619,29.638
								c-3.858,23.287,6.488,54.359,20.283,69.281c24.379,26.053,60.949,33.394,87.856,19.599c4.439-2.254,8.605-5.088,12.394-8.536
								c2.834-2.527,5.327-5.293,7.512-8.229c-3.38,10.175-9.219,19.463-17.551,26.941c-4.131,3.722-8.639,6.795-13.419,9.219
								c-29.126,14.956-68.701,7-95.129-21.239C1533.777,1712.621,1522.577,1678.988,1526.777,1653.788z" />
							</g>
						</g>
						<g>
							<g>
								<path style="fill:#371A45;" d="M1548.697,1728.752c24.105,20.365,59.316,30.061,87.926,16.395
								c27.685-12.788,38.482-45.825,29.049-73.872c-18.357-62.312-111.217-86.77-138.911-17.478
								c1.78-16.696,11.562-32.93,26.231-43.161c47.655-32.338,115.606,2.192,130.811,55.07
								C1708.906,1755.334,1602.245,1798.647,1548.697,1728.752L1548.697,1728.752z" />
							</g>
						</g>
						<g>
							<g>
								<path style="fill:#371A45;"
									d="M2195.569,1531.321c-29.603-97.492-136.172-138.642-223.75-87.678
								c-49.528,28.38-82.228,80.831-88.847,137.72c-2.676-19.644-0.83-40.094,4.438-59.748
								c28.61-105.445,160.223-161.24,251.003-94.23C2172.249,1452.071,2193.699,1491.691,2195.569,1531.321L2195.569,1531.321z" />
							</g>
						</g>
						<g>
							<g>
								<path style="fill:#FCAC38;" d="M2081.416,1667.036c44.024-22.095,67.655-70.783,59.372-116.052
								c-1.339-7.459-3.555-14.82-6.696-21.946c-22.191-50.496-81.744-70.573-133.035-44.844
								c-38.514,19.343-61.428,59.019-61.033,98.929c0.134,13.279,2.844,26.506,8.356,39.069
								c7.397,16.832,18.931,30.273,32.922,39.776C2004.777,1676.552,2038.495,1684.838,2081.416,1667.036z" />
							</g>
						</g>
						<g>
							<g>
								<path style="fill:#FFD243;" d="M2073.75,1655.763c35.613-17.873,54.729-57.26,48.029-93.88
								c-1.083-6.034-2.876-11.989-5.417-17.753c-17.951-40.848-66.127-57.09-107.618-36.276
								c-31.156,15.648-49.692,47.744-49.372,80.028c0.109,10.742,2.301,21.442,6.76,31.605
								c5.984,13.616,15.314,24.49,26.632,32.177C2011.752,1663.461,2039.029,1670.164,2073.75,1655.763z" />
							</g>
						</g>
						<g>
							<g>
								<path style="fill:#371A45;" d="M2081.416,1667.035c54.29-33.782,73.06-115.779,23.197-160.604
								c-29.827-27.175-76.418-27.805-109.583-5.633c-34.359,21.919-54.304,65.441-45.872,106.163
								c3.935,20.708,15.142,40.34,32.145,55.009c-20.071-10.289-35.719-29.626-43.379-51.94
								c-20.345-59.222,18.101-126.771,77.578-144.016c62.809-19.969,130.668,23.09,135.241,89.652
								C2155.296,1603.063,2125.379,1651.105,2081.416,1667.035L2081.416,1667.035z" />
							</g>
						</g>
						<g>
							<g>
								<g>
									<path style="fill:#FFD243;" d="M1678.661,1373.304c-26.901-5.435-50.343-18-67.212-37.872
									c-30.568-36.009-30.923-85.599-9.028-135.766c14.365-32.913,39.014-65.138,72.625-91.774
									c84.841-67.235,194.657-73.396,245.281-13.762c18.837,22.19,26.824,50.363,25.057,80.459
									c-2.983,50.784-55.633,81.253-108.905,123.469" />
								</g>
							</g>
							<g>
								<g>
									<path style="fill:#371A45;" d="M1611.449,1335.433c-34.662-31.782-36.657-86.641-21.459-128.883
									c33.678-98.026,138.529-170.707,242.771-160.866c33.809,3.651,68.822,19.827,87.565,48.447
									c-24.546-22.703-56.235-32.611-88.599-32.709c-95.043,1.083-186.374,65.465-225.029,151.436
									C1589.625,1252.019,1585.666,1298.526,1611.449,1335.433L1611.449,1335.433z" />
								</g>
							</g>
							<g>
								<g>

									<ellipse transform="matrix(0.8558 -0.5174 0.5174 0.8558 -374.1784 1089.1267)" style="fill:#FCAC38;"
										cx="1766.181" cy="1215.625" rx="148.892" ry="108.211" />
								</g>
							</g>
							<g>
								<g>

									<ellipse transform="matrix(0.895 -0.4461 0.4461 0.895 -343.1659 911.5693)" style="fill:#FFD243;"
										cx="1764.502" cy="1184.636" rx="126.216" ry="79.585" />
								</g>
							</g>
							<g>
								<g>
									<path style="fill:#371A45;" d="M1832.479,1094.378c68.767,6.332,94.324,74.595,71.107,134.137
									c-11.329,31.522-32.843,58.743-58.406,80.055c-20.298,16.318-43.309,29.182-68.196,37.169
									c-59.213,19.652-136.604,3.736-153.802-64.225c-10.711-44.548,10.595-89.932,40.965-121.261
									c9.843-10.294,21.136-18.924,32.792-26.572c-4.67,5.266-9.86,9.84-14.073,15.379c-28.9,33.813-51.934,81.944-38.144,126.374
									c16.676,50.867,78.259,58.45,123.767,43.146c48.75-15.885,92.77-51.437,114.413-98.404
									C1907.798,1167.792,1890.416,1112.108,1832.479,1094.378L1832.479,1094.378z" />
								</g>
							</g>
						</g>
						<g>
							<g>
								<g>
									<path style="fill:#371A45;" d="M2295.537,1752.719c24.861,27.669,22.159,70.945,7.045,103.056
									c-36.936,81.575-144.094,136.26-229.375,99.12c-16.437-7.957-30.876-20.451-39.12-36.133
									c23.281,26.349,58.509,35.118,92.171,33.024c66.313-4.919,130.642-44.298,163.509-102.332
									C2306.138,1819.948,2312.927,1783.77,2295.537,1752.719L2295.537,1752.719z" />
								</g>
							</g>
							<g>
								<g>
									<path style="fill:#371A45;" d="M2103.194,1925.314c-57.155-12.137-67.743-72.724-40.31-118.057
									c13.045-22.554,32.753-41.276,55.123-54.453c35.312-20.64,79.248-30.147,118.657-13.791
									c51.129,22.262,56.35,79.808,26.278,121.997c-13.071,18.731-30.648,33.512-50.135,43.807
									c38.288-29.444,76.522-89.165,40.475-133.129c-44.792-44.963-124.834-15.33-162.865,25.41
									C2051.106,1836.85,2043.796,1901.119,2103.194,1925.314L2103.194,1925.314z" />
								</g>
							</g>
						</g>
						<g>
							<g>
								<path style="fill:#371A45;" d="M2295.537,1752.719c26.777,26.769,25.065,71.794,10.338,104.682
								c-36.164,84.24-147.244,140.559-233.552,99.691c-16.539-8.699-30.881-22.009-38.236-38.33
								c24.663,24.785,58.865,31.985,92.105,29.206c64.491-6.253,126.952-44.285,160.282-100.14
								C2303.339,1819.011,2311.067,1784.486,2295.537,1752.719L2295.537,1752.719z" />
							</g>
						</g>
						<g>
							<g>
								<path style="fill:#FFD243;" d="M2103.193,1925.315c-15.785-4.826-29.083-13.719-38.019-26.601
								c-26.817-38.658-4.198-98.602,50.52-133.888c54.719-35.286,120.816-32.553,147.633,6.105
								c26.817,38.658,4.198,98.602-50.52,133.888" />
							</g>
						</g>
						<g>
							<g>
								<path style="fill:#FFD243;" d="M2103.193,1925.315c-15.785-4.826-29.083-13.719-38.019-26.601
								c-26.817-38.658-4.198-98.602,50.52-133.888c54.719-35.286,120.816-32.553,147.633,6.105
								c26.817,38.658,4.198,98.602-50.52,133.888L2103.193,1925.315z" />
							</g>
						</g>
						<g>
							<g>
								<path style="fill:#FCAC38;" d="M2060.468,1890.697c6.556,4.61,13.999,8.161,22.092,10.653
								c35.11,8.269,70.18,3.076,109.64-20.521c51.047-32.916,74.163-87.309,55.179-125.859c6.214,4.336,11.609,9.663,15.946,15.946
								c26.804,38.686,4.2,98.611-50.535,133.918c-37.855,18.871-64.816,25.131-109.606,20.487
								c-15.776-4.849-29.058-13.727-38.004-26.599C2063.37,1896.126,2061.799,1893.463,2060.468,1890.697z" />
							</g>
						</g>
						<g>
							<g>
								<path style="fill:#371A45;" d="M2103.194,1925.314c-54.558-8.644-70.567-66.668-47.694-112.035
								c15.225-32.672,43.765-57.651,75.938-72.932c33.171-14.978,72.572-20.506,106.977-5.495
								c53.209,23.38,59.062,83.928,26.512,127.377c-13.835,18.724-32.049,33.175-52.12,42.589
								c35.816-30.35,72.361-88.896,37.236-130.403c-43.208-41.75-119.634-12.832-156.489,25.505
								C2054.61,1838.389,2046.38,1899.347,2103.194,1925.314L2103.194,1925.314z" />
							</g>
						</g>
						<g>
							<g>
								<path style="fill:#FCAC38;" d="M2418.135,1398.849c-2.935,14.096-9.792,25.733-20.675,33.213
								c-32.658,22.448-89.197-1.039-126.282-52.459c-37.085-51.42-40.674-111.302-8.016-133.75s89.197,1.039,126.282,52.459
								C2404.988,1319.768,2421.634,1369.563,2418.135,1398.849z" />
							</g>
						</g>
						<g>
							<g>

								<ellipse transform="matrix(0.8184 -0.5747 0.5747 0.8184 -353.1747 1576.1345)" style="fill:#FFD243;"
									cx="2316.77" cy="1346.77" rx="52.217" ry="100.168" />
							</g>
						</g>
						<g>
							<g>
								<path style="fill:#371A45;" d="M2418.135,1398.849c-3.799,54.795-64.228,59.113-103.332,36.399
								c-47.932-26.418-83.446-76.981-87.778-132.111c-3.323-77.74,67.951-98.046,122.996-52.87
								c16.7,13.259,29.916,29.92,39.422,48.046c-21.416-21.182-44.708-39.275-73.398-47.146
								c-23.812-7.213-52.194-1.31-58.795,25.218c-11.918,51.135,27.547,111.089,68.927,139.68
								C2358.458,1438.951,2402.633,1442.705,2418.135,1398.849L2418.135,1398.849z" />
							</g>
						</g>
						<g>
							<g>
								<path style="fill:#371A45;" d="M1977.198,2030.775c-292.443,0-530.361-237.918-530.361-530.361
								s237.918-530.361,530.361-530.361c292.441,0,530.359,237.918,530.359,530.361S2269.639,2030.775,1977.198,2030.775z
								 M1977.198,998.516c-276.747,0-501.897,225.15-501.897,501.897s225.15,501.897,501.897,501.897
								c276.744,0,501.895-225.15,501.895-501.897S2253.942,998.516,1977.198,998.516z" />
							</g>
						</g>
					</g>
				</g>
			</g>
			<g>
				<g>
					<g>
						<path style="fill:#FFFFFF;" d="M1817.717,2715.999c-64.16-61.162-218.263-279.425-276.001-409.843
						c4.497-32.761,9.168-131.318-46.416-129.192c-31.812,1.922-37.209,42.546-38.264,51.018
						c-11.537,34.852-42.867-26.469-55.759-43.25c-21.511-33.729-69.406-31.255-79.469,16.781
						c-36.727-8.992-54.997,13.351-56.046,49.103c-17.427,0.899-32.464,18.652-33.279,37.102
						c-2.099,47.52,37.776,117.376,83.948,152.155c148.107,360.974,351.38,570.724,351.38,570.724L1817.717,2715.999z" />
					</g>
				</g>
				<g>
					<g>
						<path style="fill:#E5E5E5;" d="M1661.266,2959.995c-58.852-68.971-201.564-251.68-313.257-519.094
						c29.436,3.534,47.128-5.498,47.128-5.498C1359.906,2499.076,1598.257,2868.744,1661.266,2959.995z" />
					</g>
				</g>
				<g>
					<g>
						<path style="fill:#E5E5E5;" d="M1315.384,2308.396c-9.565,15.233-23.09,53.067,8.77,40.699
						c27.642-10.73,30.581-51.043,122.998-75.809c-43.154-5.365-28.409-28.775-54.829-24.266
						C1365.902,2253.53,1332.163,2281.672,1315.384,2308.396z" />
					</g>
				</g>
				<g>
					<g>
						<path style="fill:#E5E5E5;" d="M1311.974,2401.131c-6.611,0.172,39.837,25.39,114.266-3.242
						c65.667-25.262,89.269-98.264,90.169-131.543C1517.19,2237.404,1499.918,2396.24,1311.974,2401.131z" />
					</g>
				</g>
				<g>
					<g>
						<path style="fill:#371A45;"
							d="M1667.811,3024.829c-3.718,0-7.428-1.445-10.221-4.326
						c-2.043-2.114-205.541-214.48-352.872-571.69c-49.343-38.956-88.646-112.074-86.451-161.727
						c0.947-21.526,15.548-41.026,34.132-48.008c2.512-19.397,10.143-34.367,22.368-43.672c7.36-5.605,19.317-11.268,36.981-9.906
						c7.8-19.944,22.791-33.38,41.81-36.852c22.456-4.096,45.689,6.855,59.384,27.907c2.797,3.711,6.025,8.7,9.735,14.437
						c4.655,7.197,14.173,21.907,21.099,29.328c5.927-35.094,24.185-55.966,50.669-57.563c16.17-0.581,30.056,5.131,40.472,16.624
						c29.694,32.765,23.679,105.019,21.414,124.597c58.595,129.977,210.994,344.321,271.208,401.717
						c5.688,5.424,5.905,14.432,0.481,20.12c-5.422,5.693-14.43,5.912-20.123,0.483c-62.403-59.486-218.715-277.774-279.195-414.382
						c-1.069-2.417-1.445-5.083-1.086-7.699c4.34-31.594,4.248-85.821-13.79-105.722c-4.777-5.273-10.473-7.577-17.979-7.309
						c-17.393,1.05-22.949,24.607-24.687,38.551c-0.115,0.923-0.32,1.831-0.61,2.715c-5,15.096-13.953,19.28-20.589,20.125
						c-18.277,2.387-32.755-17.64-51.181-46.128c-3.396-5.249-6.603-10.204-8.786-13.046c-0.251-0.327-0.491-0.669-0.715-1.02
						c-7.399-11.601-19.422-17.767-30.605-15.736c-11.31,2.065-19.668,12.191-22.935,27.781c-0.791,3.774-3.081,7.065-6.345,9.12
						c-3.261,2.06-7.219,2.695-10.968,1.782c-11.469-2.807-20.362-1.894-26.416,2.719c-7.289,5.551-11.559,17.264-12.02,32.985
						c-0.22,7.411-6.091,13.412-13.495,13.792c-9.662,0.498-19.28,11.928-19.793,23.513
						c-1.848,41.856,34.738,107.352,78.293,140.166c2.043,1.538,3.632,3.598,4.604,5.961
						c145.239,353.987,346.42,564.147,348.436,566.227c5.466,5.644,5.322,14.657-0.322,20.125
						C1674.946,3023.496,1671.377,3024.829,1667.811,3024.829z M1442.299,2226.336L1442.299,2226.336L1442.299,2226.336z" />
					</g>
				</g>
				<g>
					<g>
						<path style="fill:#371A45;" d="M1403.997,2315.667c13.955-36.091,49.914-38.559,38.833-86.832
						c0.001,0,28.414-1.708,28.414-1.708c-0.84,10.146-2.287,20.425-6.237,30.402c-3.989,9.94-10.709,18.897-18.497,25.037
						C1431.74,2294.611,1414.5,2299.494,1403.997,2315.667L1403.997,2315.667z" />
					</g>
				</g>
				<g>
					<g>
						<path style="fill:#371A45;" d="M1391.908,2249.021c-36.809,26.343-67.747,53.267-91.62,92.099
						C1297.679,2292.49,1344.553,2249.45,1391.908,2249.021L1391.908,2249.021z" />
					</g>
				</g>
				<g>
					<g>
						<path style="fill:#371A45;" d="M1400.377,2432.846c-41.808,28.347-97.287,8.867-132.662-21.798
						c0,0,20.415-19.834,20.415-19.834C1313.181,2424.644,1358.442,2450.46,1400.377,2432.846L1400.377,2432.846z" />
					</g>
				</g>
				<g>
					<g>
						<path style="fill:#371A45;" d="M1481.89,2370.679c15.883-11.59,27.729-28.063,35.81-45.613
						c7.897-17.209,11.579-35.668,12.408-54.406c0,0,28.096,4.57,28.096,4.57C1546.987,2315.284,1520.896,2353.928,1481.89,2370.679
						L1481.89,2370.679z" />
					</g>
				</g>
				<g>
					<g>
						<path style="fill:#371A45;" d="M1267.736,2236.52c14.475,4.205,28.185,14.162,35.604,26.868
						c7.497,10.984,9.366,23.958,19.531,32.57c-12.084-3.789-20.209-16.305-30.104-23.045c-8.789-6.702-18.489-9.195-28.981-8.205
						C1263.787,2264.708,1267.736,2236.52,1267.736,2236.52L1267.736,2236.52z" />
					</g>
				</g>
				<g>
					<g>
						<path style="fill:#371A45;" d="M1315.4,2186.066c24.042,8.777,36.755,32.171,43.762,54.709
						c2.532,6.539,4.759,13.187,10.464,17.632c-6.974-2.3-12.094-8.646-16.619-14.066c-8.363-10.213-16.949-21.511-28.581-26.872
						c-5.217-2.451-10.556-3.515-15.877-3.774L1315.4,2186.066L1315.4,2186.066z" />
					</g>
				</g>
				<g>
					<g>
						<path style="fill:#371A45;" d="M1448.978,2686.953c-9.274,0-17.859-1.059-25.454-3.247l7.885-27.351
						c21.826,6.289,66.248-1.201,108.927-27.688c29.313-18.197,80.558-60.155,94.439-136.778l28.01,5.078
						c-11.742,64.808-49.897,120.168-107.438,155.883C1520.296,2674.606,1480.654,2686.953,1448.978,2686.953z" />
					</g>
				</g>
			</g>
			<g>
				<g>
					<g>
						<path style="fill:#FFFFFF;" d="M2137.13,2715.999c64.16-61.162,218.263-279.425,276-409.843
						c-4.497-32.761-9.167-131.318,46.416-129.192c31.812,1.922,37.208,42.546,38.264,51.018
						c11.537,34.852,42.867-26.469,55.759-43.25c21.511-33.729,69.407-31.255,79.469,16.781
						c36.727-8.992,54.997,13.351,56.046,49.103c17.427,0.899,32.464,18.652,33.279,37.102
						c2.099,47.52-37.776,117.376-83.948,152.155c-148.107,360.974-351.38,570.724-351.38,570.724L2137.13,2715.999z" />
					</g>
				</g>
				<g>
					<g>
						<path style="fill:#E5E5E5;" d="M2293.581,2959.995c58.852-68.971,201.564-251.68,313.257-519.094
						c-29.436,3.534-47.128-5.498-47.128-5.498C2594.941,2499.076,2356.59,2868.744,2293.581,2959.995z" />
					</g>
				</g>
				<g>
					<g>
						<path style="fill:#E5E5E5;" d="M2639.463,2308.396c9.565,15.233,23.091,53.067-8.77,40.699
						c-27.642-10.73-30.581-51.043-122.998-75.809c43.155-5.365,28.409-28.775,54.829-24.266
						C2588.945,2253.53,2622.684,2281.672,2639.463,2308.396z" />
					</g>
				</g>
				<g>
					<g>
						<path style="fill:#E5E5E5;" d="M2642.873,2401.131c6.611,0.172-39.837,25.39-114.266-3.242
						c-65.667-25.262-89.269-98.264-90.168-131.543C2437.657,2237.404,2454.929,2396.24,2642.873,2401.131z" />
					</g>
				</g>
				<g>
					<g>
						<path style="fill:#371A45;"
							d="M2287.037,3024.829c-3.566,0-7.135-1.333-9.901-4.009c-5.644-5.468-5.788-14.481-0.322-20.125
						c2.016-2.08,203.197-212.239,348.436-566.227c0.972-2.363,2.561-4.423,4.604-5.961c43.555-32.814,80.141-98.31,78.293-140.161
						c-0.512-11.591-10.133-23.02-19.795-23.518c-7.406-0.381-13.278-6.386-13.495-13.797c-0.459-15.716-4.729-27.429-12.018-32.98
						c-6.057-4.609-14.942-5.527-26.416-2.719c-3.75,0.918-7.704,0.278-10.968-1.782c-3.264-2.055-5.554-5.346-6.344-9.12
						c-3.266-15.589-11.625-25.715-22.935-27.781c-11.188-2.041-23.206,4.135-30.605,15.736c-0.225,0.351-0.464,0.693-0.715,1.02
						c-2.183,2.842-5.39,7.797-8.786,13.046c-18.431,28.493-32.924,48.481-51.181,46.128c-6.635-0.845-15.589-5.029-20.589-20.125
						c-0.291-0.879-0.496-1.787-0.61-2.71c-1.74-13.949-7.304-37.506-25-38.57c-7.135-0.254-12.885,2.051-17.667,7.323
						c-18.035,19.896-18.13,74.128-13.792,105.727c0.359,2.617-0.017,5.278-1.086,7.695
						c-60.472,136.597-216.784,354.891-279.193,414.382c-5.69,5.429-14.696,5.209-20.123-0.483
						c-5.424-5.688-5.207-14.696,0.481-20.12c60.216-57.401,212.615-271.745,271.205-401.717
						c-2.265-19.583-8.276-91.836,21.416-124.597c10.417-11.493,24.294-17.23,40.159-16.639
						c26.772,1.611,45.044,22.483,50.979,57.577c6.928-7.416,16.446-22.132,21.101-29.328c3.711-5.737,6.938-10.726,9.735-14.437
						c13.697-21.057,36.92-32.013,59.384-27.907c19.019,3.471,34.01,16.907,41.81,36.852c17.674-1.357,29.621,4.302,36.981,9.906
						c12.225,9.306,19.856,24.275,22.366,43.672c18.582,6.982,33.185,26.482,34.135,48.008
						c2.195,49.653-37.108,122.771-86.451,161.727c-147.331,357.21-350.829,569.576-352.872,571.69
						C2294.466,3023.379,2290.755,3024.829,2287.037,3024.829z M2512.549,2226.336L2512.549,2226.336L2512.549,2226.336z" />
					</g>
				</g>
				<g>
					<g>
						<path style="fill:#371A45;" d="M2550.851,2315.667c-10.511-16.178-27.739-21.055-42.515-33.102
						c-7.785-6.14-14.505-15.096-18.497-25.037c-3.948-9.977-5.395-20.257-6.235-30.402l28.413,1.709
						C2500.947,2277.156,2536.885,2279.548,2550.851,2315.667L2550.851,2315.667z" />
					</g>
				</g>
				<g>
					<g>
						<path style="fill:#371A45;" d="M2562.939,2249.021c47.351,0.425,94.229,43.471,91.622,92.097
						C2630.686,2302.288,2599.744,2275.363,2562.939,2249.021L2562.939,2249.021z" />
					</g>
				</g>
				<g>
					<g>
						<path style="fill:#371A45;" d="M2554.469,2432.846c41.945,17.612,87.192-8.198,112.246-41.632
						c0,0.001,20.418,19.835,20.418,19.835C2651.772,2441.711,2596.263,2461.195,2554.469,2432.846L2554.469,2432.846z" />
					</g>
				</g>
				<g>
					<g>
						<path style="fill:#371A45;"
							d="M2472.956,2370.679c-39.008-16.755-65.093-55.391-76.311-95.449c0,0,28.095-4.57,28.095-4.57
						c0.829,18.739,4.51,37.196,12.406,54.406C2445.23,2342.616,2457.072,2359.086,2472.956,2370.679L2472.956,2370.679z" />
					</g>
				</g>
				<g>
					<g>
						<path style="fill:#371A45;" d="M2691.061,2264.708c-17.248-2.367-31.085,8.425-42.866,20.416
						c-4.668,4.349-9.99,9.105-16.219,10.833c10.166-8.614,12.033-21.585,19.532-32.57c7.421-12.705,21.125-22.661,35.602-26.867
						C2687.109,2236.52,2691.061,2264.708,2691.061,2264.708L2691.061,2264.708z" />
					</g>
				</g>
				<g>
					<g>
						<path style="fill:#371A45;" d="M2646.3,2213.696c-19.54,0.121-32.98,15.984-44.458,30.647
						c-4.526,5.419-9.645,11.766-16.622,14.065c5.707-4.445,7.934-11.093,10.465-17.632c7.005-22.536,19.722-45.937,43.764-54.708
						C2639.448,2186.066,2646.3,2213.696,2646.3,2213.696L2646.3,2213.696z" />
					</g>
				</g>
				<g>
					<g>
						<path style="fill:#371A45;"
							d="M2505.87,2686.953c-31.679,0-71.318-12.347-106.371-34.103
						c-57.538-35.714-95.693-91.075-107.435-155.883l28.01-5.078c13.881,76.623,65.125,118.582,94.436,136.778
						c42.676,26.487,87.105,33.961,108.929,27.688l7.885,27.351C2523.732,2685.894,2515.139,2686.953,2505.87,2686.953z" />
					</g>
				</g>
			</g>
		</g>
	</g>
</svg>