<svg xmlns:xlink="http://www.w3.org/1999/xlink" viewBox="0 0 4000 4000">
	<g>
		<g>
			<g>
				<g>
					<g>
						<rect x="2.497" y="2.497" style="fill:none;" width="3995.006" height="3995.006" />
					</g>
				</g>
			</g>
		</g>
		<g>
			<g style="opacity:0.2;">
				<g>
					<g>
						<g>
							<ellipse style="fill:#6b7280;" cx="1704.387" cy="3525.331" rx="753.076" ry="118.954" />
						</g>
					</g>
				</g>
			</g>
			<g>
				<g>
					<g>
						<g>
							<path style="fill:#FFFFFF;" d="M1738.055,1759.082c0,0,215.362-4.863,396.892,26.403
							c67.208,11.576,178.289,22.672,178.289,22.672s276.911-213.051,379.891-231.141c81.84-14.377,194.508,6.728,290.309,77.692
							c89.581,66.356,53.958,121.1,7.189,130.777c0,0,56.839,86.381-2.212,113.912c-61.38,28.616-113.221-61.38-113.221-61.38
							s-179.955,209.837-266.67,272.062c-158.571,113.786-373.703,201.157-695.729-2.874" />
						</g>
					</g>
				</g>
			</g>
			<g>
				<g>
					<g>
						<g>
							<path style="fill:#FFFFFF;" d="M1738.052,1759.067l148.166,295.224l26.556,52.891
							c322.046,204.072,537.158,116.689,695.743,2.882c86.719-62.202,266.673-272.037,266.673-272.037s51.828,90,113.231,61.359
							c59.053-27.532,2.217-113.896,2.217-113.896c30.192-6.251,55.729-31.3,45.931-66.103
							c-5.364-19.108-21.37-41.143-53.113-64.684c-95.808-70.98-208.506-92.083-290.347-77.674
							c-102.945,18.089-379.859,231.116-379.859,231.116s-111.102-11.084-178.314-22.655
							C1953.429,1754.235,1738.052,1759.067,1738.052,1759.067z" />
						</g>
					</g>
				</g>
			</g>
			<g>
				<g>
					<g>
						<g>
							<path style="fill:#E8E8E8;" d="M1738.052,1759.067l99.398,197.999c92.172-43.448,167.408-107.068,215.909-183.146
							C1894.686,1755.565,1738.052,1759.067,1738.052,1759.067z" />
						</g>
					</g>
				</g>
			</g>
			<g>
				<g>
					<g>
						<g>
							<path style="fill:#E8E8E8;" d="M1124.018,1868.352c55.463,49.743,124.713,89.689,203.052,116.024l29.217-199.949
							C1356.287,1784.427,1233.923,1797.55,1124.018,1868.352z" />
						</g>
					</g>
				</g>
			</g>
			<g>
				<g>
					<g>
						<g>
							<path style="fill:#E8E8E8;" d="M1192.692,1920.357c97.137,62.29,220.875,99.576,355.608,99.576
							c182.836,0,345.366-68.63,448.71-175.122l-140.408-199.861c-364.962-645.512-638.995-118.728-638.995-118.728
							S1198.278,1701.033,1192.692,1920.357z" />
						</g>
					</g>
				</g>
			</g>
			<g>
				<g>
					<g>
						<g>
							<path style="fill:#E8E8E8;" d="M1886.219,2054.292l26.556,52.891c322.046,204.072,537.158,116.689,695.743,2.882
							c86.719-62.202,266.673-272.037,266.673-272.037s51.828,90,113.231,61.359c59.053-27.532,2.217-113.896,2.217-113.896
							c30.192-6.251,55.729-31.3,45.931-66.103c-7.227,12.813-27.088,28.818-81.487,18.044
							c-105.029-20.837-162.442-113.142-192.368-99.797c-197.422,88.226-184.831,433.459-386.42,480.499
							c-201.634,47.039-290.658-215.156-398.17-241.003C1927.139,1864.85,1900.361,1955.514,1886.219,2054.292z" />
						</g>
					</g>
				</g>
			</g>
			<g>
				<g>
					<g>
						<g>
							<path style="fill:#371A45;" d="M2277.086,2247.627c-118.168,0.005-240.949-41.281-373.781-125.439
							c-8.276-5.242-10.734-16.2-5.491-24.471c5.242-8.281,16.2-10.719,24.471-5.491c320.415,203.013,529.519,108.478,675.898,3.448
							c83.987-60.271,261.758-267.12,263.548-269.202c3.745-4.367,9.349-6.649,15.108-6.111c5.73,0.534,10.846,3.816,13.718,8.805
							c0.424,0.734,44.52,75.54,90.361,54.158c8.29-3.865,13.147-9.154,15.283-16.647c6.525-22.884-13.04-60.198-20.409-71.466
							c-3.209-4.911-3.789-11.102-1.541-16.52c2.253-5.418,7.032-9.383,12.777-10.573c17.298-3.579,30.358-14.44,33.269-27.673
							c4.379-19.868-12.909-45.924-47.421-71.488c-99.027-73.358-207.851-86.572-276.681-74.477
							c-97.559,17.139-369.411,225.626-372.147,227.73c-3.575,2.755-8.076,4.057-12.572,3.592
							c-4.564-0.456-112.481-11.292-179.536-22.843c-177.683-30.601-391.356-26.193-393.488-26.149
							c-0.137,0.002-0.273,0.005-0.405,0.005c-9.612,0-17.507-7.678-17.722-17.334c-0.224-9.792,7.534-17.907,17.327-18.129
							c2.165-0.058,219.174-4.543,400.305,26.656c56.234,9.685,144.795,19.163,170.095,21.789
							c41.165-31.326,283.035-212.864,382.008-230.249c76.091-13.372,195.878,0.87,303.932,80.91
							c60.145,44.554,66.343,83.114,60.944,107.615c-4.404,20.002-18.741,37.029-38.551,47.07
							c10.036,20.343,21.974,52.861,13.952,81.168c-4.94,17.42-16.844,30.96-34.43,39.16
							c-54.717,25.503-100.485-20.063-122.352-48.492c-45.495,52.12-181.092,204.69-254.696,257.505
							c-102.206,73.341-196.034,111.789-295.271,120.996C2308.165,2246.91,2292.662,2247.627,2277.086,2247.627z" />
						</g>
					</g>
				</g>
			</g>
			<g>
				<g>
					<g>
						<g>
							<path style="fill:#E8E8E8;" d="M2838.409,1752.904c0,0,85.177,133.733,0.152,191.074
							c-61.864,41.721-126.908,17.352-132.717-52.875c0,0-35.041-43.685-9.328-100.088
							C2722.231,1734.612,2838.409,1752.904,2838.409,1752.904z" />
						</g>
					</g>
				</g>
			</g>
			<g>
				<g>
					<g>
						<g>
							<path style="fill:#371A45;" d="M2777.852,1982.075c-13.772,0-26.988-2.826-38.965-8.573
							c-27.832-13.357-45.944-40.882-50.206-75.969c-9.383-14.194-33.391-58.838-8.3-113.874
							c30.431-66.738,147.531-50.357,160.79-48.272c5.023,0.79,9.466,3.701,12.197,7.991c3.857,6.054,93.331,149.067-4.891,215.305
							C2825.57,1974.129,2800.933,1982.075,2777.852,1982.075z M2798.075,1767.831c-33.298,0-74.229,5.984-85.421,30.54
							c-20.946,45.934,6.745,81.283,7.027,81.634c2.209,2.758,3.545,6.113,3.838,9.636c2.063,24.942,12.972,43.366,30.714,51.883
							c20.585,9.878,48.392,5.299,74.414-12.25c59.862-40.37,13.557-133.693-1.136-159.908
							C2819.484,1768.499,2809.204,1767.831,2798.075,1767.831z" />
						</g>
					</g>
				</g>
			</g>
			<g>
				<g>
					<g>
						<g>
							<path style="fill:#371A45;" d="M2753.853,1909.419c-25.613,0-50.201-7.576-69.366-22.677
							c-7.69-6.062-9.012-17.212-2.95-24.905c6.062-7.7,17.219-9.007,24.905-2.955c29.055,22.903,73.004,17.039,101.382-0.593
							c12.231-7.596,39.877-29.065,32.445-64.27c-2.024-9.583,4.106-18.992,13.689-21.016c9.573-2.024,18.99,4.104,21.014,13.687
							c8.373,39.662-9.729,77.693-48.436,101.731C2803.971,1902.433,2778.442,1909.419,2753.853,1909.419z" />
						</g>
					</g>
				</g>
			</g>
			<g>
				<g>
					<g>
						<g>
							<path style="fill:#FFFFFF;" d="M2990.625,1785.485c-74.375,0-143.219-64.836-174.739-79.351" />
						</g>
					</g>
				</g>
				<g>
					<g>
						<g>
							<path style="fill:#371A45;" d="M2990.623,1803.219c-59.842,0-115.203-37.346-151.842-62.059
							c-12.431-8.385-23.164-15.627-30.313-18.919c-8.895-4.096-12.787-14.63-8.69-23.525c4.092-8.898,14.625-12.784,23.525-8.69
							c9.763,4.496,21.604,12.484,35.317,21.733c35.03,23.63,83.007,55.992,132.003,55.992c9.792,0,17.732,7.939,17.732,17.734
							S3000.415,1803.219,2990.623,1803.219z" />
						</g>
					</g>
				</g>
			</g>
			<g>
				<g>
					<g>
						<g>
							<line style="fill:#FFFFFF;" x1="2769.836" y1="1573.738" x2="3193.871" y2="3047.836" />
						</g>
					</g>
				</g>
				<g>
					<g>
						<g>
							<path style="fill:#371A45;" d="M3193.865,3061.141c-5.779,0-11.099-3.794-12.777-9.627l-424.035-1474.1
							c-2.029-7.059,2.043-14.428,9.105-16.459c7.091-2.026,14.43,2.051,16.459,9.105l424.035,1474.1
							c2.029,7.062-2.048,14.43-9.105,16.459C3196.318,3060.971,3195.079,3061.141,3193.865,3061.141z" />
						</g>
					</g>
				</g>
			</g>
			<g>
				<g>
					<g>
						<g>
							<g>
								<path style="fill:#FFFFFF;" d="M1709.423,2971.48c0,0-74.957,2.938-175.823-1.209c-19.766-0.85-40.473-1.898-61.793-3.316
								c-159.102-10.518-352.599-40.24-427.654-120.08c-112.297-119.385-144.714-714.639-52.642-953.127
								c15.488-40.302,56.075-72.949,109.189-99.239c90.842-45.009,218.481-71.531,320.101-86.598
								c17.977-2.683,35.193-5.017,51.152-6.991c67.51-8.427,114.307-11.189,114.307-11.189l11.053,115.521l0.874,9l6.129,63.439
								L1709.423,2971.48z" />
							</g>
						</g>
					</g>
				</g>
				<g>
					<g>
						<g>
							<g>
								<path style="fill:#D8D8D8;" d="M1597.314,1805.251c-239.139,60.966-412.769,31.653-496.614-10.742
								c90.842-45.009,218.481-71.531,320.101-86.598c17.977-2.683,35.193-5.017,51.152-6.991
								c67.51-8.427,114.307-11.189,114.307-11.189L1597.314,1805.251z" />
							</g>
						</g>
					</g>
				</g>
				<g>
					<g>
						<g>
							<g>
								<path style="fill:#E8E8E8;" d="M1598.188,1814.243l6.115,63.426l83.476,868.49l21.656,225.309c0,0-1.57,0.057-4.544,0.149
								c-0.844,0.01-1.854,0.042-2.919,0.083c-0.844,0.01-1.799,0.034-2.753,0.06c-0.726,0.048-1.459,0.042-2.185,0.09
								c-0.284-0.015-0.615,0.032-0.899,0.017c-1.349,0.026-2.864,0.075-4.442,0.078c-0.331,0.048-0.671,0.04-1.065,0.041
								c-1.294,0.018-2.642,0.044-4.102,0.085c-1.964,0.058-3.992,0.069-6.13,0.096c-1.522-0.006-3.148,0.06-4.781,0.07
								c-1.688,0.018-3.376,0.037-5.12,0.063c-2.193,0.035-4.505,0.031-6.864,0.089c-4.788,0.015-9.853,0.07-15.21,0.054
								c-4.725,0.063-9.688,0.046-14.879,0.007c-5.98-0.038-12.236-0.037-18.728-0.114c-23.991-0.256-51.469-0.853-81.236-2.078
								c-5.783-0.236-11.684-0.511-17.641-0.778c-4.142-0.191-8.402-0.422-12.663-0.652c-10.28-0.544-20.852-1.16-31.496-1.877
								c-159.105-10.505-352.548-40.23-427.599-120.079c-92.481-98.299-130.834-519.253-90.043-798.048
								c-2.42,241.635,36.475,498.892,106.183,572.975c34.46,36.635,160.305-103.54,154.54-180.716
								c-14.867-199.041,5.335-456.99,182.004-617.916C1401.456,1818.985,1509.395,1827.741,1598.188,1814.243z" />
							</g>
						</g>
					</g>
				</g>
				<g>
					<g>
						<g>
							<g>
								<path style="fill:#371A45;" d="M1638.148,2990.346c-151.51,0-496.108-13.45-606.932-131.306
								c-117.173-124.595-151.9-723.968-56.307-971.71c30.002-77.742,142.829-137.582,335.347-177.859
								c140.01-29.292,273.603-37.358,274.935-37.436l17.054-1l1.639,17.005l125.024,1300.423l-18.756,0.736
								C1705.52,2989.38,1678.771,2990.346,1638.148,2990.346z M1570.225,1708.564c-154.836,11.234-512.753,63.331-562.222,191.533
								c-41.769,108.248-60.588,305.161-49.118,513.903c11.221,204.105,49.752,369.26,98.168,420.744
								c115.408,122.732,538.429,121.401,632.934,119.509L1570.225,1708.564z" />
							</g>
						</g>
					</g>
				</g>
				<g>
					<g>
						<g>
							<g>
								<path style="fill:#FFFFFF;" d="M983.481,2398.633l215.997,5.408c19.283,0.483,35.824,13.877,40.2,32.664
								c16.026,68.794,44.795,229.604-20.061,286.422c-53.831,47.159-145.092,46.498-200.67,4.03
								c-62.17-47.505-75.926-205.947-78.885-284.576C939.142,2418.135,959.026,2398.021,983.481,2398.633z" />
							</g>
						</g>
					</g>
				</g>
				<g>
					<g>
						<g>
							<g>
								<path style="fill:#E8E8E8;" d="M1239.665,2436.73c16.06,68.767,44.799,229.588-20.067,286.383
								c-53.839,47.18-145.078,46.511-200.685,4.032c-38.21-29.242-58.133-100.429-68.486-169.176
								c11.419,34.036,28.038,61.308,47.887,78.755c113.723,99.963,188.483-28.328,188.483-28.328s15.559,29.468,26.843,30.617
								c47.183,4.806,30.178-141.302,19.625-216.699C1236.226,2426.544,1238.443,2431.391,1239.665,2436.73z" />
							</g>
						</g>
					</g>
				</g>
				<g>
					<g>
						<g>
							<g>
								<path style="fill:#371A45;"
									d="M1117.51,2776.629c-39.048,0-78.379-11.733-109.331-35.385
								c-66.85-51.079-82.475-208.631-85.84-297.997c-0.624-16.517,5.677-32.732,17.288-44.485
								c11.616-11.763,27.724-18.395,44.3-17.854l215.995,5.408c27.378,0.683,50.83,19.751,57.028,46.368
								c20.331,87.25,44.032,242.739-25.647,303.781C1200.829,2763.159,1159.333,2776.624,1117.51,2776.629z M982.391,2416.356
								c-6.642,0-12.845,2.585-17.527,7.325c-4.828,4.886-7.34,11.358-7.081,18.229c5.247,139.382,32.137,240.744,71.931,271.155
								c50.513,38.594,132.125,37.107,178.22-3.277c40.126-35.156,45.539-135.739,14.469-269.058
								c-2.531-10.885-12.143-18.678-23.369-18.961l-215.995-5.408C982.825,2416.356,982.605,2416.356,982.391,2416.356z" />
							</g>
						</g>
					</g>
				</g>
				<g>
					<g>
						<g>
							<g>
								<path style="fill:#371A45;" d="M1106.703,2745.073c51.644-33.332,70.135-99.143,72.178-157.919
								c0.527-32.787,0.902-67.052-7.929-98.756c-1.058-2.516,0.199-5.487,2.833-6.333c2.331-0.77,4.843,0.414,5.779,2.641
								c2.707,6.497,4.25,12.334,5.833,18.557c5.877,24.417,8.429,49.437,9.905,74.425c4.89,70.396-12.293,151.359-73.244,194.673
								C1103.35,2783.371,1087.513,2755.409,1106.703,2745.073L1106.703,2745.073z" />
							</g>
						</g>
					</g>
				</g>
				<g>
					<g>
						<g>
							<g>
								<path style="fill:#371A45;" d="M1315.455,1870.015c-52.494-1.135-105.462-0.386-157.886,2.717
								c-51.427,3.296-104.466,8.031-153.729,21.591c-22.65,5.749-32.146-26.973-9.721-34.128
								c80.249-16.975,161.404-15.196,242.575-12.961c26.642,1.033,53.129,2.419,79.81,4.528
								C1328.164,1852.926,1327.339,1870.166,1315.455,1870.015L1315.455,1870.015z" />
							</g>
						</g>
					</g>
				</g>
			</g>
			<g>
				<g>
					<g>
						<g>
							<path style="fill:#FFFFFF;" d="M1472.079,2403.861c0,0,164.257,256.447,206.605,378.022
							c56.654,162.646-6.279,608.734,37.268,690.499c18.952,35.585,64.476,68.997,235.782,68.997
							c118.782,0,231.346-6.115,234.652-94.663c2.633-70.523-90.223-102.789-90.223-102.789l103.819-772.778" />
						</g>
					</g>
				</g>
			</g>
			<g>
				<g>
					<g>
						<g>
							<path style="fill:#FFFFFF;" d="M1678.688,2781.867c56.66,162.664-6.295,608.759,37.286,690.512
							c18.931,35.601,64.462,68.984,235.772,68.984c118.772,0,231.338-6.118,234.663-94.654c0.177-5.231-0.133-10.241-0.931-15.074
							c-9.709-60.073-89.334-87.694-89.334-87.694l76.787-571.562l27.045-201.235l-727.886-167.275
							C1472.089,2403.87,1636.348,2660.301,1678.688,2781.867z" />
						</g>
					</g>
				</g>
			</g>
			<g>
				<g>
					<g>
						<g>
							<path style="fill:#E8E8E8;" d="M1678.688,2781.867c56.66,162.664-6.295,608.759,37.286,690.512
							c18.931,35.601,64.462,68.984,235.772,68.984c118.772,0,231.338-6.118,234.663-94.654c0.177-5.231-0.133-10.241-0.931-15.074
							c0,0-42.739,42.295-224.156,43.448c-173.614,1.064-221.773-39.222-215.053-191.546
							c6.579-149.134,10.08-235.487,78.122-266.568c84.129-38.429,276.368-98.283,348.54-244.589l27.045-201.235l-727.886-167.275
							C1472.089,2403.87,1636.348,2660.301,1678.688,2781.867z" />
						</g>
					</g>
				</g>
			</g>
			<g>
				<g>
					<g>
						<g>
							<path style="fill:#371A45;" d="M1487.013,2394.296c40.569,64.039,79.573,128.623,116.839,194.626
							c32.365,58.267,64.885,117.069,88.837,179.641c17.125,45.925,21.951,96.195,25.478,143.601
							c7.101,113.455,1.615,227.438-0.317,340.44c-0.676,37.545-1.144,75.047-0.086,112.144c0.571,18.518,1.497,36.985,3.536,54.879
							c2.248,16.535,3.811,32.85,11.918,47.291c31.57,52.385,134.47,53.799,192.662,56.434c36.802,0.597,74.61,0.469,111.29-2.03
							c34.266-2.734,71.817-7.069,101.026-23.958c20.789-11.813,31.21-32.146,30.44-54.847
							c-1.468-40.328-41.025-66.684-78.287-81.836c-8.099-2.814-12.872-10.952-11.761-19.115l103.82-772.778
							c1.302-9.706,10.229-16.519,19.936-15.214c9.707,1.305,16.52,10.23,15.215,19.937l-103.82,772.778l-11.753-19.112
							c10.477,3.879,18.892,7.949,28.383,13.115c42.503,22.408,81.497,66.092,72.754,118.332
							c-15.273,98.93-143.704,97.73-220.884,100.305c-77.045-0.287-195.55,3.307-257.901-48.014
							c-26.385-21.483-35.256-54.953-38.273-87.247c-5.984-57.307-4.417-114.655-3.679-171.721
							c1.92-112.87,7.38-225.143,0.393-337.41c-2.563-36.917-6.467-73.893-15.328-108.422
							c-21.187-70.708-59.369-135.051-94.502-199.788c-36.843-65.264-75.797-129.759-115.899-193.05
							C1445.333,2394.104,1473.14,2374.285,1487.013,2394.296L1487.013,2394.296z" />
						</g>
					</g>
				</g>
			</g>
			<g>
				<g>
					<g>
						<g>
							<path style="fill:#371A45;" d="M1885.364,3146.815c-101.226,0-180.434-25.081-186.227-26.963
							c-6.983-2.272-10.802-9.768-8.539-16.756c2.273-6.988,9.758-10.812,16.756-8.544c2.414,0.785,243.826,76.969,418.861-40.574
							c6.101-4.087,14.362-2.468,18.458,3.624c4.096,6.101,2.473,14.362-3.623,18.458
							C2059.004,3131.161,1965.313,3146.815,1885.364,3146.815z" />
						</g>
					</g>
				</g>
			</g>
			<g>
				<g>
					<g>
						<g>
							<path style="fill:#FFFFFF;" d="M1856.585,1644.929C1491.654,999.46,1217.6,1526.206,1217.6,1526.206
							s-36.927,333.77-23.508,657.459c9.524,229.74,27.112,316.861,48.138,446.76c81.443,443.665,838.223,409.75,944.453,26.929
							c60.12-216.655-15.058-524.363-153.546-761.155" />
						</g>
					</g>
				</g>
			</g>
			<g>
				<g>
					<g>
						<g>
							<path style="fill:#FFFFFF;" d="M1856.585,1644.929C1491.654,999.46,1217.6,1526.206,1217.6,1526.206
							s-36.927,333.77-23.508,657.459c9.524,229.74,27.112,316.861,48.138,446.76c81.443,443.665,838.223,409.75,944.453,26.929
							c60.12-216.655-15.058-524.363-153.546-761.155L1856.585,1644.929z" />
						</g>
					</g>
				</g>
			</g>
			<g>
				<g>
					<g>
						<g>
							<path style="fill:#FFFFFF;" d="M1194.111,2183.66c9.488,229.742,27.089,316.86,48.104,446.76
							c5.098,27.842,12.901,53.778,23.009,77.896c150.826,360.13,821.876,307.815,921.451-50.941
							c7.005-25.182,12.148-51.65,15.606-79.048c26.157-208.24-46.729-472.873-169.137-682.132l-176.54-251.244
							c-364.962-645.512-638.995-118.728-638.995-118.728S1180.678,1859.973,1194.111,2183.66z" />
						</g>
					</g>
				</g>
			</g>
			<g>
				<g>
					<g>
						<g>
							<path style="fill:#E8E8E8;" d="M2180.561,2450.507l-121.853,73.909l9.884,46.895c8.84,41.938-19.018,82.8-61.287,89.895
							l-407.134,68.338c-41.179,6.912-80.133-20.964-86.876-62.172l-14.513-88.68l-311.433-40.83l-53.629-206.743l146.058-23.088
							c0,0-31.114,127.087,109.479,161.244c140.593,34.156,788.504-86.324,788.504-86.324L2180.561,2450.507z" />
						</g>
					</g>
				</g>
			</g>
			<g>
				<g>
					<g>
						<g>
							<path style="fill:#E8E8E8;" d="M1265.224,2708.316c150.826,360.13,821.876,307.815,921.451-50.941
							c7.005-25.182,12.148-51.65,15.606-79.048c-0.044,0.133-0.044,0.222-0.089,0.354
							C2151.251,2766.172,1653.506,2947.191,1265.224,2708.316z" />
						</g>
					</g>
				</g>
			</g>
			<g>
				<g>
					<g>
						<g>
							<path style="fill:#E8E8E8;" d="M1232.416,2686.947c2.97,38.793,5.364,72.487,6.473,93.147
							c4.211,77.541,7.403,168.472,10.064,258.825l444.454,28.108c3.103-46.241,5.054-94.832,5.142-144.088l-99.664-104.186
							C1475.547,2806.872,1348.218,2766.793,1232.416,2686.947z" />
						</g>
					</g>
				</g>
			</g>
			<g>
				<g>
					<g>
						<g>
							<path style="fill:#E8E8E8;" d="M1192.692,1920.357c97.137,62.29,220.875,99.576,355.608,99.576
							c182.836,0,345.366-68.63,448.71-175.122l-140.408-199.861c-364.962-645.512-638.995-118.728-638.995-118.728
							S1198.278,1701.033,1192.692,1920.357z" />
						</g>
					</g>
				</g>
			</g>
			<g>
				<g>
					<g>
						<g>
							<path style="fill:#371A45;" d="M2143.78,2734.62c83.538-202.571,39.404-432.74-31.909-632.92
							c-24.805-68.429-54.068-135.23-86.4-201.049c-2.165-4.406-0.349-9.732,4.057-11.897c4.023-1.976,8.812-0.631,11.263,2.969
							c83.579,123.678,137.666,266.16,166.887,412.388c21.582,114.876,27.751,236.211-2.041,350.67
							c-3.386,14.029-10.232,27.307-16.447,40.2c-8.752,17.226-18.907,33.548-30.226,48.799c-2.931,3.95-8.51,4.776-12.46,1.844
							C2143.019,2743.04,2141.963,2738.385,2143.78,2734.62L2143.78,2734.62z" />
						</g>
					</g>
				</g>
			</g>
			<g>
				<g>
					<g>
						<g>
							<path style="fill:#371A45;" d="M1841.148,1653.657c-118.947-212.44-325.715-458.106-548.273-204.076
							c-22.394,25.934-43.066,54.874-59.544,84.809c0,0,1.895-6.234,1.895-6.234c-8.366,82.302-14.147,165.457-18.48,248.363
							c-15.071,289.285-7.522,581.581,48.161,866.457c46.362,210.078,268.293,301.564,466.16,291.97
							c81.774-3.115,160.495-23.247,238.283-48.73c4.696-1.587,9.802,0.979,11.341,5.69c1.29,3.937-0.312,8.127-3.631,10.28
							c-72.331,46.604-159.387,64.649-244.367,69.136c-218.151,12.477-455.082-88.788-506.09-319.584
							c-3.995-17.659-8.027-44.535-11.049-62.76c-59.846-351.548-50.354-710.973-15.581-1064.721
							c0.002-0.001,0.365-3.377,0.365-3.378l1.531-2.859c18.161-33.173,39.695-63.099,64.214-91.683
							c75.605-89.181,187.742-149.791,305.112-105.704c138.188,53.046,229.339,193.413,300.829,315.566
							C1883.042,1657.202,1853.138,1673.702,1841.148,1653.657L1841.148,1653.657z" />
						</g>
					</g>
				</g>
			</g>
			<g style="opacity:0.7;">
				<g>
					<g>
						<g>

							<ellipse transform="matrix(0.9988 -0.0487 0.0487 0.9988 -68.6231 67.6678)" style="fill:#FFFFFF;"
								cx="1355.587" cy="1443.354" rx="43.516" ry="50.023" />
						</g>
					</g>
				</g>
			</g>
			<g>
				<g>
					<g>
						<g>
							<path style="fill:#FFFFFF;" d="M1698.54,2922.945c-0.432,244.706-47.416,473.558-47.416,473.558s49.4,63.927,0.805,122.723
							c-29.571,35.779-102.373,35.855-102.373,35.855h-205.446c0,0-56.149-5.399-77.743-67.483
							c-10.667-30.668-13.192-445.429-27.472-707.517c-4.457-81.798-28.772-367.721-28.772-367.721L1698.54,2922.945z" />
						</g>
					</g>
				</g>
			</g>
			<g>
				<g>
					<g>
						<g>
							<path style="fill:#FFFFFF;" d="M1698.54,2922.945c-0.432,244.706-47.416,473.558-47.416,473.558s49.4,63.927,0.805,122.723
							c-29.571,35.779-102.373,35.855-102.373,35.855h-205.446c0,0-56.149-5.399-77.743-67.483
							c-10.667-30.668-13.192-445.429-27.472-707.517c-4.457-81.798-28.772-367.721-28.772-367.721L1698.54,2922.945z" />
						</g>
					</g>
				</g>
			</g>
			<g>
				<g>
					<g>
						<g>
							<path style="fill:#E8E8E8;" d="M1261.056,3432.122c1.552,29.926,3.281,49.655,5.32,55.463
							c21.591,62.113,77.719,67.478,77.719,67.478h205.447c0,0,72.797-0.044,102.368-35.823
							c22.212-26.823,23.986-54.709,19.33-77.142c-2.794,4.966-6.251,9.931-10.33,14.897
							c-30.901,37.418-86.007,37.507-182.609,37.507C1381.698,3494.501,1285.44,3489.314,1261.056,3432.122z" />
						</g>
					</g>
				</g>
			</g>
			<g>
				<g>
					<g>
						<g>
							<path style="fill:#E8E8E8;" d="M1232.416,2686.947c2.97,38.793,5.364,72.487,6.473,93.147
							c3.178,58.508,5.775,124.638,8.001,192.392c61.445,34.403,231.69,76.965,449.197,47.854c1.512-31.833,2.403-64.468,2.463-97.4
							l-99.664-104.186C1475.547,2806.872,1348.218,2766.793,1232.416,2686.947z" />
						</g>
					</g>
				</g>
			</g>
			<g>
				<g>
					<g>
						<g>
							<path style="fill:#371A45;" d="M1707.407,2922.961c11.031,119.613-0.997,240.285-18.88,358.603
							c-6.008,39.579-12.192,78.821-20.031,118.504l-3.338-14.408c33.877,45.797,36.512,111.195-6.519,152.213
							c-31.52,28.147-77.899,34.892-117.886,34.943c-50.734,0.007-145.035-0.006-196.644-0.001
							c-15.634-1.374-30.316-7.34-43.72-15.193c-25.555-15.594-43.877-39.988-52.057-68.959c-2.657-13.56-3.048-26.089-4.087-39.509
							c-9.985-202.168-11.671-464.967-22.975-666.53c-7.765-122.923-18.708-245.932-28.82-368.79
							c-1.382-22.472,32.192-27.144,35.341-2.975c10.147,123.266,21.099,246.294,28.895,369.846
							c12.021,208.075,12.228,475.933,24.291,684.229c0.675,33.178,26.791,62.99,58.567,71.193c1.842,0.432,4.67,1.129,6.264,1.302
							c0,0-1.7-0.081-1.7-0.081c52.019-0.001,145.536,0.001,196.627,0c8.555,0.015,17.605-0.078,26.122-1.164
							c29.618-3.819,61.913-10.625,77.813-37.103c13.86-21.066,13.617-48.264,3.63-71.255c-2.304-5.546-5.091-11.006-8.268-16.097
							c-4.188-5.834-7.936-11.742-6.281-18.793c7.458-38.261,14.005-77.448,19.36-116.477
							c10.578-76.922,17.856-158.046,25.24-235.378c3.966-39.352,6.879-78.742,11.34-118.313
							C1690.748,2912.667,1706.298,2912.023,1707.407,2922.961L1707.407,2922.961z" />
						</g>
					</g>
				</g>
			</g>
			<g>
				<g>
					<g>
						<g>
							<path style="fill:#FFFFFF;" d="M1685.706,3151.111c0,0-136.915,62.563-426.01-8.083" />
						</g>
					</g>
				</g>
				<g>
					<g>
						<g>
							<path style="fill:#371A45;" d="M1514.504,3190.131c-66.44,0-152.12-8.315-257.964-34.186
							c-7.14-1.741-11.509-8.939-9.763-16.073c1.741-7.135,8.949-11.524,16.074-9.763c280.084,68.44,416.018,9.5,417.359,8.89
							c6.686-3.014,14.562-0.049,17.59,6.627c3.029,6.676,0.102,14.538-6.564,17.585
							C1687.574,3164.884,1630.248,3190.131,1514.504,3190.131z" />
						</g>
					</g>
				</g>
			</g>
			<g>
				<g>
					<g>
						<g>
							<g>
								<path style="fill:#FFFFFF;" d="M1338.484,3377.264c0,0,122.287-42.858,271.432,1.143" />
							</g>
						</g>
					</g>
				</g>
				<g>
					<g>
						<g>
							<g>
								<path style="fill:#371A45;"
									d="M1335.552,3368.896c87.891-32.725,189.179-30.893,276.873,1.006
								c10.344,3.823,5.767,19.423-5.018,17.01c-65.881-13.63-133.185-19.036-200.147-11.856
								c-22.307,2.332-45.076,5.649-66.409,10.71C1330.346,3388.181,1325.463,3372.953,1335.552,3368.896L1335.552,3368.896z" />
							</g>
						</g>
					</g>
				</g>
			</g>
			<g>
				<g>
					<g>
						<g>
							<g>
								<path style="fill:#FFFFFF;" d="M2096.164,3343.927c0,0-103.557,20.775-190.593,14.407" />
							</g>
						</g>
					</g>
				</g>
				<g>
					<g>
						<g>
							<g>
								<path style="fill:#371A45;" d="M2098.78,3356.967c-63.759,12.551-129.166,16.335-193.854,10.212
								c-11.124-1.247-10.167-17.816,1.078-17.694c31.356,0.821,62.871-1.26,94.247-4.746c27.321-2.897,66.007-9.523,93.499-13.884
								C2110.593,3328.521,2115.302,3352.843,2098.78,3356.967L2098.78,3356.967z" />
							</g>
						</g>
					</g>
				</g>
			</g>
			<g>
				<g>
					<g>
						<g>
							<path style="fill:#FFFFFF;" d="M1356.291,1784.42c0,0-142.391,15.239-257.956,101.698
							c-86.482,64.701-324.843,287.667-352.516,400.14c-33.326,135.447,72.699,269.89,245.398,236.042
							c179.244-35.131,288.561-214.271,288.561-214.271L1356.291,1784.42z" />
						</g>
					</g>
				</g>
			</g>
			<g>
				<g>
					<g>
						<g>
							<path style="fill:#FFFFFF;" d="M991.235,2522.288c176.452-34.581,285.116-208.727,288.441-214.136
							c0.044-0.089,0.089-0.133,0.089-0.133l76.522-523.592c0,0-142.403,15.251-257.938,101.704
							c-86.497,64.684-324.84,287.643-352.549,400.12c-1.641,6.606-2.926,13.212-3.902,19.817
							C723.011,2434.417,826.932,2554.519,991.235,2522.288z" />
						</g>
					</g>
				</g>
			</g>
			<g>
				<g>
					<g>
						<g>
							<path style="fill:#E8E8E8;" d="M1124.018,1868.352c55.463,49.743,124.713,89.689,203.052,116.024l29.217-199.949
							C1356.287,1784.427,1233.923,1797.55,1124.018,1868.352z" />
						</g>
					</g>
				</g>
			</g>
			<g>
				<g>
					<g>
						<g>
							<path style="fill:#E8E8E8;" d="M991.235,2522.288c176.452-34.581,285.116-208.727,288.441-214.136
							c-3.503,3.946-107.955,120.368-208.771,95.718c-53.512-13.079,34.98-118.861,2.482-168.117
							c-29.083-44.202-274.032-36.621-331.49,70.314C723.011,2434.417,826.932,2554.519,991.235,2522.288z" />
						</g>
					</g>
				</g>
			</g>
			<g>
				<g>
					<g>
						<g>
							<path style="fill:#371A45;"
								d="M1358.178,1802.053c-79.385,11.354-157.653,38.583-225.358,81.764
							c-40.734,26.965-77.235,60.01-113.628,92.942c-72.348,67.057-142.453,137.706-201.487,216.599
							c-27.841,38.903-54.602,77.566-58.162,124.971c-10.684,117.39,84.37,200.688,199.251,189.789
							c130.648-12.19,232.843-107.527,313.414-204.706c6.354-8.625,19.888-0.303,15.139,9.236
							c-23.644,45.988-56.434,85.893-93.723,121.385c-87.692,81.11-218.074,140.438-338.259,98.031
							c-101.262-36.28-154.679-148.25-127.69-250.875c31.681-108.228,183.51-253.108,267.197-331.058
							c37.743-33.898,75.857-68.051,118.672-96.087c43.371-27.916,91.014-49.259,140.106-64.501
							c33.09-10.297,66.206-18.275,100.753-22.756C1377.829,1764.862,1381.797,1798.859,1358.178,1802.053L1358.178,1802.053z" />
						</g>
					</g>
				</g>
			</g>
			<g>
				<g>
					<g>
						<g>
							<g>
								<path style="fill:#FFFFFF;" d="M2291.943,1295.998c-24.376,122.649-79.907,239.907-165.577,339.471
								c-17.48,20.294-36.128,39.832-56.041,58.514c-9.66,9.118-19.717,18.03-30.012,26.82
								c-31.165,26.322-63.849,49.701-97.768,70.185c-29.193,17.725-59.338,33.251-90.076,46.667
								c-37.114,16.22-75.216,29.271-113.87,39.28c-14.109,3.603-28.271,6.828-42.482,9.676
								c-260.248,51.571-539.875-33.093-724.301-245.597c-271.742-312.983-233.873-784.715,84.448-1053.646
								c61.346-51.753,128.634-92.354,199.25-121.656c8.22-3.503,16.577-6.783,24.988-9.885
								c22.443-8.449,45.16-15.802,68.093-22.043c53.043-14.418,107.253-22.97,161.526-25.777
								c54.255-2.865,108.714,0.037,162.215,8.607c17.013,2.714,33.933,5.982,50.778,9.862c25.237,5.828,50.183,12.86,74.836,21.293
								c122.833,41.637,236.309,115.102,326.811,219.389C2281.087,847.189,2334.923,1079.724,2291.943,1295.998z" />
							</g>
						</g>
					</g>
					<g>
						<g>
							<g>
								<path style="fill:#371A45;" d="M1546.554,1903.077c-219.296,0-430.897-93.601-576.082-260.895
								c-131.218-151.127-195.015-343.804-179.653-542.537c15.489-200.326,109.351-382.739,264.294-513.643
								c60.471-51.015,127.663-92.043,199.716-121.942c7.861-3.348,16.059-6.591,25.052-9.909
								c22.375-8.422,45.339-15.857,68.245-22.091c52.649-14.311,107.122-23.004,161.902-25.837
								c54.268-2.858,108.96,0.034,162.59,8.625c17.195,2.743,34.318,6.069,50.898,9.888c25.769,5.95,51.005,13.13,75.009,21.343
								c126.746,42.961,240.022,119.007,327.584,219.908c151.451,174.421,212.537,404.177,167.588,630.36l0,0
								c-24.925,125.39-82.319,243.058-165.979,340.285c-17.722,20.585-36.624,40.316-56.175,58.652
								c-8.905,8.41-18.741,17.203-30.07,26.878c-30.797,26.012-63.768,49.682-98.007,70.354
								c-28.651,17.395-59.028,33.135-90.283,46.775c-36.575,15.983-74.979,29.231-114.135,39.372
								c-14.045,3.587-28.368,6.849-42.579,9.697C1646.566,1898.247,1596.355,1903.077,1546.554,1903.077z M1550.597,408.724
								c-13.474,0-26.939,0.354-40.384,1.063c-54.526,2.819-108.746,11.473-161.151,25.715
								c-22.794,6.206-45.651,13.606-67.933,21.994c-8.949,3.302-17.098,6.525-24.92,9.856
								c-71.727,29.765-138.606,70.6-198.794,121.377C903.208,719.01,809.789,900.556,794.379,1099.921
								c-15.289,197.773,48.206,389.523,178.785,539.921c177.317,204.317,454.183,298.204,722.607,245.016
								c14.147-2.836,28.407-6.084,42.384-9.653c38.97-10.092,77.194-23.277,113.598-39.187
								c31.109-13.577,61.344-29.241,89.863-46.558c34.078-20.577,66.899-44.134,97.544-70.02
								c11.275-9.629,21.072-18.383,29.938-26.756c19.458-18.253,38.272-37.894,55.917-58.382
								c83.255-96.761,140.376-213.866,165.179-338.654c44.729-225.09-16.059-453.739-166.779-627.321
								c-87.152-100.426-199.892-176.108-326.038-218.87c-23.896-8.173-49.016-15.323-74.663-21.245
								c-16.503-3.799-33.547-7.11-50.664-9.839C1631.96,411.95,1591.259,408.724,1550.597,408.724z" />
							</g>
						</g>
					</g>
				</g>
				<g>
					<g>
						<g>
							<g>
								<path style="fill:#E8E8E8;" d="M971.815,1640.994c184.41,212.538,464.078,297.204,724.313,245.594
								c14.217-2.829,28.37-6.049,42.456-9.661c38.669-9.995,76.755-23.072,113.874-39.262
								c30.732-13.442,60.899-28.953,90.071-46.661c33.946-20.48,66.611-43.856,97.805-70.189
								c10.255-8.821,20.319-17.704,30.01-26.808c19.911-18.699,38.523-38.269,56.019-58.55
								c85.668-99.565,141.228-216.797,165.588-339.481c13.403-67.374,17.403-136.378,11.823-204.853
								c-25.963,116.534-80.286,227.589-162.012,322.582c-17.452,20.333-36.109,39.851-56.02,58.55
								c-9.642,9.108-19.706,17.992-30.01,26.808c-31.193,26.333-63.859,49.708-97.755,70.194
								c-29.221,17.704-59.339,33.218-90.071,46.66c-37.118,16.189-75.254,29.264-113.874,39.263
								c-14.135,3.606-28.287,6.826-42.505,9.656c-260.235,51.61-539.855-33.052-724.313-245.594
								c-107.639-123.958-166.642-272.829-178.938-424.095C758.893,1216.205,811.406,1456.27,971.815,1640.994z" />
							</g>
						</g>
					</g>
				</g>
				<g>
					<g>
						<g>
							<g>
								<path style="fill:#371A45;" d="M1546.573,1915.035c-222.734,0-437.666-95.084-585.138-265.013
								c-133.325-153.558-198.156-349.349-182.54-551.298c15.732-203.542,111.087-388.874,268.497-521.857
								c61.417-51.815,129.662-93.482,202.852-123.854c7.939-3.382,16.318-6.696,25.495-10.083
								c22.652-8.527,45.978-16.078,69.245-22.413c53.473-14.535,108.795-23.362,164.423-26.239
								c55.102-2.909,110.643,0.039,165.101,8.759c17.454,2.785,34.849,6.164,51.688,10.041c26.178,6.045,51.81,13.34,76.199,21.684
								c128.721,43.632,243.792,120.882,332.748,223.385c153.89,177.23,215.956,410.695,170.285,640.53l0,0
								c-25.325,127.409-83.641,246.969-168.642,345.757c-18.005,20.906-37.204,40.95-57.062,59.574
								c-9.022,8.52-19.005,17.444-30.489,27.249c-31.323,26.461-64.812,50.501-99.588,71.497
								c-29.085,17.659-59.94,33.645-91.677,47.499c-37.156,16.235-76.16,29.689-115.924,39.989
								c-14.284,3.648-28.812,6.957-43.227,9.846C1648.136,1910.131,1597.15,1915.035,1546.573,1915.035z M1550.597,420.685
								c-13.265,0-26.52,0.349-39.75,1.048c-53.693,2.775-107.063,11.292-158.649,25.313c-22.428,6.108-44.924,13.389-66.855,21.645
								c-8.837,3.263-16.805,6.413-24.447,9.666c-70.693,29.338-136.519,69.532-195.766,119.516
								c-151.739,128.194-243.66,306.821-258.827,502.97c-15.04,194.559,47.426,383.193,175.893,531.157
								c174.518,201.084,447.049,293.478,711.25,241.124c13.918-2.789,27.978-5.991,41.75-9.51
								c38.321-9.924,75.94-22.901,111.77-38.558c30.626-13.367,60.379-28.782,88.444-45.822
								c33.566-20.268,65.865-43.454,96.032-68.935c11.075-9.456,20.726-18.078,29.446-26.315
								c19.18-17.993,37.697-37.324,55.063-57.489c81.914-95.196,138.109-210.411,162.512-333.18
								c44.008-221.437-15.801-446.378-164.077-617.148c-85.762-98.827-196.712-173.301-320.849-215.383
								c-23.54-8.054-48.26-15.089-73.512-20.919c-16.23-3.736-33.006-6.996-49.855-9.683
								C1630.697,423.864,1590.625,420.685,1550.597,420.685z M2291.945,1295.997h0.049H2291.945z" />
							</g>
						</g>
					</g>
				</g>
				<g>
					<g>
						<g>
							<g>
								<path style="fill:#371A45;" d="M1546.578,1919.019c-223.9,0-439.909-95.564-588.152-266.383
								c-134.032-154.37-199.204-351.197-183.511-554.219c15.82-204.615,111.672-390.92,269.902-524.598
								c61.734-52.078,130.33-93.96,203.896-124.488c7.969-3.394,16.405-6.732,25.647-10.141
								c22.745-8.564,46.187-16.154,69.576-22.518c53.751-14.611,109.351-23.484,165.267-26.376
								c55.39-2.914,111.209,0.041,165.935,8.805c17.542,2.797,35.025,6.193,51.957,10.092c26.31,6.074,52.073,13.406,76.594,21.796
								c129.379,43.854,245.05,121.506,334.465,224.544c154.704,178.166,217.102,412.868,171.187,643.922l0,0
								c-25.461,128.082-84.084,248.274-169.534,347.581c-18.097,21.014-37.39,41.16-57.35,59.881
								c-9.061,8.556-19.097,17.524-30.631,27.373c-31.499,26.61-65.163,50.771-100.114,71.878
								c-29.226,17.744-60.242,33.815-92.146,47.741c-37.346,16.318-76.55,29.843-116.519,40.194
								c-14.362,3.667-28.963,6.993-43.442,9.895C1648.672,1914.089,1597.399,1919.019,1546.578,1919.019z M1550.597,424.671
								c-13.191,0-26.378,0.349-39.54,1.044c-53.415,2.763-106.503,11.233-157.81,25.178c-22.311,6.074-44.685,13.318-66.499,21.531
								c-8.798,3.245-16.708,6.374-24.286,9.6c-70.351,29.195-135.826,69.176-194.761,118.897
								C916.784,728.418,825.361,906.071,810.282,1101.15c-14.962,193.486,47.163,381.084,174.928,528.236
								c173.577,200.004,444.644,291.911,707.46,239.827c13.845-2.775,27.831-5.959,41.54-9.463
								c38.107-9.866,75.521-22.774,111.16-38.346c30.465-13.296,60.057-28.629,87.971-45.578
								c33.396-20.163,65.523-43.227,95.525-68.572c11.012-9.4,20.609-17.978,29.28-26.166
								c19.092-17.907,37.507-37.136,54.785-57.194c81.456-94.669,137.348-209.267,161.619-331.356l0,0
								c43.764-220.218-15.713-443.925-163.18-613.757c-85.299-98.293-195.644-172.367-319.113-214.219
								c-23.423-8.015-48.011-15.01-73.131-20.811c-16.142-3.716-32.825-6.957-49.587-9.629
								C1630.277,427.834,1590.415,424.671,1550.597,424.671z M2291.945,1295.997h0.049H2291.945z" />
							</g>
						</g>
					</g>
				</g>
				<g>
					<g>
						<g>
							<g>
								<path style="fill:#371A45;" d="M2230.451,1477.815c-331.294,423.579-973.775,395.098-1163.891-98.861
								c-129.344-336.06,104.978-721.475,440.744-824.358c244.376-74.88,515.826-42.7,736.125,299.059
								c0,0,73.773,166.217,62.747,295.602s-43.895,253.457-43.895,253.457L2230.451,1477.815z" />
							</g>
						</g>
					</g>
				</g>
				<g>
					<g>
						<g>
							<g>
								<path style="fill:#220F2D;" d="M1066.581,1378.952c190.1,493.95,832.592,522.421,1163.88,98.88l6.438-15.231
								c-440.327,227.129-992.236,96.811-1193.89-399.058C1021.359,1166.846,1026.683,1275.239,1066.581,1378.952z" />
							</g>
						</g>
					</g>
				</g>
				<g>
					<g>
						<g>
							<g>
								<path style="fill:#371A45;" d="M1639.733,1868.779c-101.416,0-200.901-19.609-291.691-58.864
								c-172.641-74.638-301.484-211.73-372.606-396.45c-65.304-169.659-53.834-360.538,32.294-537.478
								c95.676-196.549,273.043-350.736,474.456-412.453c111.93-34.296,218.901-45.522,317.923-33.369l1.809,0.222l1.721,0.585
								c129.428,43.871,245.099,121.523,334.514,224.561c154.704,178.166,217.102,412.868,171.187,643.922l0,0
								c-25.461,128.082-84.084,248.274-169.534,347.581c-18.097,21.014-37.39,41.16-57.35,59.881
								c-9.061,8.556-19.097,17.524-30.631,27.373c-31.499,26.61-65.163,50.771-100.114,71.878l-2.472,1.241
								C1848.915,1848.309,1743.32,1868.779,1639.733,1868.779z M1721.194,460.888c-72.624,0-149.213,12.226-228.62,36.558
								c-192.177,58.886-361.506,206.2-452.954,394.066c-81.773,167.996-92.814,348.836-31.079,509.21
								c67.616,175.628,189.88,305.865,353.577,376.639c174.445,75.418,383.017,74.57,572.448-2.273
								c32.932-19.973,64.656-42.788,94.301-67.833c11.012-9.4,20.609-17.978,29.28-26.166
								c19.092-17.907,37.507-37.136,54.785-57.194c81.456-94.669,137.348-209.267,161.619-331.356l0,0
								c43.764-220.218-15.713-443.925-163.18-613.757c-84.904-97.837-194.61-171.675-317.387-213.632
								C1770.215,462.307,1745.929,460.888,1721.194,460.888z M2291.945,1295.997h0.049H2291.945z" />
							</g>
						</g>
					</g>
				</g>
				<g>
					<g>
						<g>
							<g>
								<path style="fill:#371A45;" d="M1643.927,1789.216c-33.776,0-67.611-2.465-101.314-7.495
								c-227.279-33.925-405.894-178.766-490.037-397.384c-58.013-150.737-47.816-320.33,28.714-477.54
								c85.026-174.662,242.641-311.678,421.626-366.522c308.272-94.469,561.651,8.254,753.106,305.265l1.102,2.041
								c3.077,6.93,75.199,171.246,63.978,302.949c-11.012,129.194-44.008,254.767-44.339,256.02l-0.693,2.012l-32.601,76.923
								l-1.219,1.561C2092.263,1678.814,1869.846,1789.216,1643.927,1789.216z M1713.557,536.633
								c-64.26,0-131.564,10.748-201.862,32.286c-171.182,52.454-322.01,183.664-403.465,350.992
								c-72.853,149.654-82.685,310.769-27.69,453.661c80.159,208.263,250.19,346.227,466.497,378.514
								c247.913,37.002,504.574-71.015,670.397-281.95l30.626-72.261c3.111-12.036,32.923-129.443,43.188-249.893
								c10.124-118.814-55-273.169-61.066-287.229C2090.834,645.096,1917.623,536.633,1713.557,536.633z M2230.45,1477.815h0.049
								H2230.45z" />
							</g>
						</g>
					</g>
				</g>
				<g>
					<g>
						<g>
							<g>
								<path style="fill:#FFFFFF;" d="M735.824,1447.462c35.771,142.986,151.453,241.758,258.411,220.581
								s164.658-154.266,128.886-297.252c-0.207-0.9-0.47-1.844-0.728-2.738c-36.525-141.513-151.479-238.881-257.683-217.843
								c-82.627,16.354-135.853,99.504-139.32,202.392C724.386,1382.894,727.691,1414.945,735.824,1447.462z" />
							</g>
						</g>
					</g>
				</g>
				<g>
					<g>
						<g>
							<g>
								<path style="fill:#E8E8E8;" d="M735.824,1447.462c35.771,142.986,151.453,241.758,258.411,220.581
								s164.658-154.266,128.886-297.252c-0.207-0.9-0.47-1.844-0.728-2.738c-8.088,17.001-22.774,35.074-48.788,35.114
								c-45.566,0.049-146.505-76.467-146.505-76.467s-87.547,10.663-201.71,25.901
								C724.386,1382.894,727.691,1414.945,735.824,1447.462z" />
							</g>
						</g>
					</g>
				</g>
				<g>
					<g>
						<g>
							<g>
								<path style="fill:#371A45;" d="M965.337,1688.58c-105.991,0.012-212.269-99.068-246.737-236.808l0,0
								c-21.931-87.652-11.46-174.272,28.724-237.65c27.865-43.949,67.26-72.063,113.92-81.302
								c115.861-22.957,241.1,81.865,279.075,233.653c21.926,87.657,11.455,174.277-28.729,237.655
								c-27.865,43.947-67.255,72.061-113.915,81.297C986.96,1687.548,976.139,1688.577,965.337,1688.58z M894.215,1165.069
								c-8.734,0-17.434,0.829-26.086,2.541c-36.897,7.308-68.313,29.958-90.848,65.504
								c-34.498,54.402-43.568,132.925-24.271,210.05l0,0c30.489,121.893,121.815,210.004,211.689,210.011
								c8.734,0.002,17.439-0.829,26.09-2.541c36.892-7.305,68.308-29.955,90.848-65.499
								c34.493-54.402,43.569-132.927,24.272-210.055C1075.419,1253.189,984.093,1165.069,894.215,1165.069z" />
							</g>
						</g>
					</g>
				</g>
				<g>
					<g>
						<g>
							<g>

								<ellipse transform="matrix(0.9545 -0.2982 0.2982 0.9545 -389.9537 325.2524)" style="fill:#FFFFFF;"
									cx="871.08" cy="1440.75" rx="148.571" ry="217.958" />
							</g>
						</g>
					</g>
				</g>
				<g>
					<g>
						<g>
							<g>
								<path style="fill:#E8E8E8;" d="M924.747,1651.624c-80.931,15.374-170.506-66.577-200.143-183.074
								c-3.244-12.639-5.576-25.188-7.17-37.487c41.376,74.981,109.369,120.797,172.268,108.786
								c71.027-13.571,112.253-96.522,102.199-194.593c10.724,20.684,19.493,43.433,25.673,67.653
								C1047.211,1529.407,1005.631,1636.254,924.747,1651.624z" />
							</g>
						</g>
					</g>
				</g>
				<g>
					<g>
						<g>
							<g>
								<path style="fill:#371A45;"
									d="M905.407,1671.167c-83.221,0-168.803-83.482-197.995-198.229l0,0
								c-18.892-74.26-10.768-149.059,21.726-200.092c20.975-32.94,50.362-53.824,84.991-60.401
								c89.8-17.059,188.773,70.929,220.618,196.115c18.892,74.26,10.768,149.059-21.726,200.092
								c-20.975,32.94-50.362,53.824-84.991,60.401C920.539,1670.477,912.985,1671.167,905.407,1671.167z M741.783,1464.195
								c27.315,107.363,107.824,183.608,179.634,170.015c24.769-4.703,46.1-20.129,61.686-44.605
								c27.339-42.935,33.796-107.346,17.273-172.299c-27.319-107.368-107.888-183.613-179.634-170.015
								c-24.769,4.703-46.1,20.129-61.685,44.605C731.718,1334.83,725.261,1399.242,741.783,1464.195L741.783,1464.195z" />
							</g>
						</g>
					</g>
				</g>
				<g style="opacity:0.5;">
					<g>
						<g>
							<g>
								<path style="fill:#FFFFFF;" d="M1373.538,738.759c0,0,311.019-113.54,546.861,15.703c0.248,0.136,0.496,0.272,0.743,0.408
								c49.613,27.243,110.535,101.794,139.29,150.071c38.027,63.845,54.727,113.365,67.721,157.525
								c39.456,134.318,32.433,204.62,32.433,204.62c56.721-93.353,76.763-186.532,45.025-298.736
								c-3.158-11.052-6.83-22.334-10.969-33.794c-0.944-2.644-1.94-5.243-2.984-7.848c0.052-0.043,0.008-0.094-0.085-0.148
								c-10.042-22.626-24.378-51.864-43.349-83.503c-57.156-95.458-156.192-212.903-305.97-237.449
								C1562.195,559.708,1358.184,727.973,1373.538,738.759z" />
							</g>
						</g>
					</g>
				</g>
				<g style="opacity:0.5;">
					<g>
						<g>
							<g>

								<ellipse transform="matrix(0.9999 -0.012 0.012 0.9999 -13.9432 15.0549)" style="fill:#FFFFFF;"
									cx="1246.722" cy="1168.646" rx="101.311" ry="116.375" />
							</g>
						</g>
					</g>
				</g>
				<g style="opacity:0.5;">
					<g>
						<g>
							<g>

								<ellipse transform="matrix(0.081 -0.9967 0.9967 0.081 -225.7328 2515.2649)" style="fill:#FFFFFF;"
									cx="1251.061" cy="1380.038" rx="48.073" ry="41.819" />
							</g>
						</g>
					</g>
				</g>
			</g>
			<g>
				<g>
					<g>
						<g>
							<path style="fill:#371A45;" d="M2498.25,2194.744c-1.536,0-3.097-0.2-4.652-0.619
							c-91.653-24.866-154.958-100.451-183.067-218.587c-20.663-86.832-15.22-165.374-14.981-168.676
							c0.717-9.766,9.202-17.081,18.975-16.388c9.763,0.71,17.103,9.205,16.4,18.968c-0.214,2.98-19.282,298.565,171.958,350.448
							c9.451,2.565,15.035,12.309,12.475,21.76C2513.212,2189.55,2506.058,2194.744,2498.25,2194.744z" />
						</g>
					</g>
				</g>
			</g>
			<g>
				<g>
					<g>
						<g>
							<path style="fill:#371A45;" d="M934.721,2545.297c-9.124,0-16.878-6.998-17.654-16.254
							c-0.819-9.758,6.432-18.336,16.191-19.156c71.21-5.969,122.713-31.538,153.09-75.989
							c60.062-87.893,20.985-223.051,20.585-224.407c-2.785-9.383,2.56-19.258,11.943-22.048c9.373-2.79,19.248,2.541,22.048,11.919
							c1.843,6.174,44.349,152.432-25.193,254.399c-36.678,53.785-97.071,84.557-179.507,91.472
							C935.721,2545.272,935.218,2545.297,934.721,2545.297z" />
						</g>
					</g>
				</g>
			</g>
			<g>
				<g>
					<g>
						<g>
							<path style="fill:#FFFFFF;" d="M685.548,2226.044c10.774-3.414,22.611-9.31,35.158-18.044
							c-1.374,71.867,49.877,106.713,119.393,115.314h160.934c0,0,137.57-46.551,149.585-166.61
							c0.089-0.532,0.133-1.108,0.177-1.685c9.31-103.034-86.231-138.28-115.27-146.526c-5.187-1.507-8.246-2.128-8.246-2.128
							s-11.882-15.739-30.103-37.197c-37.684-44.157-102.502-112.344-146.836-116.644c-63.487-6.207-69.517,45-43.536,91.329
							c3.37,6.03,7.315,11.97,11.704,17.69c-1.507,0.133-3.014,0.31-4.567,0.443c-52.181,5.409-134.51,22.921-123.206,87.782
							c0.133,0.798,0.266,1.64,0.443,2.483c4.212,20.482,19.507,28.773,38.882,31.566c-24.872,8.867-44.955,19.418-60.827,30.724
							C589.565,2171.379,617.052,2247.812,685.548,2226.044z" />
						</g>
					</g>
				</g>
			</g>
			<g>
				<g>
					<g>
						<g>
							<path style="fill:#E8E8E8;" d="M685.548,2226.044c10.774-3.414,22.611-9.31,35.158-18.044
							c-1.374,71.867,49.877,106.713,119.393,115.314h160.934c0,0,137.57-46.551,149.585-166.61
							c-28.995,14.542-66.281,22.301-107.733,4.567c-73.551-31.433-26.379-101.571-7.36-152.777
							c-5.187-1.507-8.246-2.128-8.246-2.128s-11.882-15.739-30.103-37.197c-22.167,20.483-55.019,40.078-97.225,35.823
							c-55.418-5.586-95.054-66.99-99.177-73.551c0.843,1.552,3.192,6.074,6.03,12.414c2.261,5.054,4.788,11.261,7.137,18.133
							c7.981,23.231,13.522,53.867-3.458,71.024c-23.852,24.118-86.009,19.596-119.748,16.758c0.133,0.798,0.266,1.64,0.443,2.483
							c4.212,20.482,19.507,28.773,38.882,31.566c-24.872,8.867-44.955,19.418-60.827,30.724
							C675.484,2153.557,687.898,2197.448,685.548,2226.044z" />
						</g>
					</g>
				</g>
			</g>
			<g>
				<g>
					<g>
						<g>
							<path style="fill:#371A45;" d="M998.21,2314.934c45.976-26.075,90.492-57.785,116.142-103.836
							c45.612-90.307,0.711-162.28-92.258-187.806c-3.784-0.999-6.893-3.3-8.973-6.272c-19.407-25.205-40.652-50.117-62.739-73.27
							c-21.616-22.381-45.086-44.901-71.105-61.16c-16.119-10.785-36.768-16.568-55.037-10.426
							c-29.887,12.335-5.991,60.603,8.331,78.56c8.633,10.605,1.052,27.534-12.399,28.47c-18.529,1.766-36.863,4.538-54.138,9.223
							c-29.192,8.184-63.699,22.904-57.984,57.154c1.076,7.577,3.014,11.098,6.633,14.179c3.582,3.053,10.068,5.442,17.9,6.501
							c9.688,1.309,16.481,10.225,15.171,19.914c-0.925,6.833-5.629,12.235-11.733,14.352c-21.428,7.67-41.925,17.57-59.372,30.552
							c-16.066,12.04-31.266,28.218-36.673,47.035c-4.287,15.83-0.277,30.275,16.498,33.451c18.07,2.949,38.45-7.291,54.076-18.087
							c11.395-8.391,28.457,0.979,27.873,14.883c1.909,64.105,46.868,89.471,102.912,106.225c9.501,2.895,7.514,17.232-2.32,17.555
							c-74.388,3.925-142.754-44.513-136.054-124.448c-0.001,0.001,27.87,14.883,27.87,14.883
							c-28.779,20.195-70.946,36.804-104.347,14.167c-36.253-25.461-25.474-77.354-0.432-106.126
							c25.162-31.031,61.913-50.472,98.091-63.51c0,0,3.441,34.265,3.441,34.265c-17.249-1.586-41.059-12.683-49.037-31.484
							c-13.75-29.004-5.594-66.951,19.3-86.998c33.402-27.751,77.844-34.458,119.018-39.001c0,0.001-12.401,28.469-12.401,28.469
							c-30.517-37.248-50.459-111.359,7.614-133.503c29.463-10.239,60.713-2.754,85.729,13.5
							c57.597,37.677,101.234,90.089,143.65,143.334c-0.001,0.001-10.632-6.707-10.632-6.707c5.825,1.111,10.108,2.301,15.501,3.816
							c81.722,23.685,138.298,89.563,121.69,177.826c-8.833,51.153-41.42,95.772-83.6,124.823
							c-24.533,16.936-51.297,29.676-80.512,36.293c-4.818,1.022-9.554-2.053-10.578-6.873
							C992.432,2320.715,994.595,2316.701,998.21,2314.934L998.21,2314.934z" />
						</g>
					</g>
				</g>
			</g>
			<g>
				<g>
					<g>
						<g>
							<path style="fill:#371A45;" d="M893.905,2054.92c-34.692-21.824-67.208-48.108-89.696-82.905
							c-10.554-18.347,13.731-36.432,28.279-21.321c12.945,13.836,25.499,28.861,37.643,43.796
							c12.274,15.265,24.741,30.753,35.905,47.52C911.428,2049.815,901.909,2059.793,893.905,2054.92L893.905,2054.92z" />
						</g>
					</g>
				</g>
			</g>
			<g>
				<g>
					<g>
						<g>
							<path style="fill:#FFFFFF;" d="M730.082,2083.807c0,0-37.204,74.657,3.042,119.975c20.199,22.744,65.317,14.604,81.977-15.496
							c22.577-40.791,10.97-90.547,17.365-105.762" />
						</g>
					</g>
				</g>
			</g>
			<g>
				<g>
					<g>
						<g>
							<path style="fill:#E8E8E8;" d="M723.41,2189.645c2.527,4.921,5.764,9.665,9.709,14.143
							c20.217,22.744,65.305,14.586,81.975-15.517c22.567-40.788,10.995-90.531,17.379-105.738l-32.009,0.399
							c-0.133,22.167-0.221,52.802-15.029,79.58C773.109,2184.768,745.267,2195.01,723.41,2189.645z" />
						</g>
					</g>
				</g>
			</g>
			<g>
				<g>
					<g>
						<g>
							<path style="fill:#371A45;" d="M764.87,2234.572c-17.995,0-34.088-6.72-45.007-19.014
							c-47.65-53.658-7.388-136.173-5.652-139.659c4.37-8.768,15.015-12.323,23.784-7.964c8.754,4.365,12.323,14.991,7.978,23.75
							l0,0c-0.317,0.644-31.294,64.621,0.41,100.319c4.823,5.428,13.123,7.915,22.833,6.857
							c12.987-1.439,24.627-8.783,30.367-19.161c12.553-22.677,12.699-49.347,12.816-70.781c0.078-13.821,0.136-24.74,3.716-33.269
							c3.794-9.022,14.186-13.289,23.223-9.475c9.027,3.794,13.27,14.186,9.475,23.218c-0.853,2.599-0.907,12.494-0.946,19.721
							c-0.127,22.76-0.312,57.16-17.249,87.761c-11.226,20.282-33.259,34.552-57.496,37.234
							C770.337,2234.416,767.581,2234.572,764.87,2234.572z" />
						</g>
					</g>
				</g>
			</g>
			<g>
				<g>
					<g>
						<g>
							<path style="fill:#371A45;" d="M855.31,2095.618c-16.177,0.331-29.638-4.925-44.063-6.35c-0.054,0.223,0.98-0.021-0.132,0.286
							c-1.744,0.503-8.137,2.523-9.983,3.102c-22.229,7.498-48.098,12.786-72.324,8.839c-9.707-1.494-16.364-10.576-14.869-20.283
							c1.339-8.765,8.882-14.997,17.417-15.092c9.617-0.491,19.148-1.493,28.912-3.247c16.993-2.285,34.764-10.446,52.868-10.317
							c20.084,2.725,36.737,12.201,50.018,27.158C868.742,2085.84,863.451,2096.291,855.31,2095.618L855.31,2095.618z" />
						</g>
					</g>
				</g>
			</g>
			<g>
				<g>
					<g>
						<g>
							<g>
								<path style="fill:#FFFFFF;" d="M1122.55,2144.184c-3.36,30.661-32.341,86.725-78.867,86.24
								c-64.733-0.674-64.077-76.7-17.489-153.708" />
							</g>
						</g>
					</g>
				</g>
				<g>
					<g>
						<g>
							<g>
								<path style="fill:#371A45;" d="M1131.364,2145.149c-1.395,44.7-30.284,93.951-77.875,101.832
								c-37.644,5.785-72.132-16.582-76.645-55.377c-4.985-44.447,15.859-86.604,41.763-119.479
								c6.531-8.017,19.26-0.223,15.174,9.181c-9.902,23.875-18.563,47.847-22.289,71.48c-2.681,18.83-3.631,43.638,11.74,54.611
								c16.54,9.848,37.321,6.612,52.783-6.078c17.367-14.019,31.236-36.472,37.722-58.102
								C1116.13,2132.986,1131.305,2134.719,1131.364,2145.149L1131.364,2145.149z" />
							</g>
						</g>
					</g>
				</g>
			</g>
			<g>
				<g>
					<g>
						<g>
							<path style="fill:#FFFFFF;" d="M1541.476,2417.996c0,0-208.5,43.717-328.366,20.396c0,0-89.092,65.031,10.368,135.068
							c185.94,41.977,346.776-15.225,346.776-15.225L1541.476,2417.996z" />
						</g>
					</g>
				</g>
			</g>
			<g>
				<g>
					<g>
						<g>
							<path style="fill:#FFFFFF;" d="M1223.461,2573.45c185.939,41.985,346.785-15.207,346.785-15.207l-12.325-60.029
							l-16.448-80.201c0,0-162.221,34.005-282.766,26.024c-16.094-1.064-31.433-2.882-45.576-5.63
							C1213.13,2438.407,1124.018,2503.401,1223.461,2573.45z" />
						</g>
					</g>
				</g>
			</g>
			<g>
				<g>
					<g>
						<g>
							<path style="fill:#E8E8E8;" d="M1223.461,2573.45c185.939,41.985,346.785-15.207,346.785-15.207l-12.325-60.029
							c-63.66,19.78-193.903,39.11-259.385,19.78c-39.946-11.838-46.701-46.825-39.829-73.957
							c-16.094-1.064-31.433-2.882-45.576-5.63C1213.13,2438.407,1124.018,2503.401,1223.461,2573.45z" />
						</g>
					</g>
				</g>
			</g>
			<g>
				<g>
					<g>
						<g>
							<path style="fill:#371A45;" d="M1365.871,2606.705c-44.958,0-94.574-4.267-146.302-15.947
							c-2.263-0.512-4.404-1.463-6.306-2.799c-35.956-25.32-54.322-53.732-54.58-84.436c-0.395-46.534,42.159-78.13,43.969-79.452
							c3.979-2.906,9.002-4.013,13.84-3.087c114.944,22.369,319.293-19.917,321.346-20.346c4.618-0.961,9.427-0.054,13.372,2.531
							c3.94,2.59,6.691,6.642,7.637,11.26l28.777,140.24c1.78,8.661-3.097,17.312-11.426,20.272
							C1571.288,2576.688,1485.01,2606.705,1365.871,2606.705z M1230.869,2556.938c145.443,31.889,276.032,1.317,318.781-10.895
							l-22.009-107.254c-51.942,9.768-206.392,35.576-309.462,18.531c-8.559,7.949-24.286,25.393-24.028,46.056
							C1194.372,2521.264,1206.72,2539.274,1230.869,2556.938z" />
						</g>
					</g>
				</g>
			</g>
			<g>
				<g>
					<g>
						<g>
							<path style="fill:#FFFFFF;" d="M2087.878,2491.506c0,0,66.883-4.03,117.418-49.951s39.947-137.347-21.135-158.286
							c0,0-96.282,33.759-175.804,41.519C1968.21,2328.706,2087.878,2491.506,2087.878,2491.506z" />
						</g>
					</g>
				</g>
			</g>
			<g>
				<g>
					<g>
						<g>
							<path style="fill:#E8E8E8;" d="M2087.897,2491.519c0,0,66.856-4.034,117.398-49.965
							c32.586-29.615,39.768-78.117,24.384-114.472c-5.187,22.478-17.734,43.714-37.551,58.256
							c-55.02,40.433-121.965,37.463-121.965,37.463s-30.458-52.004-51.517-99.177c-3.458,0.443-6.872,0.843-10.285,1.153
							C1968.193,2328.723,2087.897,2491.519,2087.897,2491.519z" />
						</g>
					</g>
				</g>
			</g>
			<g>
				<g>
					<g>
						<g>
							<path style="fill:#371A45;" d="M2087.879,2509.238c-5.623,0-10.934-2.667-14.289-7.227
							c-1.024-1.395-25.393-34.61-48.684-71.81c-45.193-72.2-45.905-94.521-39.935-107.887c3.872-8.681,11.767-14.211,21.662-15.177
							c76.408-7.457,170.719-40.272,171.66-40.604c3.755-1.312,7.852-1.331,11.616-0.039c31.821,10.904,55.273,38.984,62.734,75.111
							c8.676,42.008-4.896,85.333-35.419,113.072c-54.531,49.557-125.293,54.351-128.277,54.531
							C2088.586,2509.229,2088.23,2509.238,2087.879,2509.238z M2018.674,2341.509c5.901,22.882,41.55,81.314,77.423,131.15
							c18.878-2.936,62.744-12.845,97.271-44.227c20.97-19.053,30.601-50.318,24.544-79.646
							c-4.526-21.911-16.859-38.599-34.22-46.621C2161.552,2309.576,2086.411,2333.555,2018.674,2341.509z" />
						</g>
					</g>
				</g>
			</g>
			<g>
				<g>
					<g>
						<g>
							<g>
								<path style="fill:#FFFFFF;"
									d="M2690.915,1648.901c0,0,88.475-28.754,127.183,29.86
								c38.708,58.615,19.367,139.948-31.726,151.97c-56.403,13.271-76.303-34.038-64.416-75.107c0,0-74.173,89.581-137.212,72.439" />
							</g>
						</g>
					</g>
				</g>
				<g>
					<g>
						<g>
							<g>
								<path style="fill:#371A45;"
									d="M2688.175,1640.469c46.185-25.661,112.344-19.723,144.456,26.497
								c45.388,60.06,31.404,179.906-58.565,185.403c-57.537,4.596-85.847-51.71-69.143-101.675
								c-0.001,0.001,30.693,16.241,30.693,16.241l-0.012,0.014c-32.07,41.857-98.124,90.312-153.185,69.672
								c-9.582-4.039-5.61-18.518,4.652-17.114c37.345,2.496,67.77-25.239,94.006-48.842c8.007-7.472,19.298-18.534,27.219-26.35
								c4.74-8.227,15.257-11.05,23.481-6.307c8.219,4.641,10.226,14.336,7.212,22.546c-4.419,19.357-2.24,41.597,15.086,50.251
								c16.581,6.58,39.424,0.726,50.23-14.876c21.906-30.103,17.912-77.089-2.482-107.792
								c-22.875-34.391-70.282-31.127-108.17-30.806C2683.919,1658.44,2679.683,1645.157,2688.175,1640.469L2688.175,1640.469z" />
							</g>
						</g>
					</g>
				</g>
			</g>
			<g>
				<g>
					<g>
						<g>
							<line style="fill:#FFFFFF;" x1="937.847" y1="2029.37" x2="937.847" y2="3180.84" />
						</g>
					</g>
				</g>
				<g>
					<g>
						<g>
							<path style="fill:#371A45;" d="M937.847,3194.139c-7.344,0-13.299-5.955-13.299-13.299V2029.37
							c0-7.344,5.955-13.299,13.299-13.299c7.344,0,13.299,5.954,13.299,13.299V3180.84
							C951.146,3188.185,945.191,3194.139,937.847,3194.139z" />
						</g>
					</g>
				</g>
			</g>
			<g>
				<g>
					<g>
						<g>
							<path style="fill:#371A45;" d="M919.784,2043.073c-15.84,0-33.601-2.96-53.327-10.27c-6.886-2.551-10.402-10.202-7.847-17.093
							c2.546-6.891,10.192-10.407,17.093-7.847c82.056,30.396,119.675-29.619,121.23-32.189c3.799-6.254,11.953-8.293,18.239-4.521
							c6.271,3.772,8.334,11.877,4.594,18.171C1019.371,1989.99,986.848,2043.073,919.784,2043.073z" />
						</g>
					</g>
				</g>
			</g>
			<g>
				<g>
					<g>
						<g>
							<g>
								<path style="fill:#FFFFFF;" d="M2743.797,1714.511c0,0-11.13,17.01-22.261,42.639" />
							</g>
						</g>
					</g>
				</g>
				<g>
					<g>
						<g>
							<g>
								<path style="fill:#371A45;"
									d="M2751.217,1719.366c-5.543,14.414-10.057,29.784-13.414,44.849
								c-7.978,27.232-46.698,10.872-32.732-13.835c7.151-10.795,14.701-21.082,22.908-31.003
								c5.207-5.845,12.136-17.901,21.063-10.366C2752.025,1711.696,2752.746,1715.894,2751.217,1719.366L2751.217,1719.366z" />
							</g>
						</g>
					</g>
				</g>
			</g>
			<g>
				<g>
					<g>
						<g>
							<g>
								<path style="fill:#FFFFFF;" d="M1510.794,2383.452l37.158,233.937c6.896,43.415,46.737,73.5,88.494,66.867l414.822-65.889
								c41.804-6.64,70.315-47.582,63.419-90.997l-37.158-233.937c-6.888-43.366-46.681-73.458-88.486-66.818l-414.822,65.889
								c-33.359,5.299-58.311,32.511-63.471,65.372C1509.477,2366.126,1509.409,2374.731,1510.794,2383.452z" />
							</g>
						</g>
					</g>
				</g>
				<g>
					<g>
						<g>
							<g>
								<path style="fill:#E2E2E2;" d="M1510.794,2383.452l37.158,233.937c6.896,43.415,46.737,73.5,88.494,66.867l414.822-65.889
								c41.804-6.64,70.315-47.582,63.419-90.997l-12.506-78.738c-65.036,52.505-197.013,136.806-347.411,108.435
								c-73.475-13.88-166.744-86.624-166.744-86.624s11.163,90.099-1.863,90.718c-36.22,1.721-64.755-179.63-75.412-203.285
								C1509.477,2366.126,1509.409,2374.731,1510.794,2383.452z" />
							</g>
						</g>
					</g>
				</g>
				<g>
					<g>
						<g>
							<g>
								<path style="fill:#371944;" d="M1616.54,2704.283c-41.169,0-77.496-29.972-84.153-71.893l-41.033-258.349
								c-7.378-46.427,24.393-90.205,70.825-97.578l433.374-68.835c22.394-3.58,44.934,1.863,63.407,15.274
								c18.478,13.406,30.611,33.142,34.166,55.56l41.038,258.344c3.56,22.418-1.863,44.934-15.274,63.407
								c-13.406,18.478-33.142,30.611-55.561,34.166l-433.364,68.835C1625.459,2703.932,1620.968,2704.283,1616.54,2704.283z
								 M2008.93,2242.038c-2.599,0-5.208,0.205-7.818,0.615l-433.369,68.835c-27.115,4.311-45.67,29.875-41.364,56.989
								l41.033,258.349c4.311,27.115,29.855,45.627,56.989,41.365h0.005l433.365-68.835c13.06-2.077,24.574-9.168,32.42-19.975
								c7.842-10.807,11.021-23.949,8.949-37.014l-41.038-258.344c-2.077-13.06-9.168-24.574-19.975-32.42
								C2029.48,2245.325,2019.332,2242.038,2008.93,2242.038z" />
							</g>
						</g>
					</g>
				</g>
				<g>
					<g>
						<g>
							<g>

								<ellipse transform="matrix(0.9876 -0.1569 0.1569 0.9876 -368.2457 292.0266)" style="fill:#22A7F0;"
									cx="1665.798" cy="2478.765" rx="66.328" ry="68.884" />
							</g>
						</g>
					</g>
				</g>
				<g>
					<g>
						<g>
							<g>
								<path style="fill:#FFFFFF;" d="M1600.279,2489.193c0.736,4.635,1.881,9.069,3.432,13.3
								c1.103-32.115,23.859-59.765,55.574-64.803c31.715-5.038,61.918,14.2,72.875,44.401c0.165-4.504-0.121-9.074-0.857-13.709
								c-5.968-37.573-40.122-63.403-76.301-57.656C1618.824,2416.472,1594.311,2451.62,1600.279,2489.193z" />
							</g>
						</g>
					</g>
				</g>
				<g>
					<g>
						<g>
							<g>
								<path style="fill:#1C7AEA;" d="M1600.291,2489.156c5.972,37.601,40.152,63.368,76.311,57.625
								c36.159-5.743,60.672-40.833,54.7-78.434c-1.001-6.299-2.818-12.32-5.273-17.841c-3.142,29.907-25.175,55.017-55.222,59.789
								c-30.046,4.772-58.775-12.274-71.03-39.736C1599.153,2476.57,1599.291,2482.857,1600.291,2489.156z" />
							</g>
						</g>
					</g>
				</g>
				<g>
					<g>
						<g>
							<g>
								<path style="fill:#371944;" d="M1666.394,2560.907c-16.893,0-33.337-5.53-47.29-16.064
								c-17.176-12.967-28.519-32.001-31.952-53.585l0,0c-7.1-44.759,22.394-86.776,65.753-93.662
								c21.136-3.331,42.266,2.014,59.589,15.094c17.176,12.967,28.519,32.001,31.947,53.585
								c3.428,21.584-1.463,43.193-13.772,60.847c-12.421,17.805-30.879,29.46-51.976,32.811
								C1674.587,2560.581,1670.476,2560.907,1666.394,2560.907z M1613.428,2487.083c2.341,14.757,10.051,27.729,21.706,36.531
								c11.504,8.68,25.476,12.26,39.384,10.041c13.894-2.204,26.085-9.929,34.332-21.75c8.354-11.977,11.66-26.7,9.315-41.457
								c-2.341-14.757-10.046-27.734-21.701-36.531c-11.499-8.685-25.491-12.26-39.384-10.046
								C1628.205,2428.456,1608.62,2456.814,1613.428,2487.083L1613.428,2487.083z" />
							</g>
						</g>
					</g>
				</g>
				<g>
					<g>
						<g>
							<g>
								<path style="fill:#371944;" d="M1904.222,2659.431c-8.568,0-16.108-6.223-17.493-14.957l-19.019-119.733
								c-5.53-34.82,5.228-70.712,28.773-96.008l9.232-9.909c16.166-17.366,23.535-42.145,19.702-66.27l-17.946-112.984
								c-1.536-9.67,5.057-18.756,14.733-20.292c9.69-1.556,18.761,5.057,20.292,14.733l17.946,112.979
								c5.535,34.82-5.218,70.708-28.768,96.008l-9.232,9.909c-16.166,17.366-23.535,42.145-19.707,66.274l19.019,119.733
								c1.536,9.67-5.057,18.756-14.733,20.292C1906.08,2659.358,1905.144,2659.431,1904.222,2659.431z" />
							</g>
						</g>
					</g>
				</g>
			</g>
			<g>
				<g>
					<g>
						<g>
							<g>
								<path style="fill:#371A45;" d="M3394.18,3351.197c59.397-60.585,74.463-117.102,56.381-199.645
								C3511.587,3216.135,3480.329,3328.441,3394.18,3351.197L3394.18,3351.197z" />
							</g>
						</g>
					</g>
				</g>
				<g>
					<g>
						<g>
							<g>
								<path style="fill:#371A45;"
									d="M3052.917,2894.875c-52.173,22.578-96.296,52.595-122.136,103.569
								c-8.664,16.062-15.414,33.768-23.043,53.4C2876.947,2964.432,2963.276,2870.605,3052.917,2894.875L3052.917,2894.875z" />
							</g>
						</g>
					</g>
				</g>
				<g>
					<g>
						<g>
							<g>
								<path style="fill:#371A45;"
									d="M2927.793,2898.43c-19.62,15.744-36.271,29.775-48.696,50.244
								c-12.67,20.329-17.73,41.505-23.321,66.062C2822.28,2964.51,2867.81,2890.615,2927.793,2898.43L2927.793,2898.43z" />
							</g>
						</g>
					</g>
				</g>
				<g>
					<g>
						<g>
							<g>
								<path style="fill:#371A45;"
									d="M3021.896,3357.722c50.533,27.743,101.165,46.881,158.506,49.399
								c18.563,1.092,37.546,0.482,58.333-0.211C3172.851,3461.186,3058.022,3434.956,3021.896,3357.722L3021.896,3357.722z" />
							</g>
						</g>
					</g>
				</g>
				<g>
					<g>
						<g>
							<g>
								<g>

									<path
										style="fill:none;stroke:#232323;stroke-width:29.575;stroke-linecap:round;stroke-linejoin:round;stroke-miterlimit:10;"
										d="
									M3036.502,3066.648" />
								</g>
							</g>
						</g>
					</g>
					<g>
						<g>
							<g>
								<g>
									<path style="fill:#FFB200;" d="M3386.426,3151.429c-0.812,8.207-2.121,16.335-3.93,24.342
									c-2.519,11.252-6.011,22.259-10.405,32.895c-19.054,46.14-55.192,85.308-104.422,107.158
									c-49.337,21.897-102.758,22.376-149.83,5.448c-10.338-3.721-20.371-8.28-29.978-13.635
									c-7.54-4.192-14.812-8.88-21.782-14.027c49.481-12.076,106.71-31.711,165.98-58.018
									C3291.323,3209.29,3344.275,3180.022,3386.426,3151.429z" />
								</g>
							</g>
						</g>
					</g>
					<g>
						<g>
							<g>
								<g>
									<g>
										<path style="fill:#D66B09;" d="M3118.059,3324.661l-0.219-3.377l-1.561-3.024l0.628-0.324l0.713-0.05
										c27.25-1.769,79.296-18.198,132.593-41.852c53.591-23.786,99.392-50.539,119.531-69.819l4.694,4.903
										c-20.667,19.786-67.212,47.037-121.47,71.12C3198.17,3306.56,3146.476,3322.815,3118.059,3324.661z" />
									</g>
								</g>
							</g>
						</g>
					</g>
					<g>
						<g>
							<g>
								<g>
									<path style="fill:#D66B09;" d="M3232.06,3235.594c59.263-26.303,112.216-55.571,154.366-84.165
									c-0.812,8.207-2.121,16.335-3.93,24.342c-32.446,23.224-84.226,51.817-144.476,78.558
									c-57.71,25.614-111.468,44.325-150.158,53.308c-7.54-4.192-14.812-8.88-21.782-14.027
									C3115.561,3281.535,3172.789,3261.9,3232.06,3235.594z" />
								</g>
							</g>
						</g>
					</g>
					<g style="opacity:0.35;">
						<g>
							<g>
								<g>
									<path style="fill:#232323;" d="M3391.102,3123.921c-0.812,8.207-2.122,16.335-3.93,24.342
									c-2.519,11.252-6.011,22.259-10.405,32.895c-19.054,46.14-55.192,85.308-104.422,107.158
									c-49.337,21.898-102.758,22.376-149.83,5.449c-10.338-3.721-20.371-8.28-29.978-13.636
									c-7.54-4.192-14.812-8.88-21.782-14.027c49.481-12.076,106.71-31.711,165.98-58.018
									C3295.998,3181.782,3348.951,3152.514,3391.102,3123.921z" />
								</g>
							</g>
						</g>
					</g>
					<g style="opacity:0.35;">
						<g>
							<g>
								<g>
									<path style="fill:#371A45;" d="M3383.329,3046.945c-1.435,1.15-2.923,2.309-4.483,3.49c1.405-1.482,2.8-3.001,4.146-4.545
									C3383.106,3046.236,3383.219,3046.582,3383.329,3046.945z" />
								</g>
							</g>
						</g>
						<g>
							<g>
								<g>
									<path style="fill:#232323;" d="M3379.912,3051.836l-2.341-2.619c1.39-1.458,2.765-2.96,4.096-4.487l2.043-2.346l1.653,5.184
									l-0.931,0.746C3382.984,3049.476,3381.482,3050.642,3379.912,3051.836z" />
								</g>
							</g>
						</g>
					</g>
					<g>
						<g>
							<g>
								<g>
									<path style="fill:#FFB200;" d="M3370.046,3050.062c3.443,7.758,6.359,15.621,8.754,23.544
									c-32.94,26.261-97.907,62.892-175.448,97.307c-77.533,34.413-148.289,58.021-189.862,64.832
									c-4.27-7.091-8.145-14.529-11.588-22.286c-0.162-0.365-0.321-0.723-0.476-1.091c-1.504-3.427-2.895-6.87-4.184-10.333
									c-3.031-8.103-5.501-16.293-7.433-24.524c-0.08-0.333-0.159-0.666-0.231-1.003c-2.802-12.239-4.417-24.561-4.894-36.83
									c-0.911-23.341,2.283-46.466,9.186-68.375c16.764-53.193,55.414-99.207,110.404-123.614
									c54.54-24.207,114.066-22.239,164.493,0.49c20.705,9.322,39.874,22.153,56.538,38.1
									c8.915,8.524,17.108,17.951,24.435,28.208c0.597,0.823,1.179,1.653,1.757,2.492c4.809,6.954,9.225,14.28,13.201,21.964
									c1.478,2.847,2.894,5.748,4.245,8.695C3369.318,3048.44,3369.684,3049.246,3370.046,3050.062z" />
								</g>
							</g>
						</g>
					</g>
					<g>
						<g>
							<g>
								<g>
									<path style="fill:#D66B09;" d="M3368.945,3047.638c0.373,0.802,0.74,1.608,1.102,2.424
									c3.443,7.758,6.359,15.621,8.754,23.544c-32.94,26.261-97.907,62.892-175.448,97.307
									c-77.533,34.413-148.289,58.021-189.862,64.832c-4.27-7.091-8.145-14.529-11.588-22.286
									c-0.162-0.365-0.321-0.723-0.476-1.091c39.404-4.074,111.42-26.889,190.463-61.971
									C3274.053,3113.928,3341.302,3074.196,3368.945,3047.638z" />
								</g>
							</g>
						</g>
					</g>
					<g>
						<g>
							<g>
								<g>
									<g>
										<path style="fill:#D66B09;" d="M2984.287,3146.453l0.797-13.551c27.433,1.615,99.384-20.687,174.968-54.235
										c90.173-40.023,148.501-78.598,159.516-96.017l11.475,7.256c-14.574,23.049-81.077,63.706-165.482,101.169
										C3086.973,3125.956,3014.125,3148.211,2984.287,3146.453z" />
									</g>
								</g>
							</g>
						</g>
					</g>
					<g>
						<g>
							<g>
								<g>
									<g>
										<path style="fill:#D66B09;" d="M2994.822,3078.023l-1.901-13.442c30.9-4.368,84.552-22.374,140.021-46.994
										c58.122-25.796,108.449-54.344,131.34-74.503l8.973,10.189c-23.855,21.007-75.509,50.406-134.803,76.722
										C3081.913,3055.088,3026.877,3073.492,2994.822,3078.023z" />
									</g>
								</g>
							</g>
						</g>
					</g>
					<g>
						<g>
							<g>
								<g>
									<g>
										<path style="fill:#D66B09;" d="M2989.498,3183.295l0.163-13.575c31.496,0.373,105.844-22.983,185.01-58.119
										c83.038-36.856,152.789-78.454,169.618-101.158l10.907,8.084c-18.374,24.783-88.708,67.174-175.017,105.482
										C3098.132,3160.425,3023.285,3183.696,2989.498,3183.295z" />
									</g>
								</g>
							</g>
						</g>
					</g>
					<g>
						<g>
							<g>
								<g>
									<path style="fill:#232323;" d="M3186.096,3344.123c-44.846,0-89.39-14.138-126.58-41.637
									c-3.443-2.546-5.106-6.857-4.257-11.055c0.844-4.199,4.043-7.53,8.203-8.544c50.63-12.357,107.38-32.201,164.121-57.384
									c56.736-25.178,109.516-53.951,152.646-83.207c3.545-2.414,8.164-2.541,11.841-0.356c3.682,2.195,5.764,6.315,5.345,10.578
									c-7.52,76.004-55.517,142.444-125.268,173.396C3244.636,3338.124,3215.303,3344.123,3186.096,3344.123z M3093.131,3297.935
									c51.874,28.909,115.042,32.215,170.061,7.798s94.935-73.482,108.297-131.344c-39.809,25.149-85.972,49.557-134.953,71.293
									C3187.554,3267.427,3138.49,3285.285,3093.131,3297.935z" />
								</g>
							</g>
						</g>
					</g>
					<g>
						<g>
							<g>
								<g>
									<path style="fill:#FFC536;" d="M3486.055,3029.788c11.969,26.966-28.437,73.348-99.629,121.641
									c-42.15,28.594-95.103,57.861-154.366,84.165c-59.27,26.306-116.499,45.941-165.98,58.018
									c-83.573,20.397-145.069,19.243-157.038-7.722c-10.869-24.49,21.445-64.976,80.768-108.379
									c1.931,8.231,4.401,16.421,7.433,24.524c-16.41,13.228-24.518,23.757-21.77,29.947c2.798,6.305,16.501,7.282,38.017,3.763
									c41.573-6.81,112.329-30.419,189.862-64.832c77.541-34.416,142.508-71.046,175.448-97.307
									c17.036-13.592,25.504-24.409,22.706-30.714c-2.744-6.183-15.995-7.241-36.806-3.949
									c-3.976-7.684-8.392-15.01-13.201-21.964C3423.483,3002.102,3475.186,3005.298,3486.055,3029.788z" />
								</g>
							</g>
						</g>
					</g>
					<g>
						<g>
							<g>
								<g>
									<g>
										<path style="fill:#FFEC90;" d="M2971.939,3257.703c-9.759-1.656-16.799-5.416-19.73-12.021
										c-5.897-13.287,6.729-31.858,38.594-56.77l6.766,8.653c-29.938,23.408-37.875,37.902-35.32,43.66
										c4.293,9.677,41.723,10.4,113.767-10.837c40.288-11.881,85.875-28.946,131.83-49.343
										c45.96-20.399,89.194-42.758,125.03-64.661c64.082-39.182,88.652-67.433,84.363-77.098
										c-2.562-5.767-18.631-9.603-56.072-3.095l-1.881-10.825c39.862-6.923,62.093-3.824,67.992,9.463
										c10.592,23.865-42.373,62.621-88.672,90.927c-36.24,22.15-79.912,44.739-126.302,65.329
										c-46.388,20.591-92.441,37.824-133.182,49.84C3041.477,3252.021,2997.437,3262.034,2971.939,3257.703z" />
									</g>
								</g>
							</g>
						</g>
					</g>
					<g>
						<g>
							<g>
								<g>
									<g>
										<path style="fill:#FFEC90;" d="M2954.764,3284.426c-13.756-2.338-24.146-7.643-28.441-17.323
										c-11.104-25.015,27.626-60.949,62.069-86.693l6.578,8.8c-50.493,37.735-63.384,62.678-58.607,73.435
										c5.894,13.27,44.247,20.358,132.978-3.366c45.866-12.257,97.497-30.89,149.313-53.887
										c51.81-22.996,100.264-48.784,140.126-74.578c77.118-49.89,97.603-83.09,91.712-96.36
										c-4.777-10.754-31.908-17.929-93.777-5.802l-2.112-10.778c42.194-8.276,94.827-12.89,105.928,12.122
										c14.427,32.497-53.819,82.891-95.784,110.042c-40.336,26.099-89.314,52.169-141.636,75.393
										c-52.33,23.225-104.524,42.059-150.934,54.46C3038.279,3278.952,2987.186,3289.934,2954.764,3284.426z" />
									</g>
								</g>
							</g>
						</g>
					</g>
					<g style="opacity:0.35;">
						<g>
							<g>
								<g>
									<path style="fill:#232323;" d="M3093.665,3274.041c48.464-11.835,104.361-30.899,162.338-56.407
									c-53.006,6.972-89.764,1.253-98.729-18.949c-1.042-2.35-1.666-4.858-1.927-7.491
									c-58.101,23.327-109.071,39.18-141.857,44.55c-21.515,3.52-35.219,2.542-38.017-3.763
									c-2.749-6.19,5.359-16.718,21.77-29.947c-2.824-7.548-5.14-15.171-7.008-22.832c-41.659,35.11-62.673,66.68-53.612,87.115
									C2948.591,3293.279,3010.094,3294.434,3093.665,3274.041z" />
								</g>
							</g>
						</g>
					</g>
					<g>
						<g>
							<g>
								<g>
									<path style="fill:#232323;" d="M2968.585,3318.71c-32.362,0-60.154-6.993-69.635-28.339
									c-16.625-37.478,36.688-86.908,84.338-121.771c2.994-2.19,6.881-2.721,10.349-1.444c3.477,1.282,6.071,4.228,6.92,7.832
									c1.834,7.808,4.194,15.61,7.027,23.184c1.663,4.452,0.288,9.47-3.414,12.455c-9.646,7.779-14.206,12.894-16.352,15.879
									c3.78,0.415,10.934,0.458,23.886-1.658c41.954-6.871,113.671-31.406,187.168-64.027
									c73.492-32.615,139.796-69.342,173.045-95.847c10.26-8.188,15.035-13.528,17.244-16.6
									c-3.667-0.419-10.504-0.463-22.735,1.473c-4.682,0.761-9.339-1.599-11.529-5.828c-3.716-7.174-7.915-14.162-12.479-20.765
									c-2.107-3.043-2.546-6.945-1.166-10.383c1.375-3.438,4.384-5.955,8.012-6.706c57.823-11.948,130.252-18.327,146.877,19.146
									c19.307,43.481-56.57,103.406-103.518,135.251c-44.198,29.982-98.173,59.418-156.089,85.118
									c-57.916,25.71-115.954,45.992-167.837,58.652C3040.638,3311.185,3002.151,3318.71,2968.585,3318.71z M2983.503,3196.08
									c-55.824,43.364-69.917,72.829-64.373,85.333c7.32,16.479,54.795,23.325,144.331,1.473
									c50.63-12.357,107.38-32.201,164.121-57.384c56.736-25.178,109.516-53.951,152.646-83.207
									c76.286-51.752,103.05-91.546,95.735-108.024c0-0.005,0-0.005,0-0.005c-5.55-12.504-36.848-21.818-106.459-9.505
									c0.419,0.722,0.839,1.453,1.253,2.185c17.146-2.053,35.078-1.502,40.838,11.465c6.725,15.152-10.314,31.382-25.91,43.827
									c-35.142,28.012-101.631,64.933-177.859,98.763c-76.228,33.84-148.208,58.374-192.552,65.636
									c-19.692,3.224-43.169,4.974-49.894-10.178c-5.754-12.972,5.867-26.641,18.902-37.985
									C2984.015,3197.68,2983.756,3196.88,2983.503,3196.08z" />
								</g>
							</g>
						</g>
					</g>
					<g style="opacity:0.35;">
						<g>
							<g>
								<g>
									<path style="fill:#232323;" d="M3404.086,3055.664c-32.933,26.259-97.907,62.896-175.444,97.309
									c-77.536,34.412-148.297,58.022-189.871,64.836c-4.26-7.1-8.135-14.535-11.588-22.29c-0.162-0.367-0.313-0.721-0.476-1.088
									c-1.497-3.434-2.894-6.871-4.176-10.333c-3.03-8.099-5.5-16.291-7.439-24.527c-0.078-0.334-0.156-0.667-0.222-1
									c-2.802-12.244-4.418-24.565-4.902-36.832c-0.903-23.338,2.291-46.465,9.189-68.382
									c13.563-43.021,41.422-81.333,80.686-107.324c-10.319,15.656-18.388,32.67-23.998,50.478
									c-6.911,21.916-10.104,45.031-9.19,68.382c0.471,12.265,2.088,24.587,4.891,36.818c0.077,0.346,0.155,0.679,0.233,1.013
									c0.104,0.441,0.248,0.986,0.429,1.624c9.876,34.717,46.966,49.621,82.947,46.768
									c68.586-5.438,217.848-83.948,249.615-102.092C3406.9,3054.364,3402.444,3050.249,3404.086,3055.664z" />
								</g>
							</g>
						</g>
					</g>
					<g style="opacity:0.41;">
						<g>
							<g>
								<g>
									<g>
										<path style="fill:#FFFFFF;" d="M3373.286,3077.582c-3.834,3.058-8.094,6.248-12.769,9.569
										c-1.842-5.31-3.923-10.595-6.237-15.816c-0.366-0.814-0.734-1.616-1.102-2.417c-1.347-2.956-2.761-5.856-4.245-8.7
										c-3.974-7.684-8.398-15.013-13.198-21.969c-0.577-0.836-1.168-1.66-1.758-2.485c-7.325-10.258-15.524-19.693-24.444-28.214
										c-16.663-15.943-35.826-28.778-56.53-38.092c-50.434-22.729-109.961-24.706-164.5-0.495
										c-36.407,16.161-65.658,41.799-86.131,72.727c20.368-38.624,53.376-70.933,96.395-90.028
										c54.537-24.199,114.066-22.234,164.487,0.494c20.702,9.326,39.879,22.15,56.541,38.106
										c8.907,8.519,17.107,17.942,24.432,28.2c0.603,0.826,1.18,1.662,1.757,2.497c4.813,6.957,9.226,14.273,13.2,21.956
										c1.482,2.857,2.897,5.757,4.245,8.7c0.38,0.803,0.748,1.605,1.1,2.43
										C3367.971,3061.799,3370.888,3069.661,3373.286,3077.582z" />
									</g>
								</g>
							</g>
						</g>
					</g>
					<g>
						<g>
							<g>
								<g>
									<path style="fill:#232323;" d="M3013.485,3246.783c-3.823,0-7.437-1.994-9.456-5.35c-4.521-7.51-8.627-15.415-12.216-23.491
									c-1.746-3.931-3.399-7.983-4.916-12.045c-3.155-8.447-5.793-17.147-7.837-25.866
									c-23.228-99.119,27.549-201.077,120.738-242.431c93.184-41.359,202.862-10.616,260.782,73.097
									c5.096,7.374,9.783,15.167,13.923,23.169c1.96,3.78,3.857,7.72,5.633,11.709c0,0.005,0,0.005,0,0.01
									c3.594,8.1,6.7,16.454,9.231,24.827c1.307,4.326-0.151,9.012-3.687,11.826c-35.137,28.012-101.626,64.933-177.854,98.763
									c-76.228,33.84-148.208,58.374-192.552,65.636C3014.675,3246.735,3014.08,3246.783,3013.485,3246.783z M3185.906,2941.403
									c-25.949,0-52.21,5.306-77.155,16.376c-83.499,37.058-129.004,128.409-108.195,217.214
									c1.834,7.803,4.194,15.605,7.027,23.179c1.361,3.648,2.843,7.286,4.408,10.807c2.19,4.935,4.599,9.797,7.188,14.518
									c42.681-8.349,110.394-31.918,179.692-62.676c69.293-30.752,132.198-65.163,167.027-91.209
									c-1.76-5.082-3.75-10.129-5.945-15.074c-1.595-3.584-3.297-7.12-5.052-10.509c-3.721-7.183-7.92-14.172-12.484-20.775
									C3306.029,2970.659,3246.826,2941.403,3185.906,2941.403z" />
								</g>
							</g>
						</g>
					</g>
				</g>
			</g>
			<g>
				<g>
					<g>
						<g>
							<path style="fill:#371A45;" d="M1133.744,3403.567c59.71-45.41,97.732-111.209,90.023-187.494
							c-2.169-24.145-8.389-48.087-16.78-71.859c14.481,20.652,24.705,44.672,29.463,70.084
							C1252.603,3292.329,1206.776,3373.614,1133.744,3403.567L1133.744,3403.567z" />
						</g>
					</g>
				</g>
			</g>
			<g>
				<g>
					<g>
						<g>
							<path style="fill:#371A45;"
								d="M790.547,2945.135c-57.294,9.891-108.917,40.831-134.287,94.214
							c-8.403,17.038-14.211,35.565-18.815,55.039C627.583,3007.276,703.553,2932.587,790.547,2945.135L790.547,2945.135z" />
						</g>
					</g>
				</g>
			</g>
			<g>
				<g>
					<g>
						<g>
							<path style="fill:#371A45;" d="M665.409,2942.216c-32.866,15.997-60.098,40.501-70.531,76.039
							c-3.656,11.34-5.646,23.44-7.404,36.388C565.307,3002.153,608.349,2939.623,665.409,2942.216L665.409,2942.216z" />
						</g>
					</g>
				</g>
			</g>
			<g>
				<g>
					<g>
						<g>
							<path style="fill:#371A45;" d="M739.14,3413.885c62.803,49.427,138.983,66.546,216.907,48.894
							C885.89,3504.847,784.525,3481.878,739.14,3413.885L739.14,3413.885z" />
						</g>
					</g>
				</g>
			</g>
			<g>
				<g>
					<g>
						<g>
							<path style="fill:#FFD243;" d="M1136.774,3249.273c-38.359,113.683-161.595,174.753-275.285,136.412
							c-19.707-6.646-37.825-15.844-54.116-27.105c-7.097-4.893-13.849-10.181-20.223-15.812
							c-61.365-54.208-88.936-140.721-64.813-223.495c0.845-2.966,1.773-5.91,2.768-8.852c2.879-8.536,6.24-16.772,10.047-24.676
							c13.17-27.534,31.666-51.241,53.762-70.305c1.427-1.234,2.877-2.441,4.336-3.64c24.039-19.677,52.073-33.994,82.065-41.965
							c39.82-10.597,83.091-9.984,125.067,4.167c23.161,7.816,44.133,19.146,62.532,33.218
							C1134.822,3062.177,1167.315,3158.751,1136.774,3249.273z" />
						</g>
					</g>
				</g>
			</g>
			<g>
				<g>
					<g>
						<g>
							<path style="fill:#FF9D33;" d="M766.999,3323.67c4.808,5.172,9.872,10.132,15.199,14.838
							c6.375,5.631,13.126,10.919,20.223,15.812c16.291,11.261,34.409,20.459,54.116,27.105
							c113.69,38.342,236.927-22.728,275.285-136.412c25.776-76.419,6.627-157.139-43.229-213.501
							c-4.585-4.986-9.39-9.792-14.457-14.355c41.035,55.231,55.215,128.999,31.555,199.136
							c-38.359,113.684-161.595,174.754-275.285,136.412c-19.707-6.646-37.825-15.844-54.116-27.105
							c-7.097-4.893-13.849-10.181-20.223-15.812c-0.515-0.461-1.031-0.922-1.547-1.382c5.145,6.923,10.724,13.542,16.687,19.837
							C769.783,3326.737,768.379,3325.213,766.999,3323.67z" />
						</g>
					</g>
				</g>
			</g>
			<g style="opacity:0.4;">
				<g>
					<g>
						<g>
							<path style="fill:#FFFFFF;" d="M1002.856,2966.897c-40.916-13.068-82.934-13.411-121.689-3.098
							c-29.992,7.971-58.026,22.288-82.065,41.966c-1.458,1.199-2.909,2.406-4.335,3.64c-22.097,19.063-40.593,42.77-53.763,70.305
							c-3.807,7.905-7.167,16.141-10.047,24.677c-0.995,2.942-1.923,5.886-2.768,8.852c-24.122,82.774,3.449,169.287,64.813,223.495
							c6.375,5.631,13.126,10.919,20.223,15.812c1.607,1.111,3.247,2.186,4.889,3.256c-70.058-56.54-101.155-152.747-70.69-243.056
							c2.885-8.565,6.251-16.836,10.057-24.789c0.455,0.39,0.941,0.75,1.446,1.085c10.773,7.157,28.51-0.597,39.627-17.331
							c11.112-16.725,11.391-36.089,0.618-43.246l-0.035-0.023C850.966,2975.685,927.503,2950.916,1002.856,2966.897z" />
						</g>
					</g>
				</g>
			</g>
			<g>
				<g>
					<g>
						<g>
							<path style="fill:#232323;" d="M931.39,3407.442c-24.169,0-48.723-3.867-72.863-12.007
							c-57.843-19.517-104.63-60.384-131.73-115.086c-27.105-54.702-31.284-116.68-11.768-174.528
							c40.286-119.416,170.227-183.774,289.623-143.517c57.843,19.512,104.625,60.379,131.73,115.081
							c27.105,54.702,31.284,116.68,11.767,174.528C1116.008,3347.19,1026.788,3407.432,931.39,3407.442z M931.766,2972.941
							c-85.952,0-166.32,54.273-195.278,140.118c-17.585,52.117-13.821,107.956,10.597,157.24
							c24.418,49.279,66.567,86.103,118.68,103.679c107.585,36.297,224.636-21.716,260.929-129.301
							c17.586-52.117,13.821-107.956-10.597-157.24c-24.418-49.279-66.567-86.098-118.68-103.674l0,0
							C975.676,2976.428,953.54,2972.941,931.766,2972.941z" />
						</g>
					</g>
				</g>
			</g>
			<g>
				<g>
					<g>
						<g>

							<ellipse transform="matrix(0.642 -0.7667 0.7667 0.642 -2099.8955 1731.749)" style="fill:#FF9D33;"
								cx="804.396" cy="3114.427" rx="48.213" ry="30.198" />
						</g>
					</g>
				</g>
			</g>
			<g>
				<g>
					<g>
						<g>

							<ellipse transform="matrix(0.642 -0.7667 0.7667 0.642 -2102.3865 1739.496)" style="fill:#FFD243;"
								cx="811.427" cy="3120.945" rx="42.162" ry="18.956" />
						</g>
					</g>
				</g>
			</g>
			<g>
				<g>
					<g>
						<g>
							<path style="fill:#232323;"
								d="M819.142,3070.043c23.436-3.473,32.138,21.499,26.421,40.21
							c-7.458,26.197-29.988,51.671-59.165,51.601c-36.883-4.336-25.667-50.225-6.198-68.186c1.359-1.465,3.735,0.448,2.633,2.081
							c-4.536,7.041-8.53,14.413-10.468,22.295c-4.211,13.249-2.103,32.946,14.584,33.179c22.858-0.949,41.943-22.999,49.047-43.657
							c5.275-14.427,1.411-33.304-16.621-33.358C816.872,3074.194,816.709,3070.344,819.142,3070.043L819.142,3070.043z" />
						</g>
					</g>
				</g>
			</g>
			<g>
				<g>
					<g>
						<g>
							<path style="fill:#232323;" d="M844.555,3142.344c-7.228,31.079-59.096,51.906-79.791,22.872
							c-0.949-1.606,1.226-3.367,2.595-2.136c24.071,15.61,57.775-1.793,73.394-22.453
							C841.999,3138.717,845.166,3140.169,844.555,3142.344L844.555,3142.344z" />
						</g>
					</g>
				</g>
			</g>
			<g>
				<g>
					<g>
						<g>

							<ellipse transform="matrix(0.712 -0.7022 0.7022 0.712 -2070.7302 1533.9296)" style="fill:#FF9D33;"
								cx="834.424" cy="3291.089" rx="30.258" ry="48.31" />
						</g>
					</g>
				</g>
			</g>
			<g>
				<g>
					<g>
						<g>

							<ellipse transform="matrix(0.712 -0.7022 0.7022 0.712 -2064.1885 1537.0287)" style="fill:#FFD243;"
								cx="841.477" cy="3284.671" rx="18.957" ry="42.158" />
						</g>
					</g>
				</g>
			</g>
			<g>
				<g>
					<g>
						<g>
							<path style="fill:#232323;" d="M791.54,3272.156c-1.226-23.658,24.455-29.95,42.54-22.483
							c25.37,9.91,48.588,34.765,45.74,63.802c-7.823,36.3-52.437,20.779-68.465-0.311c-1.349-1.517,0.855-3.707,2.362-2.389
							c11.935,9.647,28.471,18.334,43.607,14.924c25.032-8.711,6.384-41.888-7.293-53.679c-13.611-14.45-49.725-28.707-54.323,0.299
							C795.457,3274.811,791.608,3274.604,791.54,3272.156L791.54,3272.156z" />
						</g>
					</g>
				</g>
			</g>
			<g>
				<g>
					<g>
						<g>
							<path style="fill:#232323;" d="M865.932,3253.727c30.254,10.144,46.047,63.766,15.177,81.601
							c-1.689,0.79-3.235-1.54-1.881-2.788c17.831-22.472,3.714-57.684-15.366-75.193
							C862.079,3255.928,863.825,3252.911,865.932,3253.727L865.932,3253.727z" />
						</g>
					</g>
				</g>
			</g>
			<g>
				<g>
					<g>
						<g>

							<ellipse transform="matrix(0.6262 -0.7797 0.7797 0.6262 -2111.0544 1916.4783)" style="fill:#FF9D33;"
								cx="943.165" cy="3159.854" rx="40.686" ry="34.702" />
						</g>
					</g>
				</g>
			</g>
			<g>
				<g>
					<g>
						<g>

							<ellipse transform="matrix(0.8232 -0.5677 0.5677 0.8232 -1634.3639 1098.9491)" style="fill:#FFD243;"
								cx="947.515" cy="3173.942" rx="30.57" ry="24.664" />
						</g>
					</g>
				</g>
			</g>
			<g>
				<g>
					<g>
						<g>
							<path style="fill:#232323;"
								d="M970.503,3180.392c13.367-19.667,8.787-50.771-16.247-54.763
							c-22.738-3.428-44.479,17.799-45.263,40.248c-1.13,15.898,10.235,30.621,26.549,32.462c1.991,0.222,1.81,3.322-0.159,3.358
							c-19.266,1.47-36.143-16.782-35.673-35.857c-0.522-19.231,11.072-37.499,28.055-46.404
							c44.211-22.18,77.616,28.412,46.048,63.495C972.156,3184.833,969.108,3182.455,970.503,3180.392L970.503,3180.392z" />
						</g>
					</g>
				</g>
			</g>
			<g>
				<g>
					<g>
						<g>
							<path style="fill:#232323;"
								d="M896.526,3187.357c26.104,50.597,94.528,17.999,99.691-29.731
							c2.218-15.594-2.455-31.928-14.41-42.799c-1.539-1.289,0.372-3.802,2.022-2.687c32.69,21.035,25.258,70.998-1.905,93.714
							c-27.166,26.07-78.156,23.347-89.319-17.073C891.907,3186.356,895.531,3185.066,896.526,3187.357L896.526,3187.357z" />
						</g>
					</g>
				</g>
			</g>
			<g>
				<g>
					<g>
						<g>

							<ellipse transform="matrix(0.7812 -0.6243 0.6243 0.7812 -1683.3232 1232.5646)" style="fill:#FF9D33;"
								cx="916.508" cy="3017.429" rx="21.591" ry="18.416" />
						</g>
					</g>
				</g>
			</g>
			<g>
				<g>
					<g>
						<g>

							<ellipse transform="matrix(0.9272 -0.3745 0.3745 0.9272 -1066.193 563.6102)" style="fill:#FFD243;"
								cx="917.13" cy="3025.229" rx="16.223" ry="13.089" />
						</g>
					</g>
				</g>
			</g>
			<g>
				<g>
					<g>
						<g>
							<path style="fill:#232323;" d="M928.107,3031.014c5.991-6.176,8.471-15.322,5.457-22.12
							c-7.418-15.579-31.516-6.959-34.834,7.839c-2.433,7.885,1.443,16.521,9.434,19.524c1.226,0.457,0.669,2.389-0.59,2.162
							c-25.257-5.86-16.079-39.663,5.445-44.442c25.978-6.715,38.202,24.679,16.872,39.171
							C928.539,3034.092,926.964,3032.161,928.107,3031.014L928.107,3031.014z" />
						</g>
					</g>
				</g>
			</g>
			<g>
				<g>
					<g>
						<g>
							<path style="fill:#232323;"
								d="M889.452,3026.238c7.544,28.139,46.425,19.237,54.19-4.017
							c2.905-7.466,2.719-16.326-2.082-23.49c-0.774-1.06,0.795-2.374,1.707-1.453c15.05,14.684,5.352,40.366-11.639,49.129
							c-16.886,10.726-44.651,2.582-44.933-19.813C886.627,3024.951,889.111,3024.649,889.452,3026.238L889.452,3026.238z" />
						</g>
					</g>
				</g>
			</g>
			<g>
				<g>
					<g>
						<g>
							<path style="fill:#232323;" d="M989.61,3026.284c-12.66,32.226,22.3,60.468,52.813,55.292
							c10.253-1.372,20.343-5.73,28.046-13.421c1.091-1.21,3.079,0.374,2.165,1.715c-20.613,31.872-75.669,24.759-89.244-10.378
							c-4.735-11.405-3.494-25.063,3.187-34.81C987.685,3023.003,990.374,3024.438,989.61,3026.284L989.61,3026.284z" />
						</g>
					</g>
				</g>
			</g>
			<g>
				<g>
					<g>
						<g>

							<ellipse transform="matrix(0.4756 -0.8797 0.8797 0.4756 -2136.9541 2503.9993)" style="fill:#FF9D33;"
								cx="1031.657" cy="3044.289" rx="27.906" ry="33.669" />
						</g>
					</g>
				</g>
			</g>
			<g>
				<g>
					<g>
						<g>
							<path style="fill:#FFD243;" d="M1054.779,3061.382c-6.083,7.847-17.65,11.551-29.767,8.55
							c-16.131-4.001-27.13-18.382-24.572-32.122c0.359-1.941,0.973-3.765,1.81-5.454c6.858-3.86,15.804-5.097,25.05-2.811
							C1043.685,3033.612,1055.271,3047.392,1054.779,3061.382z" />
						</g>
					</g>
				</g>
			</g>
			<g>
				<g>
					<g>
						<g>
							<path style="fill:#232323;" d="M1038.263,3018.311c-17.09-2.149-35.638,10.488-31.333,28.011
							c4.311,16.171,25.003,23.338,39.833,16.741c10.643-4.399,17.107-16.073,13.689-27.542c-0.476-1.555,1.879-2.448,2.575-1.007
							c13.704,31.839-29.74,51.023-53.056,31.883c-28.562-22.54-3.834-61.487,28.988-51.444
							C1040.923,3015.522,1040.264,3018.567,1038.263,3018.311L1038.263,3018.311z" />
						</g>
					</g>
				</g>
			</g>
			<g>
				<g>
					<g>
						<g>
							<path style="fill:#FFD243;" d="M1082.117,3181.404c11.181-2.9,22.368-2.465,32.412,1.947
							c18.202,7.994,27.473,26.694,28.429,49.712c0.628,15.102-2.763,31.838-10.575,48.111
							c-19.72,41.075-60.142,63.642-90.286,50.404c-11.217-4.926-19.43-14.115-24.306-25.83c-8.228-19.767-5.93-46.202,6.452-71.993
							" />
						</g>
					</g>
				</g>
			</g>
			<g>
				<g>
					<g>
						<g>
							<path style="fill:#232323;"
								d="M1115.369,3181.441c19.354,6.423,30.239,27.333,32.14,46.633
							c5.245,48.012-28.031,102.116-77.414,110.008c-9.813,1.077-20.105-0.275-28.673-4.965c-0.817-0.448-1.117-1.473-0.671-2.291
							c0.398-0.724,1.266-1.036,2.021-0.788c8.559,2.804,17.607,3.156,26.142,1.065c42.965-11.45,70.774-59.149,68.88-102.132
							c-0.995-17.424-7.928-35.194-24.102-43.71C1111.462,3184.152,1113.054,3180.558,1115.369,3181.441L1115.369,3181.441z" />
						</g>
					</g>
				</g>
			</g>
			<g>
				<g>
					<g>
						<g>

							<ellipse transform="matrix(0.543 -0.8398 0.8398 0.543 -2242.5386 2393.9248)" style="fill:#FF9D33;"
								cx="1078.046" cy="3257.198" rx="62.67" ry="45.544" />
						</g>
					</g>
				</g>
			</g>
			<g>
				<g>
					<g>
						<g>

							<ellipse transform="matrix(0.6094 -0.7929 0.7929 0.6094 -2167.9919 2136.468)" style="fill:#FFD243;"
								cx="1084.391" cy="3268.616" rx="53.125" ry="33.495" />
						</g>
					</g>
				</g>
			</g>
			<g>
				<g>
					<g>
						<g>
							<path style="fill:#232323;" d="M1075.818,3317.315c-27.255,9.663-51.17-12.6-52.419-39.658
							c-2.752-37.009,22.393-77.852,60.501-84.654c47.774-5.417,56.935,50.488,36.96,83.173c-0.992,1.817-3.824,0.426-3.03-1.455
							c12.6-27.415,6.982-76.983-32.312-71.198c-31.737,6.639-53.172,42.175-52.21,73.439c0.089,22.898,18.022,41.557,41.463,36.313
							C1077.269,3312.723,1078.227,3316.587,1075.818,3317.315L1075.818,3317.315z" />
						</g>
					</g>
				</g>
			</g>
		</g>
	</g>
</svg>